font.ufo
<glyph name="exclam" format="1">
  <advance width="311"/>
  <unicode hex="0021"/>
  <outline>
    <contour>
      <point x="80" y="622" type="line"/>
      <point x="103" y="203" type="line"/>
      <point x="209" y="203" type="line"/>
      <point x="232" y="622" type="line"/>
    </contour>
    <contour>
      <point x="84" y="0" type="line"/>
      <point x="227" y="0" type="line"/>
      <point x="227" y="125" type="line"/>
      <point x="84" y="125" type="line"/>
    </contour>
  </outline>
</glyph>
<glyph name="quotedbl" format="1">
  <advance width="410"/>
  <unicode hex="0022"/>
  <outline>
    <contour>
      <point x="57" y="622" type="line"/>
      <point x="57" y="390" type="line"/>
      <point x="174" y="390" type="line"/>
      <point x="174" y="622" type="line"/>
    </contour>
    <contour>
      <point x="236" y="622" type="line"/>
      <point x="236" y="390" type="line"/>
      <point x="353" y="390" type="line"/>
      <point x="353" y="622" type="line"/>
    </contour>
  </outline>
</glyph>
<glyph name="numbersign" format="1">
  <advance width="949"/>
  <unicode hex="0023"/>
  <outline>
    <contour>
      <point x="353" y="622" type="line"/>
      <point x="148" y="0" type="line"/>
      <point x="262" y="0" type="line"/>
      <point x="466" y="622" type="line"/>
    </contour>
    <contour>
      <point x="895" y="466" type="line"/>
      <point x="105" y="466" type="line"/>
      <point x="105" y="391" type="line"/>
      <point x="895" y="391" type="line"/>
    </contour>
    <contour>
      <point x="609" y="0" type="line"/>
      <point x="814" y="622" type="line"/>
      <point x="701" y="622" type="line"/>
      <point x="496" y="0" type="line"/>
    </contour>
    <contour>
      <point x="54" y="156" type="line"/>
      <point x="844" y="156" type="line"/>
      <point x="844" y="231" type="line"/>
      <point x="54" y="231" type="line"/>
    </contour>
  </outline>
</glyph>
<glyph name="dollar" format="1">
  <advance width="660"/>
  <unicode hex="0024"/>
  <outline>
    <contour>
      <point x="391" y="608" type="line"/>
      <point x="391" y="714" type="line"/>
      <point x="262" y="714" type="line"/>
      <point x="262" y="608" type="line"/>
    </contour>
    <contour>
      <point x="391" y="-91" type="line"/>
      <point x="391" y="14" type="line"/>
      <point x="262" y="14" type="line"/>
      <point x="262" y="-91" type="line"/>
    </contour>
    <contour>
      <point x="458" y="90" type="line"/>
      <point x="458" y="64"/>
      <point x="453" y="59"/>
      <point x="427" y="59" type="curve" smooth="yes"/>
      <point x="234" y="59" type="line" smooth="yes"/>
      <point x="208" y="59"/>
      <point x="203" y="64"/>
      <point x="203" y="90" type="curve" smooth="yes"/>
      <point x="203" y="183" type="line"/>
      <point x="70" y="183" type="line"/>
      <point x="70" y="79" type="line" smooth="yes"/>
      <point x="70" y="26"/>
      <point x="96" y="0"/>
      <point x="149" y="0" type="curve" smooth="yes"/>
      <point x="511" y="0" type="line" smooth="yes"/>
      <point x="564" y="0"/>
      <point x="590" y="26"/>
      <point x="590" y="79" type="curve" smooth="yes"/>
      <point x="590" y="264" type="line" smooth="yes"/>
      <point x="590" y="317"/>
      <point x="564" y="343"/>
      <point x="511" y="343" type="curve" smooth="yes"/>
      <point x="231" y="343" type="line" smooth="yes"/>
      <point x="205" y="343"/>
      <point x="200" y="348"/>
      <point x="200" y="374" type="curve" smooth="yes"/>
      <point x="200" y="532" type="line" smooth="yes"/>
      <point x="200" y="558"/>
      <point x="205" y="563"/>
      <point x="231" y="563" type="curve" smooth="yes"/>
      <point x="423" y="563" type="line" smooth="yes"/>
      <point x="449" y="563"/>
      <point x="454" y="558"/>
      <point x="454" y="532" type="curve" smooth="yes"/>
      <point x="454" y="439" type="line"/>
      <point x="587" y="439" type="line"/>
      <point x="587" y="543" type="line" smooth="yes"/>
      <point x="587" y="596"/>
      <point x="561" y="622"/>
      <point x="508" y="622" type="curve" smooth="yes"/>
      <point x="147" y="622" type="line" smooth="yes"/>
      <point x="94" y="622"/>
      <point x="68" y="596"/>
      <point x="68" y="543" type="curve" smooth="yes"/>
      <point x="68" y="363" type="line" smooth="yes"/>
      <point x="68" y="310"/>
      <point x="94" y="284"/>
      <point x="147" y="284" type="curve" smooth="yes"/>
      <point x="427" y="284" type="line" smooth="yes"/>
      <point x="453" y="284"/>
      <point x="458" y="279"/>
      <point x="458" y="253" type="curve" smooth="yes"/>
    </contour>
  </outline>
</glyph>
<glyph name="percent" format="1">
  <advance width="1128"/>
  <unicode hex="0025"/>
  <outline>
    <contour>
      <point x="1076" y="280" type="line"/>
      <point x="1076" y="322"/>
      <point x="1057" y="343"/>
      <point x="1016" y="343" type="curve" smooth="yes"/>
      <point x="757" y="343" type="line" smooth="yes"/>
      <point x="716" y="343"/>
      <point x="696" y="322"/>
      <point x="696" y="280" type="curve" smooth="yes"/>
      <point x="696" y="64" type="line" smooth="yes"/>
      <point x="696" y="21"/>
      <point x="716" y="1"/>
      <point x="757" y="1" type="curve" smooth="yes"/>
      <point x="1016" y="1" type="line" smooth="yes"/>
      <point x="1057" y="1"/>
      <point x="1076" y="21"/>
      <point x="1076" y="64" type="curve" smooth="yes"/>
    </contour>
    <contour>
      <point x="975" y="77" type="line"/>
      <point x="975" y="55"/>
      <point x="972" y="51"/>
      <point x="950" y="51" type="curve" smooth="yes"/>
      <point x="823" y="51" type="line" smooth="yes"/>
      <point x="802" y="51"/>
      <point x="799" y="55"/>
      <point x="799" y="77" type="curve" smooth="yes"/>
      <point x="799" y="267" type="line" smooth="yes"/>
      <point x="799" y="288"/>
      <point x="802" y="292"/>
      <point x="823" y="292" type="curve" smooth="yes"/>
      <point x="950" y="292" type="line" smooth="yes"/>
      <point x="972" y="292"/>
      <point x="975" y="288"/>
      <point x="975" y="267" type="curve" smooth="yes"/>
    </contour>
    <contour>
      <point x="742" y="622" type="line"/>
      <point x="275" y="0" type="line"/>
      <point x="382" y="0" type="line"/>
      <point x="851" y="622" type="line"/>
    </contour>
    <contour>
      <point x="432" y="558" type="line"/>
      <point x="432" y="601"/>
      <point x="413" y="621"/>
      <point x="371" y="621" type="curve" smooth="yes"/>
      <point x="112" y="621" type="line" smooth="yes"/>
      <point x="71" y="621"/>
      <point x="52" y="601"/>
      <point x="52" y="558" type="curve" smooth="yes"/>
      <point x="52" y="342" type="line" smooth="yes"/>
      <point x="52" y="299"/>
      <point x="71" y="279"/>
      <point x="112" y="279" type="curve" smooth="yes"/>
      <point x="371" y="279" type="line" smooth="yes"/>
      <point x="413" y="279"/>
      <point x="432" y="299"/>
      <point x="432" y="342" type="curve" smooth="yes"/>
    </contour>
    <contour>
      <point x="330" y="355" type="line"/>
      <point x="330" y="334"/>
      <point x="327" y="329"/>
      <point x="305" y="329" type="curve" smooth="yes"/>
      <point x="179" y="329" type="line" smooth="yes"/>
      <point x="157" y="329"/>
      <point x="154" y="334"/>
      <point x="154" y="355" type="curve" smooth="yes"/>
      <point x="154" y="545" type="line" smooth="yes"/>
      <point x="154" y="567"/>
      <point x="157" y="571"/>
      <point x="179" y="571" type="curve" smooth="yes"/>
      <point x="305" y="571" type="line" smooth="yes"/>
      <point x="327" y="571"/>
      <point x="330" y="567"/>
      <point x="330" y="545" type="curve" smooth="yes"/>
    </contour>
  </outline>
</glyph>
<glyph name="ampersand" format="1">
  <advance width="852"/>
  <unicode hex="0026"/>
  <outline>
    <contour>
      <point x="821" y="-45" type="line"/>
      <point x="370" y="332" type="line" smooth="yes"/>
      <point x="304" y="387"/>
      <point x="275" y="405"/>
      <point x="275" y="453" type="curve" smooth="yes"/>
      <point x="275" y="532" type="line" smooth="yes"/>
      <point x="275" y="558"/>
      <point x="280" y="563"/>
      <point x="306" y="563" type="curve" smooth="yes"/>
      <point x="477" y="563" type="line" smooth="yes"/>
      <point x="503" y="563"/>
      <point x="508" y="558"/>
      <point x="508" y="532" type="curve" smooth="yes"/>
      <point x="508" y="440" type="line" smooth="yes"/>
      <point x="508" y="403"/>
      <point x="491" y="386"/>
      <point x="445" y="370" type="curve" smooth="yes"/>
      <point x="156" y="264" type="line" smooth="yes"/>
      <point x="92" y="242"/>
      <point x="70" y="219"/>
      <point x="70" y="163" type="curve" smooth="yes"/>
      <point x="70" y="79" type="line" smooth="yes"/>
      <point x="70" y="26"/>
      <point x="96" y="0"/>
      <point x="149" y="0" type="curve" smooth="yes"/>
      <point x="711" y="0" type="line" smooth="yes"/>
      <point x="768" y="0"/>
      <point x="797" y="30"/>
      <point x="797" y="86" type="curve" smooth="yes"/>
      <point x="797" y="231" type="line"/>
      <point x="692" y="231" type="line"/>
      <point x="692" y="90" type="line" smooth="yes"/>
      <point x="692" y="64"/>
      <point x="687" y="59"/>
      <point x="661" y="59" type="curve" smooth="yes"/>
      <point x="230" y="59" type="line" smooth="yes"/>
      <point x="204" y="59"/>
      <point x="199" y="64"/>
      <point x="199" y="90" type="curve" smooth="yes"/>
      <point x="199" y="156" type="line" smooth="yes"/>
      <point x="199" y="186"/>
      <point x="208" y="200"/>
      <point x="239" y="212" type="curve" smooth="yes"/>
      <point x="536" y="321" type="line" smooth="yes"/>
      <point x="603" y="346"/>
      <point x="636" y="378"/>
      <point x="636" y="450" type="curve" smooth="yes"/>
      <point x="636" y="543" type="line" smooth="yes"/>
      <point x="636" y="596"/>
      <point x="610" y="622"/>
      <point x="557" y="622" type="curve" smooth="yes"/>
      <point x="226" y="622" type="line" smooth="yes"/>
      <point x="173" y="622"/>
      <point x="147" y="596"/>
      <point x="147" y="543" type="curve" smooth="yes"/>
      <point x="147" y="443" type="line" smooth="yes"/>
      <point x="147" y="383"/>
      <point x="186" y="356"/>
      <point x="249" y="304" type="curve" smooth="yes"/>
      <point x="669" y="-45" type="line"/>
    </contour>
  </outline>
</glyph>
<glyph name="parenleft" format="1">
  <advance width="352"/>
  <unicode hex="0028"/>
  <outline>
    <contour>
      <point x="86" y="361" type="line"/>
      <point x="86" y="614"/>
      <point x="196" y="718"/>
      <point x="369" y="718" type="curve" smooth="yes"/>
      <point x="405" y="718" type="line"/>
      <point x="405" y="659" type="line"/>
      <point x="380" y="659" type="line" smooth="yes"/>
      <point x="272" y="654"/>
      <point x="219" y="560"/>
      <point x="219" y="379" type="curve" smooth="yes"/>
      <point x="219" y="119" type="line" smooth="yes"/>
      <point x="219" y="-63"/>
      <point x="272" y="-155"/>
      <point x="380" y="-160" type="curve" smooth="yes"/>
      <point x="405" y="-160" type="line"/>
      <point x="405" y="-219" type="line"/>
      <point x="369" y="-219" type="line" smooth="yes"/>
      <point x="196" y="-219"/>
      <point x="86" y="-116"/>
      <point x="86" y="137" type="curve" smooth="yes"/>
    </contour>
  </outline>
</glyph>
<glyph name="parenright" format="1">
  <advance width="352"/>
  <unicode hex="0029"/>
  <outline>
    <contour>
      <point x="266" y="137" type="line"/>
      <point x="266" y="-116"/>
      <point x="156" y="-219"/>
      <point x="-16" y="-219" type="curve" smooth="yes"/>
      <point x="-53" y="-219" type="line"/>
      <point x="-53" y="-160" type="line"/>
      <point x="-28" y="-160" type="line"/>
      <point x="80" y="-155"/>
      <point x="133" y="-63"/>
      <point x="133" y="119" type="curve" smooth="yes"/>
      <point x="133" y="379" type="line" smooth="yes"/>
      <point x="133" y="560"/>
      <point x="80" y="654"/>
      <point x="-28" y="659" type="curve"/>
      <point x="-53" y="659" type="line"/>
      <point x="-53" y="718" type="line"/>
      <point x="-16" y="718" type="line" smooth="yes"/>
      <point x="156" y="718"/>
      <point x="266" y="614"/>
      <point x="266" y="361" type="curve" smooth="yes"/>
    </contour>
  </outline>
</glyph>
<glyph name="asterisk" format="1">
  <advance width="501"/>
  <unicode hex="002A"/>
  <outline>
    <contour>
      <point x="202" y="655" type="line"/>
      <point x="202" y="591" type="line" smooth="yes"/>
      <point x="202" y="564"/>
      <point x="206" y="540"/>
      <point x="212" y="520" type="curve"/>
      <point x="194" y="533"/>
      <point x="172" y="545"/>
      <point x="146" y="554" type="curve" smooth="yes"/>
      <point x="86" y="573" type="line"/>
      <point x="54" y="476" type="line"/>
      <point x="115" y="457" type="line" smooth="yes"/>
      <point x="138" y="449"/>
      <point x="163" y="445"/>
      <point x="186" y="445" type="curve"/>
      <point x="169" y="432"/>
      <point x="149" y="415"/>
      <point x="133" y="392" type="curve" smooth="yes"/>
      <point x="96" y="342" type="line"/>
      <point x="178" y="282" type="line"/>
      <point x="215" y="333" type="line" smooth="yes"/>
      <point x="231" y="355"/>
      <point x="242" y="378"/>
      <point x="249" y="397" type="curve"/>
      <point x="256" y="377"/>
      <point x="267" y="353"/>
      <point x="282" y="331" type="curve" smooth="yes"/>
      <point x="320" y="279" type="line"/>
      <point x="402" y="339" type="line"/>
      <point x="365" y="390" type="line" smooth="yes"/>
      <point x="349" y="412"/>
      <point x="331" y="429"/>
      <point x="315" y="442" type="curve"/>
      <point x="336" y="442"/>
      <point x="361" y="445"/>
      <point x="387" y="453" type="curve" smooth="yes"/>
      <point x="448" y="473" type="line"/>
      <point x="416" y="570" type="line"/>
      <point x="356" y="550" type="line" smooth="yes"/>
      <point x="331" y="541"/>
      <point x="309" y="529"/>
      <point x="291" y="517" type="curve"/>
      <point x="298" y="538"/>
      <point x="303" y="563"/>
      <point x="303" y="591" type="curve" smooth="yes"/>
      <point x="303" y="655" type="line"/>
    </contour>
  </outline>
</glyph>
<glyph name="plus" format="1">
  <advance width="674"/>
  <unicode hex="002B"/>
  <outline>
    <contour>
      <point x="57" y="266" type="line"/>
      <point x="617" y="266" type="line"/>
      <point x="617" y="355" type="line"/>
      <point x="57" y="355" type="line"/>
    </contour>
    <contour>
      <point x="274" y="508" type="line"/>
      <point x="274" y="113" type="line"/>
      <point x="400" y="113" type="line"/>
      <point x="400" y="508" type="line"/>
    </contour>
  </outline>
</glyph>
<glyph name="comma" format="1">
  <advance width="251"/>
  <unicode hex="002C"/>
  <outline>
    <contour>
      <point x="59" y="132" type="line"/>
      <point x="201" y="132" type="line"/>
      <point x="201" y="60" type="line"/>
      <point x="106" y="-138" type="line"/>
      <point x="59" y="-138" type="line"/>
    </contour>
  </outline>
</glyph>
<glyph name="hyphen" format="1">
  <advance width="414"/>
  <unicode hex="002D"/>
  <outline>
    <contour>
      <point x="59" y="242" type="line"/>
      <point x="355" y="242" type="line"/>
      <point x="355" y="301" type="line"/>
      <point x="59" y="301" type="line"/>
    </contour>
  </outline>
</glyph>
<glyph name="period" format="1">
  <advance width="260"/>
  <unicode hex="002E"/>
  <outline>
    <contour>
      <point x="59" y="0" type="line"/>
      <point x="201" y="0" type="line"/>
      <point x="201" y="125" type="line"/>
      <point x="59" y="125" type="line"/>
    </contour>
  </outline>
</glyph>
<glyph name="slash" format="1">
  <advance width="430"/>
  <unicode hex="002F"/>
  <outline>
    <contour>
      <point x="393" y="699" type="line"/>
      <point x="-24" y="-136" type="line"/>
      <point x="96" y="-136" type="line"/>
      <point x="513" y="699" type="line"/>
    </contour>
  </outline>
</glyph>
<glyph name="zero" format="1">
  <advance width="691"/>
  <unicode hex="0030"/>
  <outline>
    <contour>
      <point x="611" y="543" type="line"/>
      <point x="611" y="596"/>
      <point x="585" y="622"/>
      <point x="532" y="622" type="curve" smooth="yes"/>
      <point x="159" y="622" type="line" smooth="yes"/>
      <point x="106" y="622"/>
      <point x="80" y="596"/>
      <point x="80" y="543" type="curve" smooth="yes"/>
      <point x="80" y="79" type="line" smooth="yes"/>
      <point x="80" y="26"/>
      <point x="106" y="0"/>
      <point x="159" y="0" type="curve" smooth="yes"/>
      <point x="532" y="0" type="line" smooth="yes"/>
      <point x="585" y="0"/>
      <point x="611" y="26"/>
      <point x="611" y="79" type="curve" smooth="yes"/>
    </contour>
    <contour>
      <point x="477" y="90" type="line"/>
      <point x="477" y="64"/>
      <point x="472" y="59"/>
      <point x="446" y="59" type="curve" smooth="yes"/>
      <point x="246" y="59" type="line" smooth="yes"/>
      <point x="220" y="59"/>
      <point x="215" y="64"/>
      <point x="215" y="90" type="curve" smooth="yes"/>
      <point x="215" y="532" type="line" smooth="yes"/>
      <point x="215" y="558"/>
      <point x="220" y="563"/>
      <point x="246" y="563" type="curve" smooth="yes"/>
      <point x="446" y="563" type="line" smooth="yes"/>
      <point x="472" y="563"/>
      <point x="477" y="558"/>
      <point x="477" y="532" type="curve" smooth="yes"/>
    </contour>
  </outline>
</glyph>
<glyph name="one" format="1">
  <advance width="368"/>
  <unicode hex="0031"/>
  <outline>
    <contour>
      <point x="226" y="622" type="line"/>
      <point x="24" y="622" type="line"/>
      <point x="24" y="563" type="line"/>
      <point x="226" y="563" type="line"/>
    </contour>
    <contour>
      <point x="151" y="622" type="line"/>
      <point x="151" y="0" type="line"/>
      <point x="288" y="0" type="line"/>
      <point x="288" y="622" type="line"/>
    </contour>
  </outline>
</glyph>
<glyph name="two" format="1">
  <advance width="637"/>
  <unicode hex="0032"/>
  <outline>
    <contour>
      <point x="190" y="532" type="line"/>
      <point x="190" y="558"/>
      <point x="195" y="563"/>
      <point x="221" y="563" type="curve" smooth="yes"/>
      <point x="417" y="563" type="line" smooth="yes"/>
      <point x="443" y="563"/>
      <point x="448" y="558"/>
      <point x="448" y="532" type="curve" smooth="yes"/>
      <point x="448" y="482" type="line" smooth="yes"/>
      <point x="448" y="428"/>
      <point x="429" y="400"/>
      <point x="389" y="363" type="curve" smooth="yes"/>
      <point x="55" y="59" type="line"/>
      <point x="55" y="0" type="line"/>
      <point x="585" y="0" type="line"/>
      <point x="585" y="59" type="line"/>
      <point x="233" y="59" type="line"/>
      <point x="519" y="320" type="line" smooth="yes"/>
      <point x="571" y="368"/>
      <point x="582" y="401"/>
      <point x="582" y="479" type="curve" smooth="yes"/>
      <point x="582" y="543" type="line" smooth="yes"/>
      <point x="582" y="596"/>
      <point x="556" y="622"/>
      <point x="503" y="622" type="curve" smooth="yes"/>
      <point x="134" y="622" type="line" smooth="yes"/>
      <point x="81" y="622"/>
      <point x="55" y="596"/>
      <point x="55" y="543" type="curve" smooth="yes"/>
      <point x="55" y="410" type="line"/>
      <point x="190" y="410" type="line"/>
    </contour>
  </outline>
</glyph>
<glyph name="three" format="1">
  <advance width="670"/>
  <unicode hex="0033"/>
  <outline>
    <contour>
      <point x="203" y="532" type="line"/>
      <point x="203" y="558"/>
      <point x="208" y="563"/>
      <point x="234" y="563" type="curve" smooth="yes"/>
      <point x="434" y="563" type="line" smooth="yes"/>
      <point x="460" y="563"/>
      <point x="465" y="558"/>
      <point x="465" y="532" type="curve" smooth="yes"/>
      <point x="465" y="376" type="line" smooth="yes"/>
      <point x="465" y="350"/>
      <point x="460" y="345"/>
      <point x="434" y="345" type="curve" smooth="yes"/>
      <point x="275" y="345" type="line"/>
      <point x="275" y="285" type="line"/>
      <point x="434" y="285" type="line" smooth="yes"/>
      <point x="460" y="285"/>
      <point x="465" y="280"/>
      <point x="465" y="254" type="curve" smooth="yes"/>
      <point x="465" y="90" type="line" smooth="yes"/>
      <point x="465" y="64"/>
      <point x="460" y="59"/>
      <point x="434" y="59" type="curve" smooth="yes"/>
      <point x="234" y="59" type="line" smooth="yes"/>
      <point x="208" y="59"/>
      <point x="203" y="64"/>
      <point x="203" y="90" type="curve" smooth="yes"/>
      <point x="203" y="195" type="line"/>
      <point x="69" y="195" type="line"/>
      <point x="69" y="79" type="line" smooth="yes"/>
      <point x="69" y="26"/>
      <point x="95" y="0"/>
      <point x="148" y="0" type="curve" smooth="yes"/>
      <point x="520" y="0" type="line" smooth="yes"/>
      <point x="573" y="0"/>
      <point x="599" y="26"/>
      <point x="599" y="79" type="curve" smooth="yes"/>
      <point x="599" y="259" type="line" smooth="yes"/>
      <point x="599" y="295"/>
      <point x="581" y="313"/>
      <point x="549" y="317" type="curve"/>
      <point x="581" y="319"/>
      <point x="599" y="339"/>
      <point x="599" y="376" type="curve" smooth="yes"/>
      <point x="599" y="543" type="line" smooth="yes"/>
      <point x="599" y="596"/>
      <point x="573" y="622"/>
      <point x="520" y="622" type="curve" smooth="yes"/>
      <point x="148" y="622" type="line" smooth="yes"/>
      <point x="95" y="622"/>
      <point x="69" y="596"/>
      <point x="69" y="543" type="curve" smooth="yes"/>
      <point x="69" y="426" type="line"/>
      <point x="203" y="426" type="line"/>
    </contour>
  </outline>
</glyph>
<glyph name="four" format="1">
  <advance width="673"/>
  <unicode hex="0034"/>
  <outline>
    <contour>
      <point x="80" y="101" type="line"/>
      <point x="656" y="101" type="line"/>
      <point x="656" y="160" type="line"/>
      <point x="80" y="160" type="line"/>
    </contour>
    <contour>
      <point x="34" y="101" type="line"/>
      <point x="136" y="101" type="line"/>
      <point x="459" y="622" type="line"/>
      <point x="320" y="622" type="line"/>
      <point x="34" y="171" type="line"/>
    </contour>
    <contour>
      <point x="421" y="328" type="line"/>
      <point x="421" y="0" type="line"/>
      <point x="548" y="0" type="line"/>
      <point x="548" y="328" type="line"/>
    </contour>
  </outline>
</glyph>
<glyph name="five" format="1">
  <advance width="651"/>
  <unicode hex="0035"/>
  <outline>
    <contour>
      <point x="213" y="201" type="line"/>
      <point x="79" y="201" type="line"/>
      <point x="79" y="79" type="line" smooth="yes"/>
      <point x="79" y="26"/>
      <point x="105" y="0"/>
      <point x="158" y="0" type="curve" smooth="yes"/>
      <point x="517" y="0" type="line" smooth="yes"/>
      <point x="570" y="0"/>
      <point x="596" y="26"/>
      <point x="596" y="79" type="curve" smooth="yes"/>
      <point x="596" y="300" type="line" smooth="yes"/>
      <point x="596" y="353"/>
      <point x="570" y="379"/>
      <point x="517" y="379" type="curve" smooth="yes"/>
      <point x="181" y="379" type="line"/>
      <point x="181" y="320" type="line"/>
      <point x="432" y="320" type="line" smooth="yes"/>
      <point x="458" y="320"/>
      <point x="463" y="315"/>
      <point x="463" y="289" type="curve" smooth="yes"/>
      <point x="463" y="90" type="line" smooth="yes"/>
      <point x="463" y="64"/>
      <point x="458" y="59"/>
      <point x="432" y="59" type="curve" smooth="yes"/>
      <point x="244" y="59" type="line" smooth="yes"/>
      <point x="218" y="59"/>
      <point x="213" y="64"/>
      <point x="213" y="90" type="curve" smooth="yes"/>
    </contour>
    <contour>
      <point x="221" y="320" type="line"/>
      <point x="221" y="563" type="line"/>
      <point x="586" y="563" type="line"/>
      <point x="586" y="622" type="line"/>
      <point x="83" y="622" type="line"/>
      <point x="83" y="320" type="line"/>
    </contour>
  </outline>
</glyph>
<glyph name="six" format="1">
  <advance width="667"/>
  <unicode hex="0036"/>
  <outline>
    <contour>
      <point x="462" y="202" type="line"/>
      <point x="462" y="90" type="line" smooth="yes"/>
      <point x="462" y="64"/>
      <point x="457" y="59"/>
      <point x="431" y="59" type="curve" smooth="yes"/>
      <point x="246" y="59" type="line" smooth="yes"/>
      <point x="220" y="59"/>
      <point x="215" y="64"/>
      <point x="215" y="90" type="curve" smooth="yes"/>
      <point x="215" y="532" type="line" smooth="yes"/>
      <point x="215" y="558"/>
      <point x="220" y="563"/>
      <point x="246" y="563" type="curve" smooth="yes"/>
      <point x="426" y="563" type="line" smooth="yes"/>
      <point x="452" y="563"/>
      <point x="457" y="558"/>
      <point x="457" y="532" type="curve" smooth="yes"/>
      <point x="457" y="428" type="line"/>
      <point x="590" y="428" type="line"/>
      <point x="590" y="543" type="line" smooth="yes"/>
      <point x="590" y="596"/>
      <point x="564" y="622"/>
      <point x="511" y="622" type="curve" smooth="yes"/>
      <point x="159" y="622" type="line" smooth="yes"/>
      <point x="106" y="622"/>
      <point x="80" y="596"/>
      <point x="80" y="543" type="curve" smooth="yes"/>
      <point x="80" y="79" type="line" smooth="yes"/>
      <point x="80" y="26"/>
      <point x="106" y="0"/>
      <point x="159" y="0" type="curve" smooth="yes"/>
      <point x="517" y="0" type="line" smooth="yes"/>
      <point x="570" y="0"/>
      <point x="596" y="26"/>
      <point x="596" y="79" type="curve" smooth="yes"/>
      <point x="596" y="202" type="line"/>
    </contour>
    <contour>
      <point x="596" y="165" type="line"/>
      <point x="596" y="278" type="line" smooth="yes"/>
      <point x="596" y="331"/>
      <point x="570" y="357"/>
      <point x="517" y="357" type="curve" smooth="yes"/>
      <point x="193" y="357" type="line"/>
      <point x="193" y="298" type="line"/>
      <point x="431" y="298" type="line" smooth="yes"/>
      <point x="457" y="298"/>
      <point x="462" y="293"/>
      <point x="462" y="267" type="curve" smooth="yes"/>
      <point x="462" y="165" type="line"/>
    </contour>
  </outline>
</glyph>
<glyph name="seven" format="1">
  <advance width="538"/>
  <unicode hex="0037"/>
  <outline>
    <contour>
      <point x="484" y="622" type="line"/>
      <point x="33" y="622" type="line"/>
      <point x="33" y="563" type="line"/>
      <point x="484" y="563" type="line"/>
    </contour>
    <contour>
      <point x="521" y="622" type="line"/>
      <point x="411" y="622" type="line"/>
      <point x="109" y="0" type="line"/>
      <point x="251" y="0" type="line"/>
      <point x="521" y="560" type="line"/>
    </contour>
  </outline>
</glyph>
<glyph name="eight" format="1">
  <advance width="674"/>
  <unicode hex="0038"/>
  <outline>
    <contour>
      <point x="158" y="622" type="line"/>
      <point x="105" y="622"/>
      <point x="79" y="596"/>
      <point x="79" y="543" type="curve" smooth="yes"/>
      <point x="79" y="372" type="line" smooth="yes"/>
      <point x="79" y="335"/>
      <point x="96" y="315"/>
      <point x="128" y="313" type="curve"/>
      <point x="96" y="309"/>
      <point x="79" y="291"/>
      <point x="79" y="255" type="curve" smooth="yes"/>
      <point x="79" y="79" type="line" smooth="yes"/>
      <point x="79" y="26"/>
      <point x="105" y="0"/>
      <point x="158" y="0" type="curve" smooth="yes"/>
      <point x="516" y="0" type="line" smooth="yes"/>
      <point x="569" y="0"/>
      <point x="595" y="26"/>
      <point x="595" y="79" type="curve" smooth="yes"/>
      <point x="595" y="255" type="line" smooth="yes"/>
      <point x="595" y="291"/>
      <point x="578" y="309"/>
      <point x="546" y="313" type="curve"/>
      <point x="578" y="315"/>
      <point x="595" y="335"/>
      <point x="595" y="372" type="curve" smooth="yes"/>
      <point x="595" y="543" type="line" smooth="yes"/>
      <point x="595" y="596"/>
      <point x="569" y="622"/>
      <point x="516" y="622" type="curve" smooth="yes"/>
    </contour>
    <contour>
      <point x="213" y="252" type="line"/>
      <point x="213" y="278"/>
      <point x="218" y="283"/>
      <point x="244" y="283" type="curve" smooth="yes"/>
      <point x="431" y="283" type="line" smooth="yes"/>
      <point x="457" y="283"/>
      <point x="462" y="278"/>
      <point x="462" y="252" type="curve" smooth="yes"/>
      <point x="462" y="90" type="line" smooth="yes"/>
      <point x="462" y="64"/>
      <point x="457" y="59"/>
      <point x="431" y="59" type="curve" smooth="yes"/>
      <point x="244" y="59" type="line" smooth="yes"/>
      <point x="218" y="59"/>
      <point x="213" y="64"/>
      <point x="213" y="90" type="curve" smooth="yes"/>
    </contour>
    <contour>
      <point x="462" y="374" type="line"/>
      <point x="462" y="348"/>
      <point x="457" y="343"/>
      <point x="431" y="343" type="curve" smooth="yes"/>
      <point x="244" y="343" type="line" smooth="yes"/>
      <point x="218" y="343"/>
      <point x="213" y="348"/>
      <point x="213" y="374" type="curve" smooth="yes"/>
      <point x="213" y="532" type="line" smooth="yes"/>
      <point x="213" y="558"/>
      <point x="218" y="563"/>
      <point x="244" y="563" type="curve" smooth="yes"/>
      <point x="431" y="563" type="line" smooth="yes"/>
      <point x="457" y="563"/>
      <point x="462" y="558"/>
      <point x="462" y="532" type="curve" smooth="yes"/>
    </contour>
  </outline>
</glyph>
<glyph name="nine" format="1">
  <advance width="671"/>
  <unicode hex="0039"/>
  <outline>
    <contour>
      <point x="216" y="186" type="line"/>
      <point x="82" y="186" type="line"/>
      <point x="82" y="79" type="line" smooth="yes"/>
      <point x="82" y="26"/>
      <point x="108" y="0"/>
      <point x="161" y="0" type="curve" smooth="yes"/>
      <point x="512" y="0" type="line" smooth="yes"/>
      <point x="565" y="0"/>
      <point x="591" y="26"/>
      <point x="591" y="79" type="curve" smooth="yes"/>
      <point x="591" y="543" type="line" smooth="yes"/>
      <point x="591" y="596"/>
      <point x="565" y="622"/>
      <point x="512" y="622" type="curve" smooth="yes"/>
      <point x="259" y="622" type="line"/>
      <point x="259" y="563" type="line"/>
      <point x="425" y="563" type="line" smooth="yes"/>
      <point x="451" y="563"/>
      <point x="456" y="558"/>
      <point x="456" y="532" type="curve" smooth="yes"/>
      <point x="456" y="90" type="line" smooth="yes"/>
      <point x="456" y="64"/>
      <point x="451" y="59"/>
      <point x="425" y="59" type="curve" smooth="yes"/>
      <point x="247" y="59" type="line" smooth="yes"/>
      <point x="221" y="59"/>
      <point x="216" y="64"/>
      <point x="216" y="90" type="curve" smooth="yes"/>
    </contour>
    <contour>
      <point x="210" y="532" type="line"/>
      <point x="210" y="558"/>
      <point x="215" y="563"/>
      <point x="241" y="563" type="curve" smooth="yes"/>
      <point x="269" y="563" type="line"/>
      <point x="269" y="622" type="line"/>
      <point x="154" y="622" type="line" smooth="yes"/>
      <point x="101" y="622"/>
      <point x="75" y="596"/>
      <point x="75" y="543" type="curve" smooth="yes"/>
      <point x="75" y="338" type="line" smooth="yes"/>
      <point x="75" y="285"/>
      <point x="101" y="259"/>
      <point x="154" y="259" type="curve" smooth="yes"/>
      <point x="478" y="259" type="line"/>
      <point x="478" y="318" type="line"/>
      <point x="241" y="318" type="line" smooth="yes"/>
      <point x="215" y="318"/>
      <point x="210" y="323"/>
      <point x="210" y="349" type="curve" smooth="yes"/>
    </contour>
  </outline>
</glyph>
<glyph name="colon" format="1">
  <advance width="260"/>
  <unicode hex="003A"/>
  <outline>
    <contour>
      <point x="59" y="119" type="line"/>
      <point x="201" y="119" type="line"/>
      <point x="201" y="243" type="line"/>
      <point x="59" y="243" type="line"/>
    </contour>
    <contour>
      <point x="59" y="242" type="line"/>
      <point x="201" y="242" type="line"/>
      <point x="201" y="366" type="line"/>
      <point x="59" y="366" type="line"/>
    </contour>
  </outline>
</glyph>
<glyph name="semicolon" format="1">
  <advance width="251"/>
  <unicode hex="003B"/>
  <outline>
    <contour>
      <point x="59" y="132" type="line"/>
      <point x="201" y="132" type="line"/>
      <point x="201" y="60" type="line"/>
      <point x="106" y="-138" type="line"/>
      <point x="59" y="-138" type="line"/>
    </contour>
    <contour>
      <point x="59" y="360" type="line"/>
      <point x="201" y="360" type="line"/>
      <point x="201" y="485" type="line"/>
      <point x="59" y="485" type="line"/>
    </contour>
  </outline>
</glyph>
<glyph name="less" format="1">
  <advance width="683"/>
  <unicode hex="003C"/>
  <outline>
    <contour>
      <point x="632" y="400" type="line"/>
      <point x="632" y="495" type="line"/>
      <point x="37" y="363" type="line"/>
      <point x="37" y="262" type="line"/>
      <point x="632" y="126" type="line"/>
      <point x="632" y="222" type="line"/>
      <point x="147" y="312" type="line"/>
    </contour>
  </outline>
</glyph>
<glyph name="equal" format="1">
  <advance width="703"/>
  <unicode hex="003D"/>
  <outline>
    <contour>
      <point x="72" y="360" type="line"/>
      <point x="631" y="360" type="line"/>
      <point x="631" y="450" type="line"/>
      <point x="72" y="450" type="line"/>
    </contour>
    <contour>
      <point x="72" y="170" type="line"/>
      <point x="631" y="170" type="line"/>
      <point x="631" y="260" type="line"/>
      <point x="72" y="260" type="line"/>
    </contour>
  </outline>
</glyph>
<glyph name="greater" format="1">
  <advance width="683"/>
  <unicode hex="003E"/>
  <outline>
    <contour>
      <point x="536" y="312" type="line"/>
      <point x="52" y="222" type="line"/>
      <point x="52" y="126" type="line"/>
      <point x="646" y="262" type="line"/>
      <point x="646" y="363" type="line"/>
      <point x="52" y="495" type="line"/>
      <point x="52" y="400" type="line"/>
    </contour>
  </outline>
</glyph>
<glyph name="question" format="1">
  <advance width="595"/>
  <unicode hex="003F"/>
  <outline>
    <contour>
      <point x="415" y="365" type="line"/>
      <point x="415" y="340"/>
      <point x="411" y="333"/>
      <point x="386" y="333" type="curve" smooth="yes"/>
      <point x="264" y="333" type="line"/>
      <point x="264" y="271" type="line"/>
      <point x="467" y="271" type="line" smooth="yes"/>
      <point x="521" y="271"/>
      <point x="546" y="300"/>
      <point x="546" y="349" type="curve" smooth="yes"/>
      <point x="546" y="544" type="line" smooth="yes"/>
      <point x="546" y="593"/>
      <point x="521" y="622"/>
      <point x="467" y="622" type="curve" smooth="yes"/>
      <point x="199" y="622" type="line"/>
      <point x="199" y="564" type="line"/>
      <point x="386" y="564" type="line" smooth="yes"/>
      <point x="411" y="564"/>
      <point x="415" y="556"/>
      <point x="415" y="531" type="curve" smooth="yes"/>
    </contour>
    <contour>
      <point x="215" y="333" type="line"/>
      <point x="225" y="203" type="line"/>
      <point x="334" y="203" type="line"/>
      <point x="346" y="333" type="line"/>
    </contour>
    <contour>
      <point x="207" y="0" type="line"/>
      <point x="350" y="0" type="line"/>
      <point x="350" y="125" type="line"/>
      <point x="207" y="125" type="line"/>
    </contour>
    <contour>
      <point x="158" y="531" type="line"/>
      <point x="158" y="556"/>
      <point x="162" y="564"/>
      <point x="188" y="564" type="curve" smooth="yes"/>
      <point x="368" y="564" type="line"/>
      <point x="368" y="622" type="line"/>
      <point x="106" y="622" type="line" smooth="yes"/>
      <point x="51" y="622"/>
      <point x="27" y="593"/>
      <point x="27" y="544" type="curve" smooth="yes"/>
      <point x="27" y="432" type="line"/>
      <point x="158" y="432" type="line"/>
    </contour>
  </outline>
</glyph>
<glyph name="at" format="1">
  <advance width="1126"/>
  <unicode hex="0040"/>
  <outline>
    <contour>
      <point x="409" y="426" type="line"/>
      <point x="360" y="426"/>
      <point x="337" y="402"/>
      <point x="337" y="354" type="curve" smooth="yes"/>
      <point x="337" y="150" type="line" smooth="yes"/>
      <point x="337" y="102"/>
      <point x="360" y="78"/>
      <point x="409" y="78" type="curve" smooth="yes"/>
      <point x="597" y="78" type="line" smooth="yes"/>
      <point x="627" y="78"/>
      <point x="650" y="89"/>
      <point x="654" y="118" type="curve"/>
      <point x="654" y="59" type="line"/>
      <point x="981" y="59" type="line" smooth="yes"/>
      <point x="1029" y="59"/>
      <point x="1053" y="83"/>
      <point x="1053" y="131" type="curve" smooth="yes"/>
      <point x="1053" y="491" type="line" smooth="yes"/>
      <point x="1053" y="539"/>
      <point x="1029" y="563"/>
      <point x="981" y="563" type="curve" smooth="yes"/>
      <point x="154" y="563" type="line" smooth="yes"/>
      <point x="105" y="563"/>
      <point x="82" y="539"/>
      <point x="82" y="491" type="curve" smooth="yes"/>
      <point x="82" y="1" type="line" smooth="yes"/>
      <point x="82" y="-48"/>
      <point x="105" y="-71"/>
      <point x="154" y="-71" type="curve" smooth="yes"/>
      <point x="871" y="-71" type="line"/>
      <point x="871" y="-11" type="line"/>
      <point x="222" y="-11" type="line" smooth="yes"/>
      <point x="198" y="-11"/>
      <point x="194" y="-7"/>
      <point x="194" y="17" type="curve" smooth="yes"/>
      <point x="194" y="474" type="line" smooth="yes"/>
      <point x="194" y="497"/>
      <point x="198" y="503"/>
      <point x="222" y="503" type="curve" smooth="yes"/>
      <point x="913" y="503" type="line" smooth="yes"/>
      <point x="937" y="503"/>
      <point x="941" y="497"/>
      <point x="941" y="474" type="curve" smooth="yes"/>
      <point x="941" y="146" type="line" smooth="yes"/>
      <point x="941" y="122"/>
      <point x="937" y="118"/>
      <point x="913" y="118" type="curve" smooth="yes"/>
      <point x="761" y="118" type="line"/>
      <point x="761" y="426" type="line"/>
      <point x="649" y="426" type="line"/>
      <point x="649" y="397" type="line"/>
      <point x="641" y="417"/>
      <point x="623" y="426"/>
      <point x="597" y="426" type="curve" smooth="yes"/>
    </contour>
    <contour>
      <point x="449" y="339" type="line"/>
      <point x="449" y="362"/>
      <point x="453" y="367"/>
      <point x="477" y="367" type="curve" smooth="yes"/>
      <point x="617" y="367" type="line" smooth="yes"/>
      <point x="638" y="367"/>
      <point x="648" y="359"/>
      <point x="649" y="337" type="curve" smooth="yes"/>
      <point x="649" y="167" type="line" smooth="yes"/>
      <point x="648" y="144"/>
      <point x="638" y="137"/>
      <point x="617" y="137" type="curve" smooth="yes"/>
      <point x="477" y="137" type="line" smooth="yes"/>
      <point x="453" y="137"/>
      <point x="449" y="141"/>
      <point x="449" y="165" type="curve" smooth="yes"/>
    </contour>
  </outline>
</glyph>
<glyph name="A" format="1">
  <advance width="707"/>
  <unicode hex="0041"/>
  <outline>
    <contour>
      <point x="564" y="182" type="line"/>
      <point x="143" y="182" type="line"/>
      <point x="143" y="123" type="line"/>
      <point x="564" y="123" type="line"/>
    </contour>
    <contour>
      <point x="681" y="0" type="line"/>
      <point x="441" y="622" type="line"/>
      <point x="265" y="622" type="line"/>
      <point x="26" y="0" type="line"/>
      <point x="157" y="0" type="line"/>
      <point x="352" y="538" type="line"/>
      <point x="549" y="0" type="line"/>
    </contour>
  </outline>
</glyph>
<glyph name="B" format="1">
  <advance width="705"/>
  <unicode hex="0042"/>
  <outline>
    <contour>
      <point x="89" y="622" type="line"/>
      <point x="89" y="0" type="line"/>
      <point x="546" y="0" type="line" smooth="yes"/>
      <point x="599" y="0"/>
      <point x="625" y="26"/>
      <point x="625" y="79" type="curve" smooth="yes"/>
      <point x="625" y="253" type="line" smooth="yes"/>
      <point x="625" y="290"/>
      <point x="608" y="307"/>
      <point x="575" y="311" type="curve"/>
      <point x="608" y="313"/>
      <point x="625" y="334"/>
      <point x="625" y="370" type="curve" smooth="yes"/>
      <point x="625" y="543" type="line" smooth="yes"/>
      <point x="625" y="596"/>
      <point x="599" y="622"/>
      <point x="546" y="622" type="curve" smooth="yes"/>
    </contour>
    <contour>
      <point x="495" y="87" type="line"/>
      <point x="495" y="65"/>
      <point x="488" y="59"/>
      <point x="462" y="59" type="curve" smooth="yes"/>
      <point x="223" y="59" type="line"/>
      <point x="223" y="282" type="line"/>
      <point x="464" y="282" type="line" smooth="yes"/>
      <point x="490" y="282"/>
      <point x="495" y="277"/>
      <point x="495" y="251" type="curve" smooth="yes"/>
    </contour>
    <contour>
      <point x="495" y="372" type="line"/>
      <point x="495" y="346"/>
      <point x="490" y="341"/>
      <point x="464" y="341" type="curve" smooth="yes"/>
      <point x="223" y="341" type="line"/>
      <point x="223" y="563" type="line"/>
      <point x="464" y="563" type="line" smooth="yes"/>
      <point x="490" y="563"/>
      <point x="495" y="558"/>
      <point x="495" y="532" type="curve" smooth="yes"/>
    </contour>
  </outline>
</glyph>
<glyph name="C" format="1">
  <advance width="664"/>
  <unicode hex="0043"/>
  <outline>
    <contour>
      <point x="215" y="532" type="line"/>
      <point x="215" y="558"/>
      <point x="220" y="563"/>
      <point x="246" y="563" type="curve" smooth="yes"/>
      <point x="280" y="563" type="line"/>
      <point x="280" y="622" type="line"/>
      <point x="159" y="622" type="line" smooth="yes"/>
      <point x="106" y="622"/>
      <point x="80" y="596"/>
      <point x="80" y="543" type="curve" smooth="yes"/>
      <point x="80" y="79" type="line" smooth="yes"/>
      <point x="80" y="26"/>
      <point x="106" y="0"/>
      <point x="159" y="0" type="curve" smooth="yes"/>
      <point x="276" y="0" type="line"/>
      <point x="276" y="59" type="line"/>
      <point x="246" y="59" type="line" smooth="yes"/>
      <point x="220" y="59"/>
      <point x="215" y="64"/>
      <point x="215" y="90" type="curve" smooth="yes"/>
    </contour>
    <contour>
      <point x="473" y="407" type="line"/>
      <point x="608" y="407" type="line"/>
      <point x="608" y="543" type="line" smooth="yes"/>
      <point x="608" y="596"/>
      <point x="582" y="622"/>
      <point x="529" y="622" type="curve" smooth="yes"/>
      <point x="263" y="622" type="line"/>
      <point x="263" y="563" type="line"/>
      <point x="442" y="563" type="line" smooth="yes"/>
      <point x="468" y="563"/>
      <point x="473" y="558"/>
      <point x="473" y="532" type="curve" smooth="yes"/>
    </contour>
    <contour>
      <point x="473" y="90" type="line"/>
      <point x="473" y="64"/>
      <point x="468" y="59"/>
      <point x="442" y="59" type="curve" smooth="yes"/>
      <point x="263" y="59" type="line"/>
      <point x="263" y="0" type="line"/>
      <point x="529" y="0" type="line" smooth="yes"/>
      <point x="582" y="0"/>
      <point x="608" y="26"/>
      <point x="608" y="79" type="curve" smooth="yes"/>
      <point x="608" y="215" type="line"/>
      <point x="473" y="215" type="line"/>
    </contour>
  </outline>
</glyph>
<glyph name="D" format="1">
  <advance width="707"/>
  <unicode hex="0044"/>
  <outline>
    <contour>
      <point x="493" y="385" type="line"/>
      <point x="627" y="385" type="line"/>
      <point x="627" y="543" type="line" smooth="yes"/>
      <point x="627" y="596"/>
      <point x="601" y="622"/>
      <point x="548" y="622" type="curve" smooth="yes"/>
      <point x="143" y="622" type="line"/>
      <point x="143" y="563" type="line"/>
      <point x="462" y="563" type="line" smooth="yes"/>
      <point x="488" y="563"/>
      <point x="493" y="558"/>
      <point x="493" y="532" type="curve" smooth="yes"/>
    </contour>
    <contour>
      <point x="493" y="90" type="line"/>
      <point x="493" y="64"/>
      <point x="488" y="59"/>
      <point x="462" y="59" type="curve" smooth="yes"/>
      <point x="143" y="59" type="line"/>
      <point x="143" y="0" type="line"/>
      <point x="548" y="0" type="line" smooth="yes"/>
      <point x="601" y="0"/>
      <point x="627" y="26"/>
      <point x="627" y="79" type="curve" smooth="yes"/>
      <point x="627" y="405" type="line"/>
      <point x="493" y="405" type="line"/>
    </contour>
    <contour>
      <point x="89" y="622" type="line"/>
      <point x="89" y="0" type="line"/>
      <point x="223" y="0" type="line"/>
      <point x="223" y="622" type="line"/>
    </contour>
  </outline>
</glyph>
<glyph name="E" format="1">
  <advance width="602"/>
  <unicode hex="0045"/>
  <outline>
    <contour>
      <point x="89" y="622" type="line"/>
      <point x="89" y="0" type="line"/>
      <point x="227" y="0" type="line"/>
      <point x="227" y="622" type="line"/>
    </contour>
    <contour>
      <point x="504" y="348" type="line"/>
      <point x="155" y="348" type="line"/>
      <point x="155" y="289" type="line"/>
      <point x="504" y="289" type="line"/>
    </contour>
    <contour>
      <point x="545" y="622" type="line"/>
      <point x="149" y="622" type="line"/>
      <point x="149" y="563" type="line"/>
      <point x="545" y="563" type="line"/>
    </contour>
    <contour>
      <point x="559" y="59" type="line"/>
      <point x="149" y="59" type="line"/>
      <point x="149" y="0" type="line"/>
      <point x="559" y="0" type="line"/>
    </contour>
  </outline>
</glyph>
<glyph name="F" format="1">
  <advance width="575"/>
  <unicode hex="0046"/>
  <outline>
    <contour>
      <point x="89" y="622" type="line"/>
      <point x="89" y="0" type="line"/>
      <point x="227" y="0" type="line"/>
      <point x="227" y="622" type="line"/>
    </contour>
    <contour>
      <point x="507" y="324" type="line"/>
      <point x="156" y="324" type="line"/>
      <point x="156" y="265" type="line"/>
      <point x="507" y="265" type="line"/>
    </contour>
    <contour>
      <point x="546" y="622" type="line"/>
      <point x="149" y="622" type="line"/>
      <point x="149" y="563" type="line"/>
      <point x="546" y="563" type="line"/>
    </contour>
  </outline>
</glyph>
<glyph name="G" format="1">
  <advance width="680"/>
  <unicode hex="0047"/>
  <outline>
    <contour>
      <point x="215" y="532" type="line"/>
      <point x="215" y="558"/>
      <point x="220" y="563"/>
      <point x="246" y="563" type="curve" smooth="yes"/>
      <point x="281" y="563" type="line"/>
      <point x="281" y="622" type="line"/>
      <point x="159" y="622" type="line" smooth="yes"/>
      <point x="106" y="622"/>
      <point x="80" y="596"/>
      <point x="80" y="543" type="curve" smooth="yes"/>
      <point x="80" y="79" type="line" smooth="yes"/>
      <point x="80" y="26"/>
      <point x="106" y="0"/>
      <point x="159" y="0" type="curve" smooth="yes"/>
      <point x="275" y="0" type="line"/>
      <point x="275" y="59" type="line"/>
      <point x="246" y="59" type="line" smooth="yes"/>
      <point x="220" y="59"/>
      <point x="215" y="64"/>
      <point x="215" y="90" type="curve" smooth="yes"/>
    </contour>
    <contour>
      <point x="609" y="320" type="line"/>
      <point x="336" y="320" type="line"/>
      <point x="336" y="261" type="line"/>
      <point x="609" y="261" type="line"/>
    </contour>
    <contour>
      <point x="474" y="427" type="line"/>
      <point x="609" y="427" type="line"/>
      <point x="609" y="543" type="line" smooth="yes"/>
      <point x="609" y="596"/>
      <point x="583" y="622"/>
      <point x="530" y="622" type="curve" smooth="yes"/>
      <point x="263" y="622" type="line"/>
      <point x="263" y="563" type="line"/>
      <point x="443" y="563" type="line" smooth="yes"/>
      <point x="469" y="563"/>
      <point x="474" y="558"/>
      <point x="474" y="532" type="curve" smooth="yes"/>
    </contour>
    <contour>
      <point x="475" y="90" type="line"/>
      <point x="475" y="64"/>
      <point x="470" y="59"/>
      <point x="444" y="59" type="curve" smooth="yes"/>
      <point x="265" y="59" type="line"/>
      <point x="265" y="0" type="line"/>
      <point x="530" y="0" type="line" smooth="yes"/>
      <point x="583" y="0"/>
      <point x="609" y="26"/>
      <point x="609" y="79" type="curve" smooth="yes"/>
      <point x="609" y="276" type="line"/>
      <point x="475" y="276" type="line"/>
    </contour>
  </outline>
</glyph>
<glyph name="H" format="1">
  <advance width="755"/>
  <unicode hex="0048"/>
  <outline>
    <contour>
      <point x="567" y="341" type="line"/>
      <point x="187" y="341" type="line"/>
      <point x="187" y="282" type="line"/>
      <point x="567" y="282" type="line"/>
    </contour>
    <contour>
      <point x="89" y="622" type="line"/>
      <point x="89" y="0" type="line"/>
      <point x="223" y="0" type="line"/>
      <point x="223" y="622" type="line"/>
    </contour>
    <contour>
      <point x="532" y="622" type="line"/>
      <point x="532" y="0" type="line"/>
      <point x="666" y="0" type="line"/>
      <point x="666" y="622" type="line"/>
    </contour>
  </outline>
</glyph>
<glyph name="I" format="1">
  <advance width="332"/>
  <unicode hex="0049"/>
  <outline>
    <contour>
      <point x="97" y="622" type="line"/>
      <point x="97" y="0" type="line"/>
      <point x="235" y="0" type="line"/>
      <point x="235" y="622" type="line"/>
    </contour>
  </outline>
</glyph>
<glyph name="J" format="1">
  <advance width="609"/>
  <unicode hex="004A"/>
  <outline>
    <contour>
      <point x="34" y="227" type="line"/>
      <point x="34" y="79" type="line" smooth="yes"/>
      <point x="34" y="26"/>
      <point x="60" y="0"/>
      <point x="113" y="0" type="curve" smooth="yes"/>
      <point x="450" y="0" type="line" smooth="yes"/>
      <point x="503" y="0"/>
      <point x="529" y="26"/>
      <point x="529" y="79" type="curve" smooth="yes"/>
      <point x="529" y="622" type="line"/>
      <point x="395" y="622" type="line"/>
      <point x="395" y="90" type="line" smooth="yes"/>
      <point x="395" y="64"/>
      <point x="390" y="59"/>
      <point x="364" y="59" type="curve" smooth="yes"/>
      <point x="200" y="59" type="line" smooth="yes"/>
      <point x="174" y="59"/>
      <point x="169" y="64"/>
      <point x="169" y="90" type="curve" smooth="yes"/>
      <point x="169" y="227" type="line"/>
    </contour>
  </outline>
</glyph>
<glyph name="K" format="1">
  <advance width="693"/>
  <unicode hex="004B"/>
  <outline>
    <contour>
      <point x="510" y="622" type="line"/>
      <point x="240" y="318" type="line"/>
      <point x="518" y="0" type="line"/>
      <point x="672" y="0" type="line"/>
      <point x="389" y="318" type="line"/>
      <point x="662" y="622" type="line"/>
    </contour>
    <contour>
      <point x="89" y="622" type="line"/>
      <point x="89" y="0" type="line"/>
      <point x="220" y="0" type="line"/>
      <point x="220" y="622" type="line"/>
    </contour>
  </outline>
</glyph>
<glyph name="L" format="1">
  <advance width="556"/>
  <unicode hex="004C"/>
  <outline>
    <contour>
      <point x="89" y="622" type="line"/>
      <point x="89" y="0" type="line"/>
      <point x="223" y="0" type="line"/>
      <point x="223" y="622" type="line"/>
    </contour>
    <contour>
      <point x="145" y="0" type="line"/>
      <point x="531" y="0" type="line"/>
      <point x="531" y="59" type="line"/>
      <point x="145" y="59" type="line"/>
    </contour>
  </outline>
</glyph>
<glyph name="M" format="1">
  <advance width="887"/>
  <unicode hex="004D"/>
  <outline>
    <contour>
      <point x="491" y="135" type="line"/>
      <point x="679" y="483" type="line"/>
      <point x="679" y="0" type="line"/>
      <point x="798" y="0" type="line"/>
      <point x="798" y="622" type="line"/>
      <point x="655" y="622" type="line"/>
      <point x="440" y="225" type="line"/>
      <point x="233" y="622" type="line"/>
      <point x="89" y="622" type="line"/>
      <point x="89" y="0" type="line"/>
      <point x="208" y="0" type="line"/>
      <point x="208" y="483" type="line"/>
      <point x="391" y="135" type="line"/>
    </contour>
  </outline>
</glyph>
<glyph name="N" format="1">
  <advance width="730"/>
  <unicode hex="004E"/>
  <outline>
    <contour>
      <point x="518" y="622" type="line"/>
      <point x="518" y="139" type="line"/>
      <point x="215" y="622" type="line"/>
      <point x="89" y="622" type="line"/>
      <point x="89" y="0" type="line"/>
      <point x="212" y="0" type="line"/>
      <point x="212" y="485" type="line"/>
      <point x="519" y="0" type="line"/>
      <point x="641" y="0" type="line"/>
      <point x="641" y="622" type="line"/>
    </contour>
  </outline>
</glyph>
<glyph name="O" format="1">
  <advance width="684"/>
  <unicode hex="004F"/>
  <outline>
    <contour>
      <point x="604" y="543" type="line"/>
      <point x="604" y="596"/>
      <point x="578" y="622"/>
      <point x="525" y="622" type="curve" smooth="yes"/>
      <point x="159" y="622" type="line" smooth="yes"/>
      <point x="106" y="622"/>
      <point x="80" y="596"/>
      <point x="80" y="543" type="curve" smooth="yes"/>
      <point x="80" y="79" type="line" smooth="yes"/>
      <point x="80" y="26"/>
      <point x="106" y="0"/>
      <point x="159" y="0" type="curve" smooth="yes"/>
      <point x="525" y="0" type="line" smooth="yes"/>
      <point x="578" y="0"/>
      <point x="604" y="26"/>
      <point x="604" y="79" type="curve" smooth="yes"/>
    </contour>
    <contour>
      <point x="471" y="90" type="line"/>
      <point x="471" y="64"/>
      <point x="466" y="59"/>
      <point x="440" y="59" type="curve" smooth="yes"/>
      <point x="245" y="59" type="line" smooth="yes"/>
      <point x="219" y="59"/>
      <point x="214" y="64"/>
      <point x="214" y="90" type="curve" smooth="yes"/>
      <point x="214" y="532" type="line" smooth="yes"/>
      <point x="214" y="558"/>
      <point x="219" y="563"/>
      <point x="245" y="563" type="curve" smooth="yes"/>
      <point x="440" y="563" type="line" smooth="yes"/>
      <point x="466" y="563"/>
      <point x="471" y="558"/>
      <point x="471" y="532" type="curve" smooth="yes"/>
    </contour>
  </outline>
</glyph>
<glyph name="P" format="1">
  <advance width="680"/>
  <unicode hex="0050"/>
  <outline>
    <contour>
      <point x="495" y="293" type="line"/>
      <point x="495" y="267"/>
      <point x="490" y="262"/>
      <point x="464" y="262" type="curve" smooth="yes"/>
      <point x="145" y="262" type="line"/>
      <point x="145" y="203" type="line"/>
      <point x="549" y="203" type="line" smooth="yes"/>
      <point x="602" y="203"/>
      <point x="628" y="229"/>
      <point x="628" y="282" type="curve" smooth="yes"/>
      <point x="628" y="543" type="line" smooth="yes"/>
      <point x="628" y="596"/>
      <point x="602" y="622"/>
      <point x="549" y="622" type="curve" smooth="yes"/>
      <point x="118" y="622" type="line"/>
      <point x="118" y="563" type="line"/>
      <point x="464" y="563" type="line" smooth="yes"/>
      <point x="490" y="563"/>
      <point x="495" y="558"/>
      <point x="495" y="532" type="curve" smooth="yes"/>
    </contour>
    <contour>
      <point x="89" y="622" type="line"/>
      <point x="89" y="0" type="line"/>
      <point x="223" y="0" type="line"/>
      <point x="223" y="622" type="line"/>
    </contour>
  </outline>
</glyph>
<glyph name="Q" format="1">
  <advance width="656"/>
  <unicode hex="0051"/>
  <outline>
    <contour>
      <point x="273" y="44" type="line"/>
      <point x="437" y="-97" type="line"/>
      <point x="594" y="-97" type="line"/>
      <point x="421" y="44" type="line"/>
    </contour>
    <contour>
      <point x="589" y="543" type="line"/>
      <point x="589" y="596"/>
      <point x="563" y="622"/>
      <point x="510" y="622" type="curve" smooth="yes"/>
      <point x="145" y="622" type="line" smooth="yes"/>
      <point x="92" y="622"/>
      <point x="66" y="596"/>
      <point x="66" y="543" type="curve" smooth="yes"/>
      <point x="66" y="79" type="line" smooth="yes"/>
      <point x="66" y="26"/>
      <point x="92" y="0"/>
      <point x="145" y="0" type="curve" smooth="yes"/>
      <point x="510" y="0" type="line" smooth="yes"/>
      <point x="563" y="0"/>
      <point x="589" y="26"/>
      <point x="589" y="79" type="curve" smooth="yes"/>
    </contour>
    <contour>
      <point x="458" y="90" type="line"/>
      <point x="458" y="64"/>
      <point x="453" y="59"/>
      <point x="427" y="59" type="curve" smooth="yes"/>
      <point x="229" y="59" type="line" smooth="yes"/>
      <point x="203" y="59"/>
      <point x="198" y="64"/>
      <point x="198" y="90" type="curve" smooth="yes"/>
      <point x="198" y="532" type="line" smooth="yes"/>
      <point x="198" y="558"/>
      <point x="203" y="563"/>
      <point x="229" y="563" type="curve" smooth="yes"/>
      <point x="427" y="563" type="line" smooth="yes"/>
      <point x="453" y="563"/>
      <point x="458" y="558"/>
      <point x="458" y="532" type="curve" smooth="yes"/>
    </contour>
  </outline>
</glyph>
<glyph name="R" format="1">
  <advance width="700"/>
  <unicode hex="0052"/>
  <outline>
    <contour>
      <point x="496" y="313" type="line"/>
      <point x="496" y="287"/>
      <point x="491" y="282"/>
      <point x="465" y="282" type="curve" smooth="yes"/>
      <point x="145" y="282" type="line"/>
      <point x="145" y="223" type="line"/>
      <point x="550" y="223" type="line" smooth="yes"/>
      <point x="603" y="223"/>
      <point x="629" y="249"/>
      <point x="629" y="302" type="curve" smooth="yes"/>
      <point x="629" y="543" type="line" smooth="yes"/>
      <point x="629" y="596"/>
      <point x="603" y="622"/>
      <point x="550" y="622" type="curve" smooth="yes"/>
      <point x="118" y="622" type="line"/>
      <point x="118" y="563" type="line"/>
      <point x="465" y="563" type="line" smooth="yes"/>
      <point x="491" y="563"/>
      <point x="496" y="558"/>
      <point x="496" y="532" type="curve" smooth="yes"/>
    </contour>
    <contour>
      <point x="89" y="622" type="line"/>
      <point x="89" y="0" type="line"/>
      <point x="223" y="0" type="line"/>
      <point x="223" y="622" type="line"/>
    </contour>
    <contour>
      <point x="345" y="252" type="line"/>
      <point x="499" y="0" type="line"/>
      <point x="638" y="0" type="line"/>
      <point x="479" y="252" type="line"/>
    </contour>
  </outline>
</glyph>
<glyph name="S" format="1">
  <advance width="661"/>
  <unicode hex="0053"/>
  <outline>
    <contour>
      <point x="457" y="90" type="line"/>
      <point x="457" y="64"/>
      <point x="452" y="59"/>
      <point x="426" y="59" type="curve" smooth="yes"/>
      <point x="237" y="59" type="line" smooth="yes"/>
      <point x="211" y="59"/>
      <point x="206" y="64"/>
      <point x="206" y="90" type="curve" smooth="yes"/>
      <point x="206" y="186" type="line"/>
      <point x="72" y="186" type="line"/>
      <point x="72" y="79" type="line" smooth="yes"/>
      <point x="72" y="26"/>
      <point x="98" y="0"/>
      <point x="151" y="0" type="curve" smooth="yes"/>
      <point x="512" y="0" type="line" smooth="yes"/>
      <point x="565" y="0"/>
      <point x="591" y="26"/>
      <point x="591" y="79" type="curve" smooth="yes"/>
      <point x="591" y="264" type="line" smooth="yes"/>
      <point x="591" y="317"/>
      <point x="565" y="343"/>
      <point x="512" y="343" type="curve" smooth="yes"/>
      <point x="235" y="343" type="line" smooth="yes"/>
      <point x="209" y="343"/>
      <point x="204" y="348"/>
      <point x="204" y="374" type="curve" smooth="yes"/>
      <point x="204" y="532" type="line" smooth="yes"/>
      <point x="204" y="558"/>
      <point x="209" y="563"/>
      <point x="235" y="563" type="curve" smooth="yes"/>
      <point x="422" y="563" type="line" smooth="yes"/>
      <point x="448" y="563"/>
      <point x="453" y="558"/>
      <point x="453" y="532" type="curve" smooth="yes"/>
      <point x="453" y="436" type="line"/>
      <point x="588" y="436" type="line"/>
      <point x="588" y="543" type="line" smooth="yes"/>
      <point x="588" y="596"/>
      <point x="562" y="622"/>
      <point x="509" y="622" type="curve" smooth="yes"/>
      <point x="148" y="622" type="line" smooth="yes"/>
      <point x="95" y="622"/>
      <point x="69" y="596"/>
      <point x="69" y="543" type="curve" smooth="yes"/>
      <point x="69" y="363" type="line" smooth="yes"/>
      <point x="69" y="310"/>
      <point x="95" y="284"/>
      <point x="148" y="284" type="curve" smooth="yes"/>
      <point x="426" y="284" type="line" smooth="yes"/>
      <point x="452" y="284"/>
      <point x="457" y="279"/>
      <point x="457" y="253" type="curve" smooth="yes"/>
    </contour>
  </outline>
</glyph>
<glyph name="T" format="1">
  <advance width="576"/>
  <unicode hex="0054"/>
  <outline>
    <contour>
      <point x="221" y="605" type="line"/>
      <point x="221" y="0" type="line"/>
      <point x="355" y="0" type="line"/>
      <point x="355" y="605" type="line"/>
    </contour>
    <contour>
      <point x="568" y="622" type="line"/>
      <point x="9" y="622" type="line"/>
      <point x="9" y="563" type="line"/>
      <point x="568" y="563" type="line"/>
    </contour>
  </outline>
</glyph>
<glyph name="U" format="1">
  <advance width="697"/>
  <unicode hex="0055"/>
  <outline>
    <contour>
      <point x="214" y="622" type="line"/>
      <point x="80" y="622" type="line"/>
      <point x="80" y="79" type="line" smooth="yes"/>
      <point x="80" y="26"/>
      <point x="106" y="0"/>
      <point x="159" y="0" type="curve" smooth="yes"/>
      <point x="538" y="0" type="line" smooth="yes"/>
      <point x="591" y="0"/>
      <point x="617" y="26"/>
      <point x="617" y="79" type="curve" smooth="yes"/>
      <point x="617" y="622" type="line"/>
      <point x="484" y="622" type="line"/>
      <point x="484" y="90" type="line" smooth="yes"/>
      <point x="484" y="64"/>
      <point x="479" y="59"/>
      <point x="453" y="59" type="curve" smooth="yes"/>
      <point x="245" y="59" type="line" smooth="yes"/>
      <point x="219" y="59"/>
      <point x="214" y="64"/>
      <point x="214" y="90" type="curve" smooth="yes"/>
    </contour>
  </outline>
</glyph>
<glyph name="V" format="1">
  <advance width="703"/>
  <unicode hex="0056"/>
  <outline>
    <contour>
      <point x="539" y="622" type="line"/>
      <point x="350" y="90" type="line"/>
      <point x="164" y="622" type="line"/>
      <point x="28" y="622" type="line"/>
      <point x="265" y="0" type="line"/>
      <point x="437" y="0" type="line"/>
      <point x="674" y="622" type="line"/>
    </contour>
  </outline>
</glyph>
<glyph name="W" format="1">
  <advance width="1080"/>
  <unicode hex="0057"/>
  <outline>
    <contour>
      <point x="920" y="622" type="line"/>
      <point x="759" y="94" type="line"/>
      <point x="608" y="622" type="line"/>
      <point x="470" y="622" type="line"/>
      <point x="319" y="94" type="line"/>
      <point x="165" y="622" type="line"/>
      <point x="29" y="622" type="line"/>
      <point x="235" y="0" type="line"/>
      <point x="402" y="0" type="line"/>
      <point x="539" y="479" type="line"/>
      <point x="677" y="0" type="line"/>
      <point x="844" y="0" type="line"/>
      <point x="1051" y="622" type="line"/>
    </contour>
  </outline>
</glyph>
<glyph name="X" format="1">
  <advance width="687"/>
  <unicode hex="0058"/>
  <outline>
    <contour>
      <point x="417" y="321" type="line"/>
      <point x="643" y="622" type="line"/>
      <point x="502" y="622" type="line"/>
      <point x="342" y="399" type="line"/>
      <point x="180" y="622" type="line"/>
      <point x="34" y="622" type="line"/>
      <point x="267" y="314" type="line"/>
      <point x="25" y="0" type="line"/>
      <point x="166" y="0" type="line"/>
      <point x="342" y="237" type="line"/>
      <point x="516" y="0" type="line"/>
      <point x="661" y="0" type="line"/>
    </contour>
  </outline>
</glyph>
<glyph name="Y" format="1">
  <advance width="660"/>
  <unicode hex="0059"/>
  <outline>
    <contour>
      <point x="396" y="191" type="line"/>
      <point x="653" y="622" type="line"/>
      <point x="520" y="622" type="line"/>
      <point x="335" y="289" type="line"/>
      <point x="141" y="622" type="line"/>
      <point x="7" y="622" type="line"/>
      <point x="276" y="191" type="line"/>
    </contour>
    <contour>
      <point x="269" y="249" type="line"/>
      <point x="269" y="0" type="line"/>
      <point x="403" y="0" type="line"/>
      <point x="403" y="249" type="line"/>
    </contour>
  </outline>
</glyph>
<glyph name="Z" format="1">
  <advance width="636"/>
  <unicode hex="005A"/>
  <outline>
    <contour>
      <point x="585" y="622" type="line"/>
      <point x="64" y="622" type="line"/>
      <point x="64" y="563" type="line"/>
      <point x="585" y="563" type="line"/>
    </contour>
    <contour>
      <point x="432" y="563" type="line"/>
      <point x="52" y="59" type="line"/>
      <point x="204" y="59" type="line"/>
      <point x="585" y="563" type="line"/>
    </contour>
    <contour>
      <point x="575" y="59" type="line"/>
      <point x="52" y="59" type="line"/>
      <point x="52" y="0" type="line"/>
      <point x="575" y="0" type="line"/>
    </contour>
  </outline>
</glyph>
<glyph name="bracketleft" format="1">
  <advance width="340"/>
  <unicode hex="005B"/>
  <outline>
    <contour>
      <point x="143" y="661" type="line"/>
      <point x="378" y="661" type="line"/>
      <point x="378" y="720" type="line"/>
      <point x="143" y="720" type="line"/>
    </contour>
    <contour>
      <point x="87" y="720" type="line"/>
      <point x="87" y="-220" type="line"/>
      <point x="222" y="-220" type="line"/>
      <point x="222" y="720" type="line"/>
    </contour>
    <contour>
      <point x="135" y="-220" type="line"/>
      <point x="378" y="-220" type="line"/>
      <point x="378" y="-161" type="line"/>
      <point x="135" y="-161" type="line"/>
    </contour>
  </outline>
</glyph>
<glyph name="backslash" format="1">
  <advance width="423"/>
  <unicode hex="005C"/>
  <outline>
    <contour>
      <point x="-82" y="699" type="line"/>
      <point x="334" y="-136" type="line"/>
      <point x="454" y="-136" type="line"/>
      <point x="37" y="699" type="line"/>
    </contour>
  </outline>
</glyph>
<glyph name="bracketright" format="1">
  <advance width="340"/>
  <unicode hex="005D"/>
  <outline>
    <contour>
      <point x="197" y="720" type="line"/>
      <point x="-38" y="720" type="line"/>
      <point x="-38" y="661" type="line"/>
      <point x="197" y="661" type="line"/>
    </contour>
    <contour>
      <point x="118" y="720" type="line"/>
      <point x="118" y="-220" type="line"/>
      <point x="253" y="-220" type="line"/>
      <point x="253" y="720" type="line"/>
    </contour>
    <contour>
      <point x="205" y="-161" type="line"/>
      <point x="-38" y="-161" type="line"/>
      <point x="-38" y="-220" type="line"/>
      <point x="205" y="-220" type="line"/>
    </contour>
  </outline>
</glyph>
<glyph name="asciicircum" format="1">
  <advance width="650"/>
  <unicode hex="005E"/>
  <outline>
    <contour>
      <point x="248" y="668" type="line"/>
      <point x="43" y="328" type="line"/>
      <point x="169" y="328" type="line"/>
      <point x="325" y="592" type="line"/>
      <point x="481" y="328" type="line"/>
      <point x="607" y="328" type="line"/>
      <point x="402" y="668" type="line"/>
    </contour>
  </outline>
</glyph>
<glyph name="underscore" format="1">
  <advance width="605"/>
  <unicode hex="005F"/>
  <outline>
    <contour>
      <point x="3" y="-59" type="line"/>
      <point x="602" y="-59" type="line"/>
      <point x="602" y="0" type="line"/>
      <point x="3" y="0" type="line"/>
    </contour>
  </outline>
</glyph>
<glyph name="grave" format="1">
  <advance width="508"/>
  <unicode hex="0060"/>
  <outline>
    <contour>
      <point x="309" y="652" type="line"/>
      <point x="166" y="652" type="line"/>
      <point x="333" y="506" type="line"/>
      <point x="448" y="506" type="line"/>
    </contour>
  </outline>
</glyph>
<glyph name="b" format="1">
  <advance width="642"/>
  <unicode hex="0062"/>
  <outline>
    <contour>
      <point x="442" y="258" type="line"/>
      <point x="442" y="90" type="line" smooth="yes"/>
      <point x="442" y="64"/>
      <point x="437" y="59"/>
      <point x="411" y="59" type="curve" smooth="yes"/>
      <point x="245" y="59" type="line" smooth="yes"/>
      <point x="221" y="59"/>
      <point x="210" y="68"/>
      <point x="210" y="92" type="curve" smooth="yes"/>
      <point x="210" y="117" type="line"/>
      <point x="204" y="116" type="line"/>
      <point x="204" y="71" type="line" smooth="yes"/>
      <point x="204" y="23"/>
      <point x="221" y="0"/>
      <point x="266" y="0" type="curve" smooth="yes"/>
      <point x="492" y="0" type="line" smooth="yes"/>
      <point x="545" y="0"/>
      <point x="571" y="26"/>
      <point x="571" y="79" type="curve" smooth="yes"/>
      <point x="571" y="258" type="line"/>
    </contour>
    <contour>
      <point x="571" y="228" type="line"/>
      <point x="571" y="406" type="line" smooth="yes"/>
      <point x="571" y="459"/>
      <point x="545" y="485"/>
      <point x="492" y="485" type="curve" smooth="yes"/>
      <point x="266" y="485" type="line" smooth="yes"/>
      <point x="221" y="485"/>
      <point x="204" y="462"/>
      <point x="204" y="414" type="curve" smooth="yes"/>
      <point x="204" y="361" type="line"/>
      <point x="210" y="361" type="line"/>
      <point x="210" y="393" type="line" smooth="yes"/>
      <point x="210" y="417"/>
      <point x="221" y="426"/>
      <point x="245" y="426" type="curve" smooth="yes"/>
      <point x="411" y="426" type="line" smooth="yes"/>
      <point x="437" y="426"/>
      <point x="442" y="421"/>
      <point x="442" y="395" type="curve" smooth="yes"/>
      <point x="442" y="228" type="line"/>
    </contour>
    <contour>
      <point x="80" y="669" type="line"/>
      <point x="80" y="0" type="line"/>
      <point x="209" y="0" type="line"/>
      <point x="209" y="669" type="line"/>
    </contour>
  </outline>
</glyph>
<glyph name="c" format="1">
  <advance width="604"/>
  <unicode hex="0063"/>
  <outline>
    <contour>
      <point x="201" y="395" type="line"/>
      <point x="201" y="421"/>
      <point x="206" y="426"/>
      <point x="232" y="426" type="curve" smooth="yes"/>
      <point x="376" y="426" type="line"/>
      <point x="376" y="485" type="line"/>
      <point x="151" y="485" type="line" smooth="yes"/>
      <point x="98" y="485"/>
      <point x="72" y="459"/>
      <point x="72" y="406" type="curve" smooth="yes"/>
      <point x="72" y="79" type="line" smooth="yes"/>
      <point x="72" y="26"/>
      <point x="98" y="0"/>
      <point x="151" y="0" type="curve" smooth="yes"/>
      <point x="371" y="0" type="line"/>
      <point x="371" y="59" type="line"/>
      <point x="232" y="59" type="line" smooth="yes"/>
      <point x="206" y="59"/>
      <point x="201" y="64"/>
      <point x="201" y="90" type="curve" smooth="yes"/>
    </contour>
    <contour>
      <point x="424" y="320" type="line"/>
      <point x="551" y="320" type="line"/>
      <point x="551" y="406" type="line" smooth="yes"/>
      <point x="551" y="459"/>
      <point x="525" y="485"/>
      <point x="472" y="485" type="curve" smooth="yes"/>
      <point x="247" y="485" type="line"/>
      <point x="247" y="426" type="line"/>
      <point x="393" y="426" type="line" smooth="yes"/>
      <point x="419" y="426"/>
      <point x="424" y="421"/>
      <point x="424" y="395" type="curve" smooth="yes"/>
    </contour>
    <contour>
      <point x="424" y="90" type="line"/>
      <point x="424" y="64"/>
      <point x="419" y="59"/>
      <point x="393" y="59" type="curve" smooth="yes"/>
      <point x="247" y="59" type="line"/>
      <point x="247" y="0" type="line"/>
      <point x="472" y="0" type="line" smooth="yes"/>
      <point x="525" y="0"/>
      <point x="551" y="26"/>
      <point x="551" y="79" type="curve" smooth="yes"/>
      <point x="551" y="164" type="line"/>
      <point x="424" y="164" type="line"/>
    </contour>
  </outline>
</glyph>
<glyph name="e" format="1">
  <advance width="635"/>
  <unicode hex="0065"/>
  <outline>
    <contour>
      <point x="201" y="395" type="line"/>
      <point x="201" y="421"/>
      <point x="206" y="426"/>
      <point x="232" y="426" type="curve" smooth="yes"/>
      <point x="397" y="426" type="line"/>
      <point x="397" y="485" type="line"/>
      <point x="151" y="485" type="line" smooth="yes"/>
      <point x="98" y="485"/>
      <point x="72" y="459"/>
      <point x="72" y="406" type="curve" smooth="yes"/>
      <point x="72" y="79" type="line" smooth="yes"/>
      <point x="72" y="26"/>
      <point x="98" y="0"/>
      <point x="151" y="0" type="curve" smooth="yes"/>
      <point x="390" y="0" type="line"/>
      <point x="390" y="59" type="line"/>
      <point x="232" y="59" type="line" smooth="yes"/>
      <point x="206" y="59"/>
      <point x="201" y="64"/>
      <point x="201" y="90" type="curve" smooth="yes"/>
    </contour>
    <contour>
      <point x="446" y="239" type="line"/>
      <point x="572" y="239" type="line"/>
      <point x="572" y="406" type="line" smooth="yes"/>
      <point x="572" y="459"/>
      <point x="546" y="485"/>
      <point x="493" y="485" type="curve" smooth="yes"/>
      <point x="251" y="485" type="line"/>
      <point x="251" y="426" type="line"/>
      <point x="415" y="426" type="line" smooth="yes"/>
      <point x="441" y="426"/>
      <point x="446" y="421"/>
      <point x="446" y="395" type="curve" smooth="yes"/>
    </contour>
    <contour>
      <point x="444" y="90" type="line"/>
      <point x="444" y="64"/>
      <point x="439" y="59"/>
      <point x="413" y="59" type="curve" smooth="yes"/>
      <point x="251" y="59" type="line"/>
      <point x="251" y="0" type="line"/>
      <point x="491" y="0" type="line" smooth="yes"/>
      <point x="544" y="0"/>
      <point x="570" y="26"/>
      <point x="570" y="79" type="curve" smooth="yes"/>
      <point x="570" y="145" type="line"/>
      <point x="444" y="145" type="line"/>
    </contour>
    <contour>
      <point x="572" y="278" type="line"/>
      <point x="133" y="278" type="line"/>
      <point x="133" y="219" type="line"/>
      <point x="572" y="219" type="line"/>
    </contour>
  </outline>
</glyph>
<glyph name="f" format="1">
  <advance width="390"/>
  <unicode hex="0066"/>
  <outline>
    <contour>
      <point x="247" y="576" type="line"/>
      <point x="247" y="602"/>
      <point x="252" y="607"/>
      <point x="278" y="607" type="curve" smooth="yes"/>
      <point x="382" y="607" type="line"/>
      <point x="382" y="669" type="line"/>
      <point x="197" y="669" type="line" smooth="yes"/>
      <point x="144" y="669"/>
      <point x="118" y="643"/>
      <point x="118" y="590" type="curve" smooth="yes"/>
      <point x="118" y="0" type="line"/>
      <point x="247" y="0" type="line"/>
    </contour>
    <contour>
      <point x="382" y="485" type="line"/>
      <point x="46" y="485" type="line"/>
      <point x="46" y="426" type="line"/>
      <point x="382" y="426" type="line"/>
    </contour>
  </outline>
</glyph>
<glyph name="g" format="1">
  <advance width="635"/>
  <unicode hex="0067"/>
  <outline>
    <contour>
      <point x="72" y="259" type="line"/>
      <point x="72" y="79" type="line" smooth="yes"/>
      <point x="72" y="26"/>
      <point x="98" y="0"/>
      <point x="151" y="0" type="curve" smooth="yes"/>
      <point x="377" y="0" type="line" smooth="yes"/>
      <point x="422" y="0"/>
      <point x="439" y="23"/>
      <point x="439" y="71" type="curve" smooth="yes"/>
      <point x="439" y="116" type="line"/>
      <point x="433" y="117" type="line"/>
      <point x="433" y="92" type="line" smooth="yes"/>
      <point x="433" y="68"/>
      <point x="423" y="59"/>
      <point x="398" y="59" type="curve" smooth="yes"/>
      <point x="232" y="59" type="line" smooth="yes"/>
      <point x="206" y="59"/>
      <point x="201" y="64"/>
      <point x="201" y="90" type="curve" smooth="yes"/>
      <point x="201" y="259" type="line"/>
    </contour>
    <contour>
      <point x="201" y="228" type="line"/>
      <point x="201" y="395" type="line" smooth="yes"/>
      <point x="201" y="421"/>
      <point x="206" y="426"/>
      <point x="232" y="426" type="curve" smooth="yes"/>
      <point x="398" y="426" type="line" smooth="yes"/>
      <point x="423" y="426"/>
      <point x="433" y="417"/>
      <point x="433" y="393" type="curve" smooth="yes"/>
      <point x="433" y="362" type="line"/>
      <point x="439" y="362" type="line"/>
      <point x="439" y="414" type="line" smooth="yes"/>
      <point x="439" y="462"/>
      <point x="422" y="485"/>
      <point x="377" y="485" type="curve" smooth="yes"/>
      <point x="151" y="485" type="line" smooth="yes"/>
      <point x="98" y="485"/>
      <point x="72" y="459"/>
      <point x="72" y="406" type="curve" smooth="yes"/>
      <point x="72" y="228" type="line"/>
    </contour>
    <contour>
      <point x="434" y="-51" type="line"/>
      <point x="434" y="-77"/>
      <point x="429" y="-82"/>
      <point x="403" y="-82" type="curve" smooth="yes"/>
      <point x="93" y="-82" type="line"/>
      <point x="93" y="-141" type="line"/>
      <point x="484" y="-141" type="line" smooth="yes"/>
      <point x="537" y="-141"/>
      <point x="563" y="-115"/>
      <point x="563" y="-62" type="curve" smooth="yes"/>
      <point x="563" y="21" type="line"/>
      <point x="434" y="21" type="line"/>
    </contour>
    <contour>
      <point x="562" y="11" type="line"/>
      <point x="562" y="485" type="line"/>
      <point x="433" y="485" type="line"/>
      <point x="433" y="11" type="line"/>
    </contour>
  </outline>
</glyph>
<glyph name="h" format="1">
  <advance width="643"/>
  <unicode hex="0068"/>
  <outline>
    <contour>
      <point x="572" y="0" type="line"/>
      <point x="572" y="406" type="line" smooth="yes"/>
      <point x="572" y="459"/>
      <point x="546" y="485"/>
      <point x="493" y="485" type="curve" smooth="yes"/>
      <point x="266" y="485" type="line" smooth="yes"/>
      <point x="221" y="485"/>
      <point x="204" y="462"/>
      <point x="204" y="414" type="curve" smooth="yes"/>
      <point x="204" y="363" type="line"/>
      <point x="210" y="363" type="line"/>
      <point x="210" y="393" type="line" smooth="yes"/>
      <point x="210" y="417"/>
      <point x="221" y="426"/>
      <point x="245" y="426" type="curve" smooth="yes"/>
      <point x="411" y="426" type="line" smooth="yes"/>
      <point x="437" y="426"/>
      <point x="442" y="421"/>
      <point x="442" y="395" type="curve" smooth="yes"/>
      <point x="442" y="0" type="line"/>
    </contour>
    <contour>
      <point x="209" y="0" type="line"/>
      <point x="209" y="669" type="line"/>
      <point x="80" y="669" type="line"/>
      <point x="80" y="0" type="line"/>
    </contour>
  </outline>
</glyph>
<glyph name="i" format="1">
  <advance width="304"/>
  <unicode hex="0069"/>
  <outline>
    <contour>
      <point x="217" y="0" type="line"/>
      <point x="217" y="485" type="line"/>
      <point x="87" y="485" type="line"/>
      <point x="87" y="0" type="line"/>
    </contour>
    <contour>
      <point x="85" y="573" type="line"/>
      <point x="220" y="573" type="line"/>
      <point x="220" y="670" type="line"/>
      <point x="85" y="670" type="line"/>
    </contour>
  </outline>
</glyph>
<glyph name="j" format="1">
  <advance width="297"/>
  <unicode hex="006A"/>
  <outline>
    <contour>
      <point x="87" y="-51" type="line"/>
      <point x="87" y="-77"/>
      <point x="82" y="-82"/>
      <point x="56" y="-82" type="curve" smooth="yes"/>
      <point x="-36" y="-82" type="line"/>
      <point x="-36" y="-141" type="line"/>
      <point x="138" y="-141" type="line" smooth="yes"/>
      <point x="191" y="-141"/>
      <point x="217" y="-115"/>
      <point x="217" y="-62" type="curve" smooth="yes"/>
      <point x="217" y="485" type="line"/>
      <point x="87" y="485" type="line"/>
    </contour>
    <contour>
      <point x="85" y="573" type="line"/>
      <point x="220" y="573" type="line"/>
      <point x="220" y="670" type="line"/>
      <point x="85" y="670" type="line"/>
    </contour>
  </outline>
</glyph>
<glyph name="k" format="1">
  <advance width="625"/>
  <unicode hex="006B"/>
  <outline>
    <contour>
      <point x="209" y="0" type="line"/>
      <point x="209" y="669" type="line"/>
      <point x="80" y="669" type="line"/>
      <point x="80" y="0" type="line"/>
    </contour>
    <contour>
      <point x="231" y="245" type="line"/>
      <point x="457" y="0" type="line"/>
      <point x="606" y="0" type="line"/>
      <point x="375" y="245" type="line"/>
    </contour>
    <contour>
      <point x="375" y="245" type="line"/>
      <point x="606" y="485" type="line"/>
      <point x="457" y="485" type="line"/>
      <point x="231" y="245" type="line"/>
    </contour>
  </outline>
</glyph>
<glyph name="m" format="1">
  <advance width="979"/>
  <unicode hex="006D"/>
  <outline>
    <contour>
      <point x="564" y="0" type="line"/>
      <point x="564" y="406" type="line" smooth="yes"/>
      <point x="564" y="459"/>
      <point x="538" y="485"/>
      <point x="485" y="485" type="curve" smooth="yes"/>
      <point x="265" y="485" type="line" smooth="yes"/>
      <point x="220" y="485"/>
      <point x="203" y="462"/>
      <point x="203" y="414" type="curve" smooth="yes"/>
      <point x="203" y="362" type="line"/>
      <point x="209" y="362" type="line"/>
      <point x="209" y="393" type="line" smooth="yes"/>
      <point x="209" y="417"/>
      <point x="220" y="426"/>
      <point x="244" y="426" type="curve" smooth="yes"/>
      <point x="403" y="426" type="line" smooth="yes"/>
      <point x="429" y="426"/>
      <point x="434" y="421"/>
      <point x="434" y="395" type="curve" smooth="yes"/>
      <point x="434" y="0" type="line"/>
    </contour>
    <contour>
      <point x="908" y="0" type="line"/>
      <point x="908" y="406" type="line" smooth="yes"/>
      <point x="908" y="459"/>
      <point x="882" y="485"/>
      <point x="829" y="485" type="curve" smooth="yes"/>
      <point x="622" y="485" type="line" smooth="yes"/>
      <point x="577" y="485"/>
      <point x="555" y="462"/>
      <point x="555" y="413" type="curve" smooth="yes"/>
      <point x="555" y="358" type="line"/>
      <point x="564" y="358" type="line"/>
      <point x="564" y="389" type="line" smooth="yes"/>
      <point x="564" y="414"/>
      <point x="574" y="426"/>
      <point x="600" y="426" type="curve" smooth="yes"/>
      <point x="748" y="426" type="line" smooth="yes"/>
      <point x="774" y="426"/>
      <point x="779" y="421"/>
      <point x="779" y="395" type="curve" smooth="yes"/>
      <point x="779" y="0" type="line"/>
    </contour>
    <contour>
      <point x="209" y="0" type="line"/>
      <point x="209" y="485" type="line"/>
      <point x="80" y="485" type="line"/>
      <point x="80" y="0" type="line"/>
    </contour>
  </outline>
</glyph>
<glyph name="n" format="1">
  <advance width="642"/>
  <unicode hex="006E"/>
  <outline>
    <contour>
      <point x="209" y="0" type="line"/>
      <point x="209" y="485" type="line"/>
      <point x="80" y="485" type="line"/>
      <point x="80" y="0" type="line"/>
    </contour>
    <contour>
      <point x="571" y="0" type="line"/>
      <point x="571" y="406" type="line" smooth="yes"/>
      <point x="571" y="459"/>
      <point x="545" y="485"/>
      <point x="492" y="485" type="curve" smooth="yes"/>
      <point x="266" y="485" type="line" smooth="yes"/>
      <point x="221" y="485"/>
      <point x="204" y="462"/>
      <point x="204" y="414" type="curve" smooth="yes"/>
      <point x="204" y="362" type="line"/>
      <point x="210" y="362" type="line"/>
      <point x="210" y="393" type="line" smooth="yes"/>
      <point x="210" y="417"/>
      <point x="221" y="426"/>
      <point x="245" y="426" type="curve" smooth="yes"/>
      <point x="411" y="426" type="line" smooth="yes"/>
      <point x="437" y="426"/>
      <point x="442" y="421"/>
      <point x="442" y="395" type="curve" smooth="yes"/>
      <point x="442" y="0" type="line"/>
    </contour>
  </outline>
</glyph>
<glyph name="o" format="1">
  <advance width="637"/>
  <unicode hex="006F"/>
  <outline>
    <contour>
      <point x="437" y="90" type="line"/>
      <point x="437" y="64"/>
      <point x="432" y="59"/>
      <point x="406" y="59" type="curve" smooth="yes"/>
      <point x="249" y="59" type="line"/>
      <point x="249" y="0" type="line"/>
      <point x="486" y="0" type="line" smooth="yes"/>
      <point x="539" y="0"/>
      <point x="565" y="26"/>
      <point x="565" y="79" type="curve" smooth="yes"/>
      <point x="565" y="406" type="line" smooth="yes"/>
      <point x="565" y="459"/>
      <point x="539" y="485"/>
      <point x="486" y="485" type="curve" smooth="yes"/>
      <point x="375" y="485" type="line"/>
      <point x="375" y="426" type="line"/>
      <point x="406" y="426" type="line" smooth="yes"/>
      <point x="432" y="426"/>
      <point x="437" y="421"/>
      <point x="437" y="395" type="curve" smooth="yes"/>
    </contour>
    <contour>
      <point x="200" y="395" type="line"/>
      <point x="200" y="421"/>
      <point x="205" y="426"/>
      <point x="231" y="426" type="curve" smooth="yes"/>
      <point x="381" y="426" type="line"/>
      <point x="381" y="485" type="line"/>
      <point x="151" y="485" type="line" smooth="yes"/>
      <point x="98" y="485"/>
      <point x="72" y="459"/>
      <point x="72" y="406" type="curve" smooth="yes"/>
      <point x="72" y="79" type="line" smooth="yes"/>
      <point x="72" y="26"/>
      <point x="98" y="0"/>
      <point x="151" y="0" type="curve" smooth="yes"/>
      <point x="378" y="0" type="line"/>
      <point x="378" y="59" type="line"/>
      <point x="231" y="59" type="line" smooth="yes"/>
      <point x="205" y="59"/>
      <point x="200" y="64"/>
      <point x="200" y="90" type="curve" smooth="yes"/>
    </contour>
  </outline>
</glyph>
<glyph name="p" format="1">
  <advance width="650"/>
  <unicode hex="0070"/>
  <outline>
    <contour>
      <point x="578" y="227" type="line"/>
      <point x="578" y="406" type="line" smooth="yes"/>
      <point x="578" y="459"/>
      <point x="552" y="485"/>
      <point x="499" y="485" type="curve" smooth="yes"/>
      <point x="265" y="485" type="line" smooth="yes"/>
      <point x="220" y="485"/>
      <point x="203" y="462"/>
      <point x="203" y="413" type="curve" smooth="yes"/>
      <point x="203" y="361" type="line"/>
      <point x="209" y="361" type="line"/>
      <point x="209" y="392" type="line" smooth="yes"/>
      <point x="209" y="417"/>
      <point x="220" y="426"/>
      <point x="244" y="426" type="curve" smooth="yes"/>
      <point x="418" y="426" type="line" smooth="yes"/>
      <point x="444" y="426"/>
      <point x="449" y="421"/>
      <point x="449" y="395" type="curve" smooth="yes"/>
      <point x="449" y="227" type="line"/>
    </contour>
    <contour>
      <point x="209" y="-141" type="line"/>
      <point x="209" y="413" type="line"/>
      <point x="208" y="421" type="line"/>
      <point x="208" y="485" type="line"/>
      <point x="80" y="485" type="line"/>
      <point x="80" y="-141" type="line"/>
    </contour>
    <contour>
      <point x="449" y="258" type="line"/>
      <point x="449" y="90" type="line" smooth="yes"/>
      <point x="449" y="64"/>
      <point x="444" y="59"/>
      <point x="418" y="59" type="curve" smooth="yes"/>
      <point x="244" y="59" type="line" smooth="yes"/>
      <point x="220" y="59"/>
      <point x="209" y="68"/>
      <point x="209" y="92" type="curve" smooth="yes"/>
      <point x="209" y="117" type="line"/>
      <point x="203" y="116" type="line"/>
      <point x="203" y="71" type="line" smooth="yes"/>
      <point x="203" y="23"/>
      <point x="220" y="0"/>
      <point x="265" y="0" type="curve" smooth="yes"/>
      <point x="499" y="0" type="line" smooth="yes"/>
      <point x="552" y="0"/>
      <point x="578" y="26"/>
      <point x="578" y="79" type="curve" smooth="yes"/>
      <point x="578" y="258" type="line"/>
    </contour>
  </outline>
</glyph>
<glyph name="q" format="1">
  <advance width="645"/>
  <unicode hex="0071"/>
  <outline>
    <contour>
      <point x="226" y="227" type="line"/>
      <point x="226" y="395" type="line" smooth="yes"/>
      <point x="226" y="421"/>
      <point x="231" y="426"/>
      <point x="257" y="426" type="curve" smooth="yes"/>
      <point x="430" y="426" type="line" smooth="yes"/>
      <point x="455" y="426"/>
      <point x="465" y="417"/>
      <point x="465" y="392" type="curve" smooth="yes"/>
      <point x="465" y="361" type="line"/>
      <point x="472" y="361" type="line"/>
      <point x="472" y="413" type="line" smooth="yes"/>
      <point x="472" y="462"/>
      <point x="455" y="485"/>
      <point x="410" y="485" type="curve" smooth="yes"/>
      <point x="176" y="485" type="line" smooth="yes"/>
      <point x="123" y="485"/>
      <point x="97" y="459"/>
      <point x="97" y="406" type="curve" smooth="yes"/>
      <point x="97" y="227" type="line"/>
    </contour>
    <contour>
      <point x="595" y="-141" type="line"/>
      <point x="595" y="485" type="line"/>
      <point x="467" y="485" type="line"/>
      <point x="467" y="421" type="line"/>
      <point x="465" y="413" type="line"/>
      <point x="465" y="-141" type="line"/>
    </contour>
    <contour>
      <point x="97" y="258" type="line"/>
      <point x="97" y="79" type="line" smooth="yes"/>
      <point x="97" y="26"/>
      <point x="123" y="0"/>
      <point x="176" y="0" type="curve" smooth="yes"/>
      <point x="410" y="0" type="line" smooth="yes"/>
      <point x="455" y="0"/>
      <point x="472" y="23"/>
      <point x="472" y="71" type="curve" smooth="yes"/>
      <point x="472" y="116" type="line"/>
      <point x="465" y="117" type="line"/>
      <point x="465" y="92" type="line" smooth="yes"/>
      <point x="465" y="68"/>
      <point x="455" y="59"/>
      <point x="430" y="59" type="curve" smooth="yes"/>
      <point x="257" y="59" type="line" smooth="yes"/>
      <point x="231" y="59"/>
      <point x="226" y="64"/>
      <point x="226" y="90" type="curve" smooth="yes"/>
      <point x="226" y="258" type="line"/>
    </contour>
  </outline>
</glyph>
<glyph name="r" format="1">
  <advance width="396"/>
  <unicode hex="0072"/>
  <outline>
    <contour>
      <point x="388" y="486" type="line"/>
      <point x="301" y="486" type="line" smooth="yes"/>
      <point x="233" y="486"/>
      <point x="204" y="442"/>
      <point x="204" y="389" type="curve" smooth="yes"/>
      <point x="204" y="303" type="line"/>
      <point x="209" y="303" type="line"/>
      <point x="209" y="346" type="line" smooth="yes"/>
      <point x="209" y="394"/>
      <point x="231" y="421"/>
      <point x="278" y="421" type="curve" smooth="yes"/>
      <point x="388" y="421" type="line"/>
    </contour>
    <contour>
      <point x="209" y="0" type="line"/>
      <point x="209" y="485" type="line"/>
      <point x="80" y="485" type="line"/>
      <point x="80" y="0" type="line"/>
    </contour>
  </outline>
</glyph>
<glyph name="s" format="1">
  <advance width="592"/>
  <unicode hex="0073"/>
  <outline>
    <contour>
      <point x="402" y="89" type="line"/>
      <point x="402" y="63"/>
      <point x="397" y="58"/>
      <point x="371" y="58" type="curve" smooth="yes"/>
      <point x="227" y="58" type="line" smooth="yes"/>
      <point x="201" y="58"/>
      <point x="196" y="63"/>
      <point x="196" y="89" type="curve" smooth="yes"/>
      <point x="196" y="140" type="line"/>
      <point x="70" y="140" type="line"/>
      <point x="70" y="79" type="line" smooth="yes"/>
      <point x="70" y="26"/>
      <point x="96" y="0"/>
      <point x="149" y="0" type="curve" smooth="yes"/>
      <point x="451" y="0" type="line" smooth="yes"/>
      <point x="504" y="0"/>
      <point x="530" y="26"/>
      <point x="530" y="79" type="curve" smooth="yes"/>
      <point x="530" y="192" type="line" smooth="yes"/>
      <point x="530" y="245"/>
      <point x="504" y="271"/>
      <point x="451" y="271" type="curve" smooth="yes"/>
      <point x="227" y="271" type="line" smooth="yes"/>
      <point x="201" y="271"/>
      <point x="196" y="276"/>
      <point x="196" y="302" type="curve" smooth="yes"/>
      <point x="196" y="396" type="line" smooth="yes"/>
      <point x="196" y="422"/>
      <point x="201" y="427"/>
      <point x="227" y="427" type="curve" smooth="yes"/>
      <point x="369" y="427" type="line" smooth="yes"/>
      <point x="395" y="427"/>
      <point x="400" y="422"/>
      <point x="400" y="396" type="curve" smooth="yes"/>
      <point x="400" y="345" type="line"/>
      <point x="526" y="345" type="line"/>
      <point x="526" y="406" type="line" smooth="yes"/>
      <point x="526" y="459"/>
      <point x="500" y="485"/>
      <point x="447" y="485" type="curve" smooth="yes"/>
      <point x="146" y="485" type="line" smooth="yes"/>
      <point x="93" y="485"/>
      <point x="67" y="459"/>
      <point x="67" y="406" type="curve" smooth="yes"/>
      <point x="67" y="291" type="line" smooth="yes"/>
      <point x="67" y="238"/>
      <point x="93" y="212"/>
      <point x="146" y="212" type="curve" smooth="yes"/>
      <point x="371" y="212" type="line" smooth="yes"/>
      <point x="397" y="212"/>
      <point x="402" y="207"/>
      <point x="402" y="181" type="curve" smooth="yes"/>
    </contour>
  </outline>
</glyph>
<glyph name="t" format="1">
  <advance width="384"/>
  <unicode hex="0074"/>
  <outline>
    <contour>
      <point x="237" y="581" type="line"/>
      <point x="108" y="581" type="line"/>
      <point x="108" y="79" type="line" smooth="yes"/>
      <point x="108" y="26"/>
      <point x="134" y="0"/>
      <point x="187" y="0" type="curve" smooth="yes"/>
      <point x="349" y="0" type="line"/>
      <point x="349" y="63" type="line"/>
      <point x="268" y="63" type="line" smooth="yes"/>
      <point x="242" y="63"/>
      <point x="237" y="68"/>
      <point x="237" y="94" type="curve" smooth="yes"/>
    </contour>
    <contour>
      <point x="350" y="485" type="line"/>
      <point x="30" y="485" type="line"/>
      <point x="30" y="426" type="line"/>
      <point x="350" y="426" type="line"/>
    </contour>
  </outline>
</glyph>
<glyph name="u" format="1">
  <advance width="642"/>
  <unicode hex="0075"/>
  <outline>
    <contour>
      <point x="72" y="485" type="line"/>
      <point x="72" y="79" type="line" smooth="yes"/>
      <point x="72" y="26"/>
      <point x="98" y="0"/>
      <point x="151" y="0" type="curve" smooth="yes"/>
      <point x="377" y="0" type="line" smooth="yes"/>
      <point x="422" y="0"/>
      <point x="439" y="23"/>
      <point x="439" y="71" type="curve" smooth="yes"/>
      <point x="439" y="124" type="line"/>
      <point x="433" y="124" type="line"/>
      <point x="433" y="92" type="line" smooth="yes"/>
      <point x="433" y="68"/>
      <point x="423" y="59"/>
      <point x="398" y="59" type="curve" smooth="yes"/>
      <point x="232" y="59" type="line" smooth="yes"/>
      <point x="206" y="59"/>
      <point x="201" y="64"/>
      <point x="201" y="90" type="curve" smooth="yes"/>
      <point x="201" y="485" type="line"/>
    </contour>
    <contour>
      <point x="433" y="485" type="line"/>
      <point x="433" y="0" type="line"/>
      <point x="562" y="0" type="line"/>
      <point x="562" y="485" type="line"/>
    </contour>
  </outline>
</glyph>
<glyph name="v" format="1">
  <advance width="610"/>
  <unicode hex="0076"/>
  <outline>
    <contour>
      <point x="150" y="485" type="line"/>
      <point x="304" y="83" type="line"/>
      <point x="460" y="485" type="line"/>
      <point x="588" y="485" type="line"/>
      <point x="390" y="0" type="line"/>
      <point x="219" y="0" type="line"/>
      <point x="22" y="485" type="line"/>
    </contour>
  </outline>
</glyph>
<glyph name="w" format="1">
  <advance width="902"/>
  <unicode hex="0077"/>
  <outline>
    <contour>
      <point x="758" y="485" type="line"/>
      <point x="631" y="83" type="line"/>
      <point x="518" y="485" type="line"/>
      <point x="386" y="485" type="line"/>
      <point x="271" y="83" type="line"/>
      <point x="145" y="485" type="line"/>
      <point x="22" y="485" type="line"/>
      <point x="187" y="0" type="line"/>
      <point x="346" y="0" type="line"/>
      <point x="451" y="389" type="line"/>
      <point x="558" y="0" type="line"/>
      <point x="717" y="0" type="line"/>
      <point x="880" y="485" type="line"/>
    </contour>
  </outline>
</glyph>
<glyph name="x" format="1">
  <advance width="612"/>
  <unicode hex="0078"/>
  <outline>
    <contour>
      <point x="377" y="255" type="line"/>
      <point x="583" y="485" type="line"/>
      <point x="470" y="485" type="line"/>
      <point x="322" y="313" type="line"/>
      <point x="181" y="485" type="line"/>
      <point x="30" y="485" type="line"/>
      <point x="239" y="235" type="line"/>
      <point x="26" y="0" type="line"/>
      <point x="136" y="0" type="line"/>
      <point x="293" y="175" type="line"/>
      <point x="441" y="0" type="line"/>
      <point x="592" y="0" type="line"/>
    </contour>
  </outline>
</glyph>
<glyph name="y" format="1">
  <advance width="600"/>
  <unicode hex="0079"/>
  <outline>
    <contour>
      <point x="26" y="485" type="line"/>
      <point x="230" y="0" type="line"/>
      <point x="278" y="0" type="line"/>
      <point x="259" y="-40" type="line" smooth="yes"/>
      <point x="245" y="-70"/>
      <point x="223" y="-82"/>
      <point x="181" y="-82" type="curve" smooth="yes"/>
      <point x="115" y="-82" type="line"/>
      <point x="115" y="-141" type="line"/>
      <point x="224" y="-141" type="line" smooth="yes"/>
      <point x="318" y="-141"/>
      <point x="346" y="-103"/>
      <point x="372" y="-38" type="curve" smooth="yes"/>
      <point x="594" y="485" type="line"/>
      <point x="464" y="485" type="line"/>
      <point x="312" y="86" type="line"/>
      <point x="159" y="485" type="line"/>
    </contour>
  </outline>
</glyph>
<glyph name="z" format="1">
  <advance width="524"/>
  <unicode hex="007A"/>
  <outline>
    <contour>
      <point x="471" y="485" type="line"/>
      <point x="63" y="485" type="line"/>
      <point x="63" y="426" type="line"/>
      <point x="471" y="426" type="line"/>
    </contour>
    <contour>
      <point x="333" y="426" type="line"/>
      <point x="49" y="59" type="line"/>
      <point x="186" y="59" type="line"/>
      <point x="471" y="426" type="line"/>
    </contour>
    <contour>
      <point x="475" y="59" type="line"/>
      <point x="49" y="59" type="line"/>
      <point x="49" y="0" type="line"/>
      <point x="475" y="0" type="line"/>
    </contour>
  </outline>
</glyph>
<glyph name="braceleft" format="1">
  <advance width="415"/>
  <unicode hex="007B"/>
  <outline>
    <contour>
      <point x="302" y="597" type="line"/>
      <point x="302" y="638"/>
      <point x="310" y="661"/>
      <point x="349" y="661" type="curve" smooth="yes"/>
      <point x="447" y="661" type="line"/>
      <point x="447" y="720" type="line"/>
      <point x="316" y="720" type="line" smooth="yes"/>
      <point x="214" y="720"/>
      <point x="169" y="684"/>
      <point x="169" y="585" type="curve" smooth="yes"/>
      <point x="169" y="382" type="line" smooth="yes"/>
      <point x="169" y="310"/>
      <point x="143" y="278"/>
      <point x="79" y="278" type="curve" smooth="yes"/>
      <point x="63" y="278" type="line"/>
      <point x="63" y="219" type="line"/>
      <point x="79" y="219" type="line" smooth="yes"/>
      <point x="143" y="219"/>
      <point x="169" y="188"/>
      <point x="169" y="117" type="curve" smooth="yes"/>
      <point x="169" y="-87" type="line" smooth="yes"/>
      <point x="169" y="-186"/>
      <point x="214" y="-221"/>
      <point x="316" y="-221" type="curve" smooth="yes"/>
      <point x="447" y="-221" type="line"/>
      <point x="447" y="-162" type="line"/>
      <point x="349" y="-162" type="line" smooth="yes"/>
      <point x="310" y="-162"/>
      <point x="302" y="-139"/>
      <point x="302" y="-98" type="curve" smooth="yes"/>
      <point x="302" y="125" type="line" smooth="yes"/>
      <point x="302" y="194"/>
      <point x="275" y="243"/>
      <point x="218" y="248" type="curve"/>
      <point x="275" y="253"/>
      <point x="302" y="301"/>
      <point x="302" y="371" type="curve" smooth="yes"/>
    </contour>
  </outline>
</glyph>
<glyph name="bar" format="1">
  <advance width="302"/>
  <unicode hex="007C"/>
  <outline>
    <contour>
      <point x="90" y="750" type="line"/>
      <point x="90" y="-129" type="line"/>
      <point x="212" y="-129" type="line"/>
      <point x="212" y="750" type="line"/>
    </contour>
  </outline>
</glyph>
<glyph name="braceright" format="1">
  <advance width="420"/>
  <unicode hex="007D"/>
  <outline>
    <contour>
      <point x="118" y="371" type="line"/>
      <point x="118" y="301"/>
      <point x="145" y="253"/>
      <point x="202" y="248" type="curve"/>
      <point x="145" y="243"/>
      <point x="118" y="194"/>
      <point x="118" y="125" type="curve" smooth="yes"/>
      <point x="118" y="-98" type="line" smooth="yes"/>
      <point x="118" y="-139"/>
      <point x="110" y="-162"/>
      <point x="72" y="-162" type="curve" smooth="yes"/>
      <point x="-27" y="-162" type="line"/>
      <point x="-27" y="-221" type="line"/>
      <point x="104" y="-221" type="line" smooth="yes"/>
      <point x="207" y="-221"/>
      <point x="251" y="-186"/>
      <point x="251" y="-87" type="curve" smooth="yes"/>
      <point x="251" y="117" type="line" smooth="yes"/>
      <point x="251" y="188"/>
      <point x="277" y="219"/>
      <point x="342" y="219" type="curve" smooth="yes"/>
      <point x="357" y="219" type="line"/>
      <point x="357" y="278" type="line"/>
      <point x="342" y="278" type="line" smooth="yes"/>
      <point x="277" y="278"/>
      <point x="251" y="310"/>
      <point x="251" y="382" type="curve" smooth="yes"/>
      <point x="251" y="585" type="line" smooth="yes"/>
      <point x="251" y="684"/>
      <point x="207" y="720"/>
      <point x="104" y="720" type="curve" smooth="yes"/>
      <point x="-27" y="720" type="line"/>
      <point x="-27" y="661" type="line"/>
      <point x="72" y="661" type="line" smooth="yes"/>
      <point x="110" y="661"/>
      <point x="118" y="638"/>
      <point x="118" y="597" type="curve" smooth="yes"/>
    </contour>
  </outline>
</glyph>
<glyph name="asciitilde" format="1">
  <advance width="788"/>
  <unicode hex="007E"/>
  <outline>
    <contour>
      <point x="244" y="267" type="curve" smooth="yes"/>
      <point x="357" y="267"/>
      <point x="419" y="167"/>
      <point x="523" y="167" type="curve" smooth="yes"/>
      <point x="641" y="167" type="line" smooth="yes"/>
      <point x="696" y="167"/>
      <point x="720" y="196"/>
      <point x="720" y="244" type="curve" smooth="yes"/>
      <point x="720" y="333" type="line"/>
      <point x="593" y="333" type="line"/>
      <point x="593" y="273" type="line" smooth="yes"/>
      <point x="593" y="243"/>
      <point x="581" y="232"/>
      <point x="544" y="232" type="curve" smooth="yes"/>
      <point x="431" y="232"/>
      <point x="387" y="333"/>
      <point x="268" y="333" type="curve" smooth="yes"/>
      <point x="146" y="333" type="line" smooth="yes"/>
      <point x="92" y="333"/>
      <point x="69" y="305"/>
      <point x="69" y="256" type="curve" smooth="yes"/>
      <point x="69" y="167" type="line"/>
      <point x="195" y="167" type="line"/>
      <point x="195" y="227" type="line" smooth="yes"/>
      <point x="195" y="258"/>
      <point x="207" y="267"/>
    </contour>
  </outline>
</glyph>
<glyph name="exclamdown" format="1">
  <advance width="304"/>
  <unicode hex="00A1"/>
  <outline>
    <contour>
      <point x="99" y="282" type="line"/>
      <point x="76" y="-137" type="line"/>
      <point x="228" y="-137" type="line"/>
      <point x="205" y="282" type="line"/>
    </contour>
    <contour>
      <point x="81" y="485" type="line"/>
      <point x="81" y="359" type="line"/>
      <point x="223" y="359" type="line"/>
      <point x="223" y="485" type="line"/>
    </contour>
  </outline>
</glyph>
<glyph name="cent" format="1">
  <advance width="600"/>
  <unicode hex="00A2"/>
  <outline>
    <contour>
      <point x="372" y="467" type="line"/>
      <point x="372" y="562" type="line"/>
      <point x="243" y="562" type="line"/>
      <point x="243" y="467" type="line"/>
    </contour>
    <contour>
      <point x="372" y="-77" type="line"/>
      <point x="372" y="18" type="line"/>
      <point x="243" y="18" type="line"/>
      <point x="243" y="-77" type="line"/>
    </contour>
    <contour>
      <point x="198" y="395" type="line"/>
      <point x="198" y="421"/>
      <point x="203" y="426"/>
      <point x="229" y="426" type="curve" smooth="yes"/>
      <point x="374" y="426" type="line"/>
      <point x="374" y="485" type="line"/>
      <point x="148" y="485" type="line" smooth="yes"/>
      <point x="95" y="485"/>
      <point x="69" y="459"/>
      <point x="69" y="406" type="curve" smooth="yes"/>
      <point x="69" y="79" type="line" smooth="yes"/>
      <point x="69" y="26"/>
      <point x="95" y="0"/>
      <point x="148" y="0" type="curve" smooth="yes"/>
      <point x="369" y="0" type="line"/>
      <point x="369" y="59" type="line"/>
      <point x="229" y="59" type="line" smooth="yes"/>
      <point x="203" y="59"/>
      <point x="198" y="64"/>
      <point x="198" y="90" type="curve" smooth="yes"/>
    </contour>
    <contour>
      <point x="422" y="320" type="line"/>
      <point x="549" y="320" type="line"/>
      <point x="549" y="406" type="line" smooth="yes"/>
      <point x="549" y="459"/>
      <point x="523" y="485"/>
      <point x="470" y="485" type="curve" smooth="yes"/>
      <point x="245" y="485" type="line"/>
      <point x="245" y="426" type="line"/>
      <point x="391" y="426" type="line" smooth="yes"/>
      <point x="417" y="426"/>
      <point x="422" y="421"/>
      <point x="422" y="395" type="curve" smooth="yes"/>
    </contour>
    <contour>
      <point x="422" y="90" type="line"/>
      <point x="422" y="64"/>
      <point x="417" y="59"/>
      <point x="391" y="59" type="curve" smooth="yes"/>
      <point x="245" y="59" type="line"/>
      <point x="245" y="0" type="line"/>
      <point x="470" y="0" type="line" smooth="yes"/>
      <point x="523" y="0"/>
      <point x="549" y="26"/>
      <point x="549" y="79" type="curve" smooth="yes"/>
      <point x="549" y="164" type="line"/>
      <point x="422" y="164" type="line"/>
    </contour>
  </outline>
</glyph>
<glyph name="sterling" format="1">
  <advance width="699"/>
  <unicode hex="00A3"/>
  <outline>
    <contour>
      <point x="275" y="532" type="line"/>
      <point x="275" y="558"/>
      <point x="280" y="563"/>
      <point x="306" y="563" type="curve" smooth="yes"/>
      <point x="473" y="563" type="line" smooth="yes"/>
      <point x="499" y="563"/>
      <point x="504" y="558"/>
      <point x="504" y="532" type="curve" smooth="yes"/>
      <point x="504" y="431" type="line"/>
      <point x="638" y="431" type="line"/>
      <point x="638" y="543" type="line" smooth="yes"/>
      <point x="638" y="596"/>
      <point x="612" y="622"/>
      <point x="559" y="622" type="curve" smooth="yes"/>
      <point x="219" y="622" type="line" smooth="yes"/>
      <point x="166" y="622"/>
      <point x="140" y="596"/>
      <point x="140" y="543" type="curve" smooth="yes"/>
      <point x="140" y="184" type="line" smooth="yes"/>
      <point x="140" y="117"/>
      <point x="121" y="74"/>
      <point x="65" y="70" type="curve"/>
      <point x="65" y="0" type="line"/>
      <point x="650" y="0" type="line"/>
      <point x="650" y="81" type="line"/>
      <point x="241" y="81" type="line"/>
      <point x="271" y="96"/>
      <point x="275" y="133"/>
      <point x="275" y="191" type="curve" smooth="yes"/>
    </contour>
    <contour>
      <point x="58" y="272" type="line"/>
      <point x="544" y="272" type="line"/>
      <point x="544" y="331" type="line"/>
      <point x="58" y="331" type="line"/>
    </contour>
  </outline>
</glyph>
<glyph name="currency" format="1">
  <advance width="746"/>
  <unicode hex="00A4"/>
  <outline>
    <contour>
      <point x="641" y="374" type="line"/>
      <point x="641" y="446"/>
      <point x="607" y="487"/>
      <point x="510" y="487" type="curve" smooth="yes"/>
      <point x="240" y="487" type="line" smooth="yes"/>
      <point x="142" y="487"/>
      <point x="109" y="446"/>
      <point x="109" y="374" type="curve" smooth="yes"/>
      <point x="109" y="222" type="line" smooth="yes"/>
      <point x="109" y="150"/>
      <point x="142" y="110"/>
      <point x="240" y="110" type="curve" smooth="yes"/>
      <point x="510" y="110" type="line" smooth="yes"/>
      <point x="607" y="110"/>
      <point x="641" y="150"/>
      <point x="641" y="222" type="curve" smooth="yes"/>
    </contour>
    <contour>
      <point x="281" y="169" type="line"/>
      <point x="231" y="169"/>
      <point x="215" y="175"/>
      <point x="215" y="226" type="curve" smooth="yes"/>
      <point x="215" y="363" type="line" smooth="yes"/>
      <point x="215" y="414"/>
      <point x="231" y="428"/>
      <point x="281" y="428" type="curve" smooth="yes"/>
      <point x="470" y="428" type="line" smooth="yes"/>
      <point x="519" y="428"/>
      <point x="536" y="414"/>
      <point x="536" y="363" type="curve" smooth="yes"/>
      <point x="536" y="226" type="line" smooth="yes"/>
      <point x="536" y="175"/>
      <point x="519" y="169"/>
      <point x="470" y="169" type="curve" smooth="yes"/>
    </contour>
    <contour>
      <point x="238" y="449" type="line"/>
      <point x="136" y="549" type="line"/>
      <point x="63" y="475" type="line"/>
      <point x="165" y="375" type="line"/>
    </contour>
    <contour>
      <point x="581" y="375" type="line"/>
      <point x="683" y="475" type="line"/>
      <point x="610" y="549" type="line"/>
      <point x="508" y="449" type="line"/>
    </contour>
    <contour>
      <point x="165" y="221" type="line"/>
      <point x="63" y="121" type="line"/>
      <point x="136" y="48" type="line"/>
      <point x="238" y="148" type="line"/>
    </contour>
    <contour>
      <point x="508" y="148" type="line"/>
      <point x="610" y="48" type="line"/>
      <point x="683" y="121" type="line"/>
      <point x="581" y="221" type="line"/>
    </contour>
  </outline>
</glyph>
<glyph name="yen" format="1">
  <advance width="720"/>
  <unicode hex="00A5"/>
  <outline>
    <contour>
      <point x="299" y="328" type="line"/>
      <point x="95" y="328" type="line"/>
      <point x="95" y="269" type="line"/>
      <point x="299" y="269" type="line"/>
    </contour>
    <contour>
      <point x="635" y="200" type="line"/>
      <point x="95" y="200" type="line"/>
      <point x="95" y="141" type="line"/>
      <point x="635" y="141" type="line"/>
    </contour>
    <contour>
      <point x="426" y="191" type="line"/>
      <point x="683" y="622" type="line"/>
      <point x="550" y="622" type="line"/>
      <point x="365" y="289" type="line"/>
      <point x="171" y="622" type="line"/>
      <point x="37" y="622" type="line"/>
      <point x="306" y="191" type="line"/>
    </contour>
    <contour>
      <point x="299" y="249" type="line"/>
      <point x="299" y="0" type="line"/>
      <point x="433" y="0" type="line"/>
      <point x="433" y="249" type="line"/>
    </contour>
    <contour>
      <point x="430" y="269" type="line"/>
      <point x="634" y="269" type="line"/>
      <point x="634" y="328" type="line"/>
      <point x="430" y="328" type="line"/>
    </contour>
  </outline>
</glyph>
<glyph name="brokenbar" format="1">
  <advance width="288"/>
  <unicode hex="00A6"/>
  <outline>
    <contour>
      <point x="83" y="250" type="line"/>
      <point x="83" y="-129" type="line"/>
      <point x="205" y="-129" type="line"/>
      <point x="205" y="250" type="line"/>
    </contour>
    <contour>
      <point x="205" y="371" type="line"/>
      <point x="205" y="750" type="line"/>
      <point x="83" y="750" type="line"/>
      <point x="83" y="371" type="line"/>
    </contour>
  </outline>
</glyph>
<glyph name="section" format="1">
  <advance width="724"/>
  <unicode hex="00A7"/>
  <outline>
    <contour>
      <point x="563" y="197" type="curve"/>
      <point x="595" y="203"/>
      <point x="617" y="230"/>
      <point x="617" y="278" type="curve" smooth="yes"/>
      <point x="617" y="370" type="line" smooth="yes"/>
      <point x="617" y="423"/>
      <point x="591" y="449"/>
      <point x="538" y="449" type="curve" smooth="yes"/>
      <point x="322" y="449" type="line" smooth="yes"/>
      <point x="296" y="449"/>
      <point x="291" y="454"/>
      <point x="291" y="480" type="curve" smooth="yes"/>
      <point x="291" y="571" type="line" smooth="yes"/>
      <point x="291" y="597"/>
      <point x="296" y="602"/>
      <point x="322" y="602" type="curve" smooth="yes"/>
      <point x="457" y="602" type="line" smooth="yes"/>
      <point x="483" y="602"/>
      <point x="488" y="597"/>
      <point x="488" y="571" type="curve" smooth="yes"/>
      <point x="488" y="525" type="line"/>
      <point x="620" y="525" type="line"/>
      <point x="620" y="582" type="line" smooth="yes"/>
      <point x="620" y="635"/>
      <point x="594" y="661"/>
      <point x="541" y="661" type="curve" smooth="yes"/>
      <point x="238" y="661" type="line" smooth="yes"/>
      <point x="185" y="661"/>
      <point x="159" y="635"/>
      <point x="159" y="582" type="curve" smooth="yes"/>
      <point x="159" y="469" type="line" smooth="yes"/>
      <point x="159" y="439"/>
      <point x="175" y="425"/>
      <point x="186" y="417" type="curve"/>
      <point x="154" y="410"/>
      <point x="133" y="380"/>
      <point x="133" y="333" type="curve" smooth="yes"/>
      <point x="133" y="245" type="line" smooth="yes"/>
      <point x="133" y="192"/>
      <point x="159" y="166"/>
      <point x="212" y="166" type="curve" smooth="yes"/>
      <point x="427" y="166" type="line" smooth="yes"/>
      <point x="453" y="166"/>
      <point x="458" y="161"/>
      <point x="458" y="135" type="curve" smooth="yes"/>
      <point x="458" y="44" type="line" smooth="yes"/>
      <point x="458" y="18"/>
      <point x="453" y="13"/>
      <point x="427" y="13" type="curve" smooth="yes"/>
      <point x="293" y="13" type="line" smooth="yes"/>
      <point x="267" y="13"/>
      <point x="262" y="18"/>
      <point x="262" y="44" type="curve" smooth="yes"/>
      <point x="262" y="90" type="line"/>
      <point x="130" y="90" type="line"/>
      <point x="130" y="33" type="line" smooth="yes"/>
      <point x="130" y="-20"/>
      <point x="156" y="-46"/>
      <point x="209" y="-46" type="curve" smooth="yes"/>
      <point x="510" y="-46" type="line" smooth="yes"/>
      <point x="563" y="-46"/>
      <point x="589" y="-20"/>
      <point x="589" y="33" type="curve" smooth="yes"/>
      <point x="589" y="142" type="line" smooth="yes"/>
      <point x="589" y="171"/>
      <point x="574" y="189"/>
    </contour>
    <contour>
      <point x="454" y="390" type="line"/>
      <point x="480" y="390"/>
      <point x="485" y="385"/>
      <point x="485" y="359" type="curve" smooth="yes"/>
      <point x="485" y="256" type="line" smooth="yes"/>
      <point x="485" y="230"/>
      <point x="480" y="225"/>
      <point x="454" y="225" type="curve" smooth="yes"/>
      <point x="296" y="225" type="line" smooth="yes"/>
      <point x="270" y="225"/>
      <point x="265" y="230"/>
      <point x="265" y="256" type="curve" smooth="yes"/>
      <point x="265" y="359" type="line" smooth="yes"/>
      <point x="265" y="385"/>
      <point x="270" y="390"/>
      <point x="296" y="390" type="curve" smooth="yes"/>
    </contour>
  </outline>
</glyph>
<glyph name="dieresis" format="1">
  <advance width="629"/>
  <unicode hex="00A8"/>
  <outline>
    <contour>
      <point x="375" y="634" type="line"/>
      <point x="375" y="535" type="line"/>
      <point x="530" y="535" type="line"/>
      <point x="530" y="634" type="line"/>
    </contour>
    <contour>
      <point x="98" y="634" type="line"/>
      <point x="98" y="535" type="line"/>
      <point x="254" y="535" type="line"/>
      <point x="254" y="634" type="line"/>
    </contour>
  </outline>
</glyph>
<glyph name="copyright" format="1">
  <advance width="1057"/>
  <unicode hex="00A9"/>
  <outline>
    <contour>
      <point x="980" y="341" type="line"/>
      <point x="980" y="522"/>
      <point x="913" y="622"/>
      <point x="718" y="622" type="curve" smooth="yes"/>
      <point x="338" y="622" type="line" smooth="yes"/>
      <point x="144" y="622"/>
      <point x="77" y="522"/>
      <point x="77" y="341" type="curve" smooth="yes"/>
      <point x="77" y="276" type="line" smooth="yes"/>
      <point x="77" y="94"/>
      <point x="144" y="0"/>
      <point x="338" y="0" type="curve" smooth="yes"/>
      <point x="718" y="0" type="line" smooth="yes"/>
      <point x="913" y="0"/>
      <point x="980" y="94"/>
      <point x="980" y="276" type="curve" smooth="yes"/>
    </contour>
    <contour>
      <point x="356" y="60" type="line"/>
      <point x="230" y="60"/>
      <point x="190" y="138"/>
      <point x="190" y="269" type="curve" smooth="yes"/>
      <point x="190" y="347" type="line" smooth="yes"/>
      <point x="190" y="478"/>
      <point x="230" y="564"/>
      <point x="356" y="564" type="curve" smooth="yes"/>
      <point x="701" y="564" type="line" smooth="yes"/>
      <point x="827" y="564"/>
      <point x="867" y="478"/>
      <point x="867" y="347" type="curve" smooth="yes"/>
      <point x="867" y="269" type="line" smooth="yes"/>
      <point x="867" y="138"/>
      <point x="827" y="60"/>
      <point x="701" y="60" type="curve" smooth="yes"/>
    </contour>
    <contour>
      <point x="622" y="240" type="line"/>
      <point x="622" y="214"/>
      <point x="617" y="209"/>
      <point x="591" y="209" type="curve" smooth="yes"/>
      <point x="467" y="209" type="line" smooth="yes"/>
      <point x="441" y="209"/>
      <point x="436" y="214"/>
      <point x="436" y="240" type="curve" smooth="yes"/>
      <point x="436" y="391" type="line" smooth="yes"/>
      <point x="436" y="417"/>
      <point x="441" y="422"/>
      <point x="467" y="422" type="curve" smooth="yes"/>
      <point x="591" y="422" type="line" smooth="yes"/>
      <point x="617" y="422"/>
      <point x="622" y="417"/>
      <point x="622" y="391" type="curve" smooth="yes"/>
      <point x="622" y="360" type="line"/>
      <point x="725" y="360" type="line"/>
      <point x="725" y="402" type="line" smooth="yes"/>
      <point x="725" y="455"/>
      <point x="699" y="481"/>
      <point x="646" y="481" type="curve" smooth="yes"/>
      <point x="412" y="481" type="line" smooth="yes"/>
      <point x="359" y="481"/>
      <point x="333" y="455"/>
      <point x="333" y="402" type="curve" smooth="yes"/>
      <point x="333" y="229" type="line" smooth="yes"/>
      <point x="333" y="176"/>
      <point x="359" y="150"/>
      <point x="412" y="150" type="curve" smooth="yes"/>
      <point x="646" y="150" type="line" smooth="yes"/>
      <point x="699" y="150"/>
      <point x="725" y="176"/>
      <point x="725" y="229" type="curve" smooth="yes"/>
      <point x="725" y="271" type="line"/>
      <point x="622" y="271" type="line"/>
    </contour>
  </outline>
</glyph>
<glyph name="ordfeminine" format="1">
  <advance width="440"/>
  <unicode hex="00AA"/>
  <outline>
    <contour>
      <point x="144" y="440" type="line"/>
      <point x="144" y="558" type="line" smooth="yes"/>
      <point x="144" y="577"/>
      <point x="148" y="580"/>
      <point x="167" y="580" type="curve" smooth="yes"/>
      <point x="264" y="580" type="line" smooth="yes"/>
      <point x="281" y="580"/>
      <point x="289" y="574"/>
      <point x="289" y="556" type="curve" smooth="yes"/>
      <point x="289" y="537" type="line"/>
      <point x="293" y="537" type="line"/>
      <point x="293" y="571" type="line" smooth="yes"/>
      <point x="293" y="606"/>
      <point x="281" y="622"/>
      <point x="249" y="622" type="curve" smooth="yes"/>
      <point x="109" y="622" type="line" smooth="yes"/>
      <point x="71" y="622"/>
      <point x="53" y="604"/>
      <point x="53" y="566" type="curve" smooth="yes"/>
      <point x="53" y="440" type="line"/>
    </contour>
    <contour>
      <point x="381" y="280" type="line"/>
      <point x="381" y="622" type="line"/>
      <point x="289" y="622" type="line"/>
      <point x="289" y="280" type="line"/>
    </contour>
    <contour>
      <point x="53" y="462" type="line"/>
      <point x="53" y="336" type="line" smooth="yes"/>
      <point x="53" y="298"/>
      <point x="71" y="280"/>
      <point x="109" y="280" type="curve" smooth="yes"/>
      <point x="249" y="280" type="line" smooth="yes"/>
      <point x="281" y="280"/>
      <point x="293" y="296"/>
      <point x="293" y="331" type="curve" smooth="yes"/>
      <point x="293" y="364" type="line"/>
      <point x="289" y="364" type="line"/>
      <point x="289" y="346" type="line" smooth="yes"/>
      <point x="289" y="329"/>
      <point x="281" y="322"/>
      <point x="264" y="322" type="curve" smooth="yes"/>
      <point x="167" y="322" type="line" smooth="yes"/>
      <point x="148" y="322"/>
      <point x="144" y="326"/>
      <point x="144" y="344" type="curve" smooth="yes"/>
      <point x="144" y="462" type="line"/>
    </contour>
  </outline>
</glyph>
<glyph name="guillemotleft" format="1">
  <advance width="599"/>
  <unicode hex="00AB"/>
  <outline>
    <contour>
      <point x="274" y="102" type="line"/>
      <point x="412" y="102" type="line"/>
      <point x="281" y="254" type="line"/>
      <point x="412" y="407" type="line"/>
      <point x="274" y="407" type="line"/>
      <point x="144" y="255" type="line"/>
    </contour>
    <contour>
      <point x="328" y="102" type="line"/>
      <point x="465" y="102" type="line"/>
      <point x="334" y="254" type="line"/>
      <point x="465" y="407" type="line"/>
      <point x="328" y="407" type="line"/>
      <point x="197" y="255" type="line"/>
    </contour>
  </outline>
</glyph>
<glyph name="logicalnot" format="1">
  <advance width="760"/>
  <unicode hex="00AC"/>
  <outline>
    <contour>
      <point x="661" y="398" type="line"/>
      <point x="63" y="398" type="line"/>
      <point x="63" y="294" type="line"/>
      <point x="661" y="294" type="line"/>
    </contour>
    <contour>
      <point x="693" y="149" type="line"/>
      <point x="693" y="398" type="line"/>
      <point x="609" y="398" type="line"/>
      <point x="609" y="149" type="line"/>
    </contour>
  </outline>
</glyph>
<glyph name="softhyphen" format="1">
  <advance width="357"/>
  <unicode hex="00AD"/>
  <outline>
    <contour>
      <point x="55" y="256" type="line"/>
      <point x="301" y="256" type="line"/>
      <point x="301" y="314" type="line"/>
      <point x="55" y="314" type="line"/>
    </contour>
  </outline>
</glyph>
<glyph name="registered" format="1">
  <advance width="629"/>
  <unicode hex="00AE"/>
  <outline>
    <contour>
      <point x="574" y="532" type="line"/>
      <point x="574" y="634"/>
      <point x="535" y="690"/>
      <point x="424" y="690" type="curve" smooth="yes"/>
      <point x="205" y="690" type="line" smooth="yes"/>
      <point x="93" y="690"/>
      <point x="55" y="634"/>
      <point x="55" y="532" type="curve" smooth="yes"/>
      <point x="55" y="495" type="line" smooth="yes"/>
      <point x="55" y="394"/>
      <point x="93" y="340"/>
      <point x="205" y="340" type="curve" smooth="yes"/>
      <point x="424" y="340" type="line" smooth="yes"/>
      <point x="535" y="340"/>
      <point x="574" y="394"/>
      <point x="574" y="495" type="curve" smooth="yes"/>
    </contour>
    <contour>
      <point x="216" y="381" type="line"/>
      <point x="149" y="381"/>
      <point x="127" y="422"/>
      <point x="127" y="492" type="curve" smooth="yes"/>
      <point x="127" y="536" type="line" smooth="yes"/>
      <point x="127" y="606"/>
      <point x="149" y="652"/>
      <point x="216" y="652" type="curve" smooth="yes"/>
      <point x="414" y="652" type="line" smooth="yes"/>
      <point x="481" y="652"/>
      <point x="503" y="606"/>
      <point x="503" y="536" type="curve" smooth="yes"/>
      <point x="503" y="492" type="line" smooth="yes"/>
      <point x="503" y="422"/>
      <point x="481" y="381"/>
      <point x="414" y="381" type="curve" smooth="yes"/>
    </contour>
    <contour>
      <point x="219" y="613" type="line"/>
      <point x="219" y="420" type="line"/>
      <point x="277" y="420" type="line"/>
      <point x="277" y="490" type="line"/>
      <point x="308" y="490" type="line"/>
      <point x="351" y="420" type="line"/>
      <point x="414" y="420" type="line"/>
      <point x="367" y="491" type="line"/>
      <point x="376" y="491" type="line" smooth="yes"/>
      <point x="397" y="491"/>
      <point x="405" y="505"/>
      <point x="405" y="522" type="curve" smooth="yes"/>
      <point x="405" y="582" type="line" smooth="yes"/>
      <point x="405" y="602"/>
      <point x="394" y="613"/>
      <point x="373" y="613" type="curve" smooth="yes"/>
    </contour>
    <contour>
      <point x="347" y="534" type="line"/>
      <point x="347" y="526"/>
      <point x="344" y="523"/>
      <point x="336" y="523" type="curve" smooth="yes"/>
      <point x="277" y="523" type="line"/>
      <point x="277" y="582" type="line"/>
      <point x="336" y="582" type="line"/>
      <point x="344" y="582"/>
      <point x="347" y="579"/>
      <point x="347" y="571" type="curve"/>
    </contour>
  </outline>
</glyph>
<glyph name="degree" format="1">
  <advance width="585"/>
  <unicode hex="00B0"/>
  <outline>
    <contour>
      <point x="526" y="544" type="line"/>
      <point x="526" y="597"/>
      <point x="501" y="622"/>
      <point x="448" y="622" type="curve" smooth="yes"/>
      <point x="137" y="622" type="line" smooth="yes"/>
      <point x="85" y="622"/>
      <point x="59" y="597"/>
      <point x="59" y="544" type="curve" smooth="yes"/>
      <point x="59" y="403" type="line" smooth="yes"/>
      <point x="59" y="350"/>
      <point x="85" y="325"/>
      <point x="137" y="325" type="curve" smooth="yes"/>
      <point x="448" y="325" type="line" smooth="yes"/>
      <point x="501" y="325"/>
      <point x="526" y="350"/>
      <point x="526" y="403" type="curve" smooth="yes"/>
    </contour>
    <contour>
      <point x="404" y="413" type="line"/>
      <point x="404" y="387"/>
      <point x="399" y="382"/>
      <point x="373" y="382" type="curve" smooth="yes"/>
      <point x="213" y="382" type="line" smooth="yes"/>
      <point x="187" y="382"/>
      <point x="182" y="387"/>
      <point x="182" y="413" type="curve" smooth="yes"/>
      <point x="182" y="535" type="line" smooth="yes"/>
      <point x="182" y="560"/>
      <point x="187" y="565"/>
      <point x="213" y="565" type="curve" smooth="yes"/>
      <point x="373" y="565" type="line" smooth="yes"/>
      <point x="399" y="565"/>
      <point x="404" y="560"/>
      <point x="404" y="535" type="curve" smooth="yes"/>
    </contour>
  </outline>
</glyph>
<glyph name="plusminus" format="1">
  <advance width="700"/>
  <unicode hex="00B1"/>
  <outline>
    <contour>
      <point x="67" y="323" type="line"/>
      <point x="627" y="323" type="line"/>
      <point x="627" y="405" type="line"/>
      <point x="67" y="405" type="line"/>
    </contour>
    <contour>
      <point x="287" y="508" type="line"/>
      <point x="287" y="237" type="line"/>
      <point x="407" y="237" type="line"/>
      <point x="407" y="508" type="line"/>
    </contour>
    <contour>
      <point x="67" y="123" type="line"/>
      <point x="627" y="123" type="line"/>
      <point x="627" y="197" type="line"/>
      <point x="67" y="197" type="line"/>
    </contour>
  </outline>
</glyph>
<glyph name="twosuperior" format="1">
  <advance width="385"/>
  <unicode hex="00B2"/>
  <outline>
    <contour>
      <point x="138" y="563" type="line"/>
      <point x="138" y="577"/>
      <point x="141" y="580"/>
      <point x="155" y="580" type="curve" smooth="yes"/>
      <point x="241" y="580" type="line" smooth="yes"/>
      <point x="256" y="580"/>
      <point x="258" y="577"/>
      <point x="258" y="563" type="curve" smooth="yes"/>
      <point x="258" y="538" type="line" smooth="yes"/>
      <point x="258" y="507"/>
      <point x="248" y="486"/>
      <point x="227" y="468" type="curve" smooth="yes"/>
      <point x="58" y="324" type="line"/>
      <point x="58" y="280" type="line"/>
      <point x="340" y="280" type="line"/>
      <point x="340" y="324" type="line"/>
      <point x="164" y="324" type="line"/>
      <point x="301" y="436" type="line" smooth="yes"/>
      <point x="329" y="460"/>
      <point x="342" y="489"/>
      <point x="342" y="537" type="curve" smooth="yes"/>
      <point x="342" y="579" type="line" smooth="yes"/>
      <point x="342" y="608"/>
      <point x="328" y="622"/>
      <point x="299" y="622" type="curve" smooth="yes"/>
      <point x="98" y="622" type="line" smooth="yes"/>
      <point x="69" y="622"/>
      <point x="55" y="608"/>
      <point x="55" y="579" type="curve" smooth="yes"/>
      <point x="55" y="509" type="line"/>
      <point x="138" y="509" type="line"/>
    </contour>
  </outline>
</glyph>
<glyph name="threesuperior" format="1">
  <advance width="406"/>
  <unicode hex="00B3"/>
  <outline>
    <contour>
      <point x="143" y="563" type="line"/>
      <point x="143" y="577"/>
      <point x="146" y="580"/>
      <point x="160" y="580" type="curve" smooth="yes"/>
      <point x="252" y="580" type="line" smooth="yes"/>
      <point x="266" y="580"/>
      <point x="269" y="577"/>
      <point x="269" y="563" type="curve" smooth="yes"/>
      <point x="269" y="492" type="line" smooth="yes"/>
      <point x="269" y="477"/>
      <point x="266" y="475"/>
      <point x="252" y="475" type="curve" smooth="yes"/>
      <point x="162" y="475" type="line"/>
      <point x="162" y="432" type="line"/>
      <point x="252" y="432" type="line" smooth="yes"/>
      <point x="266" y="432"/>
      <point x="269" y="429"/>
      <point x="269" y="415" type="curve" smooth="yes"/>
      <point x="269" y="340" type="line" smooth="yes"/>
      <point x="269" y="325"/>
      <point x="266" y="322"/>
      <point x="252" y="322" type="curve" smooth="yes"/>
      <point x="160" y="322" type="line" smooth="yes"/>
      <point x="146" y="322"/>
      <point x="143" y="325"/>
      <point x="143" y="340" type="curve" smooth="yes"/>
      <point x="143" y="387" type="line"/>
      <point x="59" y="387" type="line"/>
      <point x="59" y="323" type="line" smooth="yes"/>
      <point x="59" y="294"/>
      <point x="74" y="280"/>
      <point x="103" y="280" type="curve" smooth="yes"/>
      <point x="309" y="280" type="line" smooth="yes"/>
      <point x="338" y="280"/>
      <point x="353" y="294"/>
      <point x="353" y="323" type="curve" smooth="yes"/>
      <point x="353" y="422" type="line" smooth="yes"/>
      <point x="353" y="443"/>
      <point x="343" y="453"/>
      <point x="326" y="454" type="curve"/>
      <point x="343" y="455"/>
      <point x="353" y="467"/>
      <point x="353" y="487" type="curve" smooth="yes"/>
      <point x="353" y="579" type="line" smooth="yes"/>
      <point x="353" y="608"/>
      <point x="338" y="622"/>
      <point x="309" y="622" type="curve" smooth="yes"/>
      <point x="103" y="622" type="line" smooth="yes"/>
      <point x="74" y="622"/>
      <point x="59" y="608"/>
      <point x="59" y="579" type="curve" smooth="yes"/>
      <point x="59" y="514" type="line"/>
      <point x="143" y="514" type="line"/>
    </contour>
  </outline>
</glyph>
<glyph name="acute" format="1">
  <advance width="629"/>
  <unicode hex="00B4"/>
  <outline>
    <contour>
      <point x="169" y="506" type="line"/>
      <point x="284" y="506" type="line"/>
      <point x="451" y="652" type="line"/>
      <point x="308" y="652" type="line"/>
    </contour>
  </outline>
</glyph>
<glyph name="mu.math" format="1">
  <advance width="652"/>
  <unicode hex="00B5"/>
  <outline>
    <contour>
      <point x="80" y="485" type="line"/>
      <point x="80" y="79" type="line" smooth="yes"/>
      <point x="80" y="26"/>
      <point x="106" y="0"/>
      <point x="159" y="0" type="curve" smooth="yes"/>
      <point x="386" y="0" type="line" smooth="yes"/>
      <point x="431" y="0"/>
      <point x="448" y="23"/>
      <point x="448" y="71" type="curve" smooth="yes"/>
      <point x="448" y="124" type="line"/>
      <point x="442" y="124" type="line"/>
      <point x="442" y="92" type="line" smooth="yes"/>
      <point x="442" y="68"/>
      <point x="431" y="59"/>
      <point x="407" y="59" type="curve" smooth="yes"/>
      <point x="241" y="59" type="line" smooth="yes"/>
      <point x="215" y="59"/>
      <point x="210" y="64"/>
      <point x="210" y="90" type="curve" smooth="yes"/>
      <point x="210" y="485" type="line"/>
    </contour>
    <contour>
      <point x="442" y="485" type="line"/>
      <point x="442" y="0" type="line"/>
      <point x="571" y="0" type="line"/>
      <point x="571" y="485" type="line"/>
    </contour>
    <contour>
      <point x="80" y="403" type="line"/>
      <point x="80" y="-141" type="line"/>
      <point x="210" y="-141" type="line"/>
      <point x="210" y="403" type="line"/>
    </contour>
  </outline>
</glyph>
<glyph name="paragraph" format="1">
  <advance width="753"/>
  <unicode hex="00B6"/>
  <outline>
    <contour>
      <point x="394" y="622" type="line"/>
      <point x="147" y="622" type="line" smooth="yes"/>
      <point x="94" y="622"/>
      <point x="68" y="596"/>
      <point x="68" y="543" type="curve" smooth="yes"/>
      <point x="68" y="299" type="line" smooth="yes"/>
      <point x="68" y="246"/>
      <point x="94" y="220"/>
      <point x="147" y="220" type="curve" smooth="yes"/>
      <point x="394" y="220" type="line"/>
    </contour>
    <contour>
      <point x="316" y="622" type="line"/>
      <point x="316" y="-141" type="line"/>
      <point x="434" y="-141" type="line"/>
      <point x="434" y="622" type="line"/>
    </contour>
    <contour>
      <point x="549" y="622" type="line"/>
      <point x="549" y="-141" type="line"/>
      <point x="667" y="-141" type="line"/>
      <point x="667" y="622" type="line"/>
    </contour>
  </outline>
</glyph>
<glyph name="periodcentered" format="1">
  <advance width="288"/>
  <unicode hex="00B7"/>
  <outline>
    <contour>
      <point x="75" y="251" type="line"/>
      <point x="217" y="251" type="line"/>
      <point x="217" y="377" type="line"/>
      <point x="75" y="377" type="line"/>
    </contour>
  </outline>
</glyph>
<glyph name="cedilla" format="1">
  <advance width="629"/>
  <unicode hex="00B8"/>
  <outline>
    <contour>
      <point x="321" y="-134" type="line"/>
      <point x="321" y="-160"/>
      <point x="313" y="-169"/>
      <point x="287" y="-169" type="curve" smooth="yes"/>
      <point x="178" y="-169" type="line"/>
      <point x="178" y="-227" type="line"/>
      <point x="357" y="-227" type="line" smooth="yes"/>
      <point x="411" y="-227"/>
      <point x="443" y="-200"/>
      <point x="443" y="-141" type="curve" smooth="yes"/>
      <point x="443" y="-49" type="line"/>
      <point x="321" y="-49" type="line"/>
    </contour>
  </outline>
</glyph>
<glyph name="onesuperior" format="1">
  <advance width="259"/>
  <unicode hex="00B9"/>
  <outline>
    <contour>
      <point x="150" y="622" type="line"/>
      <point x="24" y="622" type="line"/>
      <point x="24" y="580" type="line"/>
      <point x="150" y="580" type="line"/>
    </contour>
    <contour>
      <point x="105" y="622" type="line"/>
      <point x="105" y="280" type="line"/>
      <point x="195" y="280" type="line"/>
      <point x="195" y="622" type="line"/>
    </contour>
  </outline>
</glyph>
<glyph name="ordmasculine" format="1">
  <advance width="440"/>
  <unicode hex="00BA"/>
  <outline>
    <contour>
      <point x="375" y="570" type="line"/>
      <point x="375" y="605"/>
      <point x="358" y="622"/>
      <point x="324" y="622" type="curve" smooth="yes"/>
      <point x="112" y="622" type="line" smooth="yes"/>
      <point x="77" y="622"/>
      <point x="60" y="605"/>
      <point x="60" y="570" type="curve" smooth="yes"/>
      <point x="60" y="332" type="line" smooth="yes"/>
      <point x="60" y="297"/>
      <point x="77" y="280"/>
      <point x="112" y="280" type="curve" smooth="yes"/>
      <point x="324" y="280" type="line" smooth="yes"/>
      <point x="358" y="280"/>
      <point x="375" y="297"/>
      <point x="375" y="332" type="curve" smooth="yes"/>
    </contour>
    <contour>
      <point x="287" y="343" type="line"/>
      <point x="287" y="326"/>
      <point x="284" y="322"/>
      <point x="267" y="322" type="curve" smooth="yes"/>
      <point x="168" y="322" type="line" smooth="yes"/>
      <point x="150" y="322"/>
      <point x="147" y="326"/>
      <point x="147" y="343" type="curve" smooth="yes"/>
      <point x="147" y="560" type="line" smooth="yes"/>
      <point x="147" y="577"/>
      <point x="150" y="580"/>
      <point x="168" y="580" type="curve" smooth="yes"/>
      <point x="267" y="580" type="line" smooth="yes"/>
      <point x="284" y="580"/>
      <point x="287" y="577"/>
      <point x="287" y="560" type="curve" smooth="yes"/>
    </contour>
  </outline>
</glyph>
<glyph name="guillemotright" format="1">
  <advance width="591"/>
  <unicode hex="00BB"/>
  <outline>
    <contour>
      <point x="450" y="255" type="line"/>
      <point x="320" y="407" type="line"/>
      <point x="183" y="407" type="line"/>
      <point x="313" y="254" type="line"/>
      <point x="183" y="102" type="line"/>
      <point x="320" y="102" type="line"/>
    </contour>
    <contour>
      <point x="397" y="255" type="line"/>
      <point x="267" y="407" type="line"/>
      <point x="130" y="407" type="line"/>
      <point x="260" y="254" type="line"/>
      <point x="130" y="102" type="line"/>
      <point x="267" y="102" type="line"/>
    </contour>
  </outline>
</glyph>
<glyph name="onequarter" format="1">
  <advance width="892"/>
  <unicode hex="00BC"/>
  <outline>
    <contour>
      <point x="514" y="56" type="line"/>
      <point x="854" y="56" type="line"/>
      <point x="854" y="95" type="line"/>
      <point x="514" y="95" type="line"/>
    </contour>
    <contour>
      <point x="478" y="56" type="line"/>
      <point x="556" y="56" type="line"/>
      <point x="734" y="343" type="line"/>
      <point x="636" y="343" type="line"/>
      <point x="478" y="94" type="line"/>
    </contour>
    <contour>
      <point x="703" y="181" type="line"/>
      <point x="703" y="0" type="line"/>
      <point x="794" y="0" type="line"/>
      <point x="794" y="181" type="line"/>
    </contour>
    <component base="slash" xOffset="140"/>
    <component base="onesuperior" xOffset="21"/>
  </outline>
</glyph>
<glyph name="threequarters" format="1">
  <advance width="1032"/>
  <unicode hex="00BE"/>
  <outline>
    <contour>
      <point x="654" y="56" type="line"/>
      <point x="994" y="56" type="line"/>
      <point x="994" y="95" type="line"/>
      <point x="654" y="95" type="line"/>
    </contour>
    <contour>
      <point x="618" y="56" type="line"/>
      <point x="696" y="56" type="line"/>
      <point x="874" y="343" type="line"/>
      <point x="776" y="343" type="line"/>
      <point x="618" y="94" type="line"/>
    </contour>
    <contour>
      <point x="843" y="181" type="line"/>
      <point x="843" y="0" type="line"/>
      <point x="934" y="0" type="line"/>
      <point x="934" y="181" type="line"/>
    </contour>
    <component base="threesuperior" xOffset="8"/>
    <component base="slash" xOffset="286"/>
  </outline>
</glyph>
<glyph name="questiondown" format="1">
  <advance width="628"/>
  <unicode hex="00BF"/>
  <outline>
    <contour>
      <point x="208" y="119" type="line"/>
      <point x="208" y="144"/>
      <point x="212" y="151"/>
      <point x="237" y="151" type="curve" smooth="yes"/>
      <point x="359" y="151" type="line"/>
      <point x="359" y="213" type="line"/>
      <point x="156" y="213" type="line" smooth="yes"/>
      <point x="102" y="213"/>
      <point x="77" y="184"/>
      <point x="77" y="135" type="curve" smooth="yes"/>
      <point x="77" y="-60" type="line" smooth="yes"/>
      <point x="77" y="-109"/>
      <point x="102" y="-138"/>
      <point x="156" y="-138" type="curve" smooth="yes"/>
      <point x="424" y="-138" type="line"/>
      <point x="424" y="-80" type="line"/>
      <point x="237" y="-80" type="line" smooth="yes"/>
      <point x="212" y="-80"/>
      <point x="208" y="-72"/>
      <point x="208" y="-47" type="curve"/>
    </contour>
    <contour>
      <point x="408" y="151" type="line"/>
      <point x="398" y="281" type="line"/>
      <point x="289" y="281" type="line"/>
      <point x="277" y="151" type="line"/>
    </contour>
    <contour>
      <point x="416" y="484" type="line"/>
      <point x="273" y="484" type="line"/>
      <point x="273" y="359" type="line"/>
      <point x="416" y="359" type="line"/>
    </contour>
    <contour>
      <point x="465" y="-47" type="line"/>
      <point x="465" y="-72"/>
      <point x="461" y="-80"/>
      <point x="435" y="-80" type="curve" smooth="yes"/>
      <point x="255" y="-80" type="line"/>
      <point x="255" y="-138" type="line"/>
      <point x="517" y="-138" type="line" smooth="yes"/>
      <point x="572" y="-138"/>
      <point x="596" y="-109"/>
      <point x="596" y="-60" type="curve" smooth="yes"/>
      <point x="596" y="52" type="line"/>
      <point x="465" y="52" type="line"/>
    </contour>
  </outline>
</glyph>
<glyph name="Agrave" format="1">
  <advance width="706"/>
  <unicode hex="00C0"/>
  <outline>
    <contour>
      <point x="265" y="622" type="line"/>
      <point x="25" y="0" type="line"/>
      <point x="157" y="0" type="line"/>
      <point x="352" y="538" type="line"/>
      <point x="548" y="0" type="line"/>
      <point x="680" y="0" type="line"/>
      <point x="440" y="622" type="line"/>
    </contour>
    <contour>
      <point x="143" y="182" type="line"/>
      <point x="143" y="123" type="line"/>
      <point x="563" y="123" type="line"/>
      <point x="563" y="182" type="line"/>
    </contour>
    <contour>
      <point x="117" y="816" type="line"/>
      <point x="284" y="670" type="line"/>
      <point x="399" y="670" type="line"/>
      <point x="260" y="816" type="line"/>
    </contour>
  </outline>
</glyph>
<glyph name="Adieresis" format="1">
  <advance width="706"/>
  <unicode hex="00C4"/>
  <outline>
    <contour>
      <point x="265" y="622" type="line"/>
      <point x="25" y="0" type="line"/>
      <point x="157" y="0" type="line"/>
      <point x="352" y="538" type="line"/>
      <point x="548" y="0" type="line"/>
      <point x="680" y="0" type="line"/>
      <point x="440" y="622" type="line"/>
    </contour>
    <contour>
      <point x="138" y="768" type="line"/>
      <point x="138" y="669" type="line"/>
      <point x="293" y="669" type="line"/>
      <point x="293" y="768" type="line"/>
    </contour>
    <contour>
      <point x="143" y="182" type="line"/>
      <point x="143" y="123" type="line"/>
      <point x="563" y="123" type="line"/>
      <point x="563" y="182" type="line"/>
    </contour>
    <contour>
      <point x="414" y="768" type="line"/>
      <point x="414" y="669" type="line"/>
      <point x="570" y="669" type="line"/>
      <point x="570" y="768" type="line"/>
    </contour>
  </outline>
</glyph>
<glyph name="AE" format="1">
  <advance width="1039"/>
  <unicode hex="00C6"/>
  <outline>
    <contour>
      <point x="585" y="622" type="line"/>
      <point x="451" y="622" type="line"/>
      <point x="23" y="0" type="line"/>
      <point x="165" y="0" type="line"/>
    </contour>
    <contour>
      <point x="567" y="198" type="line"/>
      <point x="192" y="198" type="line"/>
      <point x="192" y="139" type="line"/>
      <point x="567" y="139" type="line"/>
    </contour>
    <contour>
      <point x="529" y="622" type="line"/>
      <point x="529" y="0" type="line"/>
      <point x="663" y="0" type="line"/>
      <point x="663" y="622" type="line"/>
    </contour>
    <contour>
      <point x="988" y="59" type="line"/>
      <point x="584" y="59" type="line"/>
      <point x="584" y="0" type="line"/>
      <point x="988" y="0" type="line"/>
    </contour>
    <contour>
      <point x="941" y="348" type="line"/>
      <point x="591" y="348" type="line"/>
      <point x="591" y="289" type="line"/>
      <point x="941" y="289" type="line"/>
    </contour>
    <contour>
      <point x="975" y="622" type="line"/>
      <point x="584" y="622" type="line"/>
      <point x="584" y="563" type="line"/>
      <point x="975" y="563" type="line"/>
    </contour>
  </outline>
</glyph>
<glyph name="Edieresis" format="1">
  <advance width="620"/>
  <unicode hex="00CB"/>
  <outline>
    <contour>
      <point x="377" y="768" type="line"/>
      <point x="377" y="669" type="line"/>
      <point x="533" y="669" type="line"/>
      <point x="533" y="768" type="line"/>
    </contour>
    <contour>
      <point x="101" y="768" type="line"/>
      <point x="101" y="669" type="line"/>
      <point x="256" y="669" type="line"/>
      <point x="256" y="768" type="line"/>
    </contour>
    <contour>
      <point x="88" y="622" type="line"/>
      <point x="88" y="0" type="line"/>
      <point x="226" y="0" type="line"/>
      <point x="226" y="622" type="line"/>
    </contour>
    <contour>
      <point x="503" y="348" type="line"/>
      <point x="154" y="348" type="line"/>
      <point x="154" y="289" type="line"/>
      <point x="503" y="289" type="line"/>
    </contour>
    <contour>
      <point x="544" y="622" type="line"/>
      <point x="148" y="622" type="line"/>
      <point x="148" y="563" type="line"/>
      <point x="544" y="563" type="line"/>
    </contour>
    <contour>
      <point x="558" y="59" type="line"/>
      <point x="148" y="59" type="line"/>
      <point x="148" y="0" type="line"/>
      <point x="558" y="0" type="line"/>
    </contour>
  </outline>
</glyph>
<glyph name="Idieresis" format="1">
  <advance width="323"/>
  <unicode hex="00CF"/>
  <outline>
    <contour>
      <point x="95" y="622" type="line"/>
      <point x="95" y="0" type="line"/>
      <point x="232" y="0" type="line"/>
      <point x="232" y="622" type="line"/>
    </contour>
    <contour>
      <point x="-52" y="768" type="line"/>
      <point x="-52" y="669" type="line"/>
      <point x="103" y="669" type="line"/>
      <point x="103" y="768" type="line"/>
    </contour>
    <contour>
      <point x="225" y="768" type="line"/>
      <point x="225" y="669" type="line"/>
      <point x="380" y="669" type="line"/>
      <point x="380" y="768" type="line"/>
    </contour>
  </outline>
</glyph>
<glyph name="Eth" format="1">
  <advance width="721"/>
  <unicode hex="00D0"/>
  <outline>
    <contour>
      <point x="508" y="385" type="line"/>
      <point x="643" y="385" type="line"/>
      <point x="643" y="543" type="line" smooth="yes"/>
      <point x="643" y="596"/>
      <point x="617" y="622"/>
      <point x="564" y="622" type="curve" smooth="yes"/>
      <point x="161" y="622" type="line"/>
      <point x="161" y="563" type="line"/>
      <point x="477" y="563" type="line" smooth="yes"/>
      <point x="503" y="563"/>
      <point x="508" y="558"/>
      <point x="508" y="532" type="curve" smooth="yes"/>
    </contour>
    <contour>
      <point x="508" y="90" type="line"/>
      <point x="508" y="64"/>
      <point x="503" y="59"/>
      <point x="477" y="59" type="curve" smooth="yes"/>
      <point x="161" y="59" type="line"/>
      <point x="161" y="0" type="line"/>
      <point x="564" y="0" type="line" smooth="yes"/>
      <point x="617" y="0"/>
      <point x="643" y="26"/>
      <point x="643" y="79" type="curve" smooth="yes"/>
      <point x="643" y="405" type="line"/>
      <point x="508" y="405" type="line"/>
    </contour>
    <contour>
      <point x="106" y="622" type="line"/>
      <point x="106" y="0" type="line"/>
      <point x="240" y="0" type="line"/>
      <point x="240" y="622" type="line"/>
    </contour>
    <contour>
      <point x="409" y="344" type="line"/>
      <point x="47" y="344" type="line"/>
      <point x="47" y="283" type="line"/>
      <point x="409" y="283" type="line"/>
    </contour>
  </outline>
</glyph>
<glyph name="Odieresis" format="1">
  <advance width="676"/>
  <unicode hex="00D6"/>
  <outline>
    <contour>
      <point x="603" y="543" type="line"/>
      <point x="603" y="596"/>
      <point x="577" y="622"/>
      <point x="524" y="622" type="curve" smooth="yes"/>
      <point x="158" y="622" type="line" smooth="yes"/>
      <point x="105" y="622"/>
      <point x="79" y="596"/>
      <point x="79" y="543" type="curve" smooth="yes"/>
      <point x="79" y="79" type="line" smooth="yes"/>
      <point x="79" y="26"/>
      <point x="105" y="0"/>
      <point x="158" y="0" type="curve" smooth="yes"/>
      <point x="524" y="0" type="line" smooth="yes"/>
      <point x="577" y="0"/>
      <point x="603" y="26"/>
      <point x="603" y="79" type="curve" smooth="yes"/>
    </contour>
    <contour>
      <point x="470" y="90" type="line"/>
      <point x="470" y="64"/>
      <point x="465" y="59"/>
      <point x="439" y="59" type="curve" smooth="yes"/>
      <point x="244" y="59" type="line" smooth="yes"/>
      <point x="218" y="59"/>
      <point x="213" y="64"/>
      <point x="213" y="90" type="curve" smooth="yes"/>
      <point x="213" y="532" type="line" smooth="yes"/>
      <point x="213" y="558"/>
      <point x="218" y="563"/>
      <point x="244" y="563" type="curve" smooth="yes"/>
      <point x="439" y="563" type="line" smooth="yes"/>
      <point x="465" y="563"/>
      <point x="470" y="558"/>
      <point x="470" y="532" type="curve" smooth="yes"/>
    </contour>
    <contour>
      <point x="403" y="769" type="line"/>
      <point x="403" y="669" type="line"/>
      <point x="559" y="669" type="line"/>
      <point x="559" y="769" type="line"/>
    </contour>
    <contour>
      <point x="127" y="769" type="line"/>
      <point x="127" y="669" type="line"/>
      <point x="282" y="669" type="line"/>
      <point x="282" y="769" type="line"/>
    </contour>
  </outline>
</glyph>
<glyph name="multiply" format="1">
  <advance width="663"/>
  <unicode hex="00D7"/>
  <outline>
    <contour>
      <point x="590" y="194" type="line"/>
      <point x="143" y="509" type="line"/>
      <point x="82" y="438" type="line"/>
      <point x="529" y="123" type="line"/>
    </contour>
    <contour>
      <point x="532" y="509" type="line"/>
      <point x="86" y="194" type="line"/>
      <point x="146" y="123" type="line"/>
      <point x="593" y="438" type="line"/>
    </contour>
  </outline>
</glyph>
<glyph name="Oslash" format="1">
  <advance width="709"/>
  <unicode hex="00D8"/>
  <outline>
    <contour>
      <point x="622" y="543" type="line"/>
      <point x="622" y="596"/>
      <point x="596" y="622"/>
      <point x="543" y="622" type="curve" smooth="yes"/>
      <point x="166" y="622" type="line" smooth="yes"/>
      <point x="113" y="622"/>
      <point x="87" y="596"/>
      <point x="87" y="543" type="curve" smooth="yes"/>
      <point x="87" y="79" type="line" smooth="yes"/>
      <point x="87" y="26"/>
      <point x="113" y="0"/>
      <point x="166" y="0" type="curve" smooth="yes"/>
      <point x="543" y="0" type="line" smooth="yes"/>
      <point x="596" y="0"/>
      <point x="622" y="26"/>
      <point x="622" y="79" type="curve" smooth="yes"/>
    </contour>
    <contour>
      <point x="493" y="88" type="line"/>
      <point x="493" y="62"/>
      <point x="488" y="57"/>
      <point x="461" y="57" type="curve" smooth="yes"/>
      <point x="246" y="57" type="line" smooth="yes"/>
      <point x="220" y="57"/>
      <point x="215" y="62"/>
      <point x="215" y="88" type="curve" smooth="yes"/>
      <point x="215" y="534" type="line" smooth="yes"/>
      <point x="215" y="560"/>
      <point x="220" y="565"/>
      <point x="246" y="565" type="curve" smooth="yes"/>
      <point x="461" y="565" type="line" smooth="yes"/>
      <point x="488" y="565"/>
      <point x="493" y="560"/>
      <point x="493" y="534" type="curve" smooth="yes"/>
    </contour>
    <contour>
      <point x="563" y="649" type="line"/>
      <point x="70" y="-27" type="line"/>
      <point x="149" y="-27" type="line"/>
      <point x="641" y="649" type="line"/>
    </contour>
  </outline>
</glyph>
<glyph name="Udieresis" format="1">
  <advance width="698"/>
  <unicode hex="00DC"/>
  <outline>
    <contour>
      <point x="484" y="622" type="line"/>
      <point x="484" y="90" type="line" smooth="yes"/>
      <point x="484" y="64"/>
      <point x="479" y="59"/>
      <point x="453" y="59" type="curve" smooth="yes"/>
      <point x="245" y="59" type="line" smooth="yes"/>
      <point x="219" y="59"/>
      <point x="214" y="64"/>
      <point x="214" y="90" type="curve" smooth="yes"/>
      <point x="214" y="622" type="line"/>
      <point x="80" y="622" type="line"/>
      <point x="80" y="79" type="line" smooth="yes"/>
      <point x="80" y="26"/>
      <point x="106" y="0"/>
      <point x="159" y="0" type="curve" smooth="yes"/>
      <point x="538" y="0" type="line" smooth="yes"/>
      <point x="591" y="0"/>
      <point x="617" y="26"/>
      <point x="617" y="79" type="curve" smooth="yes"/>
      <point x="617" y="622" type="line"/>
    </contour>
    <contour>
      <point x="129" y="768" type="line"/>
      <point x="129" y="669" type="line"/>
      <point x="285" y="669" type="line"/>
      <point x="285" y="768" type="line"/>
    </contour>
    <contour>
      <point x="406" y="768" type="line"/>
      <point x="406" y="669" type="line"/>
      <point x="561" y="669" type="line"/>
      <point x="561" y="768" type="line"/>
    </contour>
  </outline>
</glyph>
<glyph name="Thorn" format="1">
  <advance width="680"/>
  <unicode hex="00DE"/>
  <outline>
    <contour>
      <point x="486" y="192" type="line"/>
      <point x="486" y="166"/>
      <point x="481" y="161"/>
      <point x="455" y="161" type="curve" smooth="yes"/>
      <point x="145" y="161" type="line"/>
      <point x="145" y="102" type="line"/>
      <point x="540" y="102" type="line" smooth="yes"/>
      <point x="593" y="102"/>
      <point x="619" y="128"/>
      <point x="619" y="181" type="curve" smooth="yes"/>
      <point x="619" y="441" type="line" smooth="yes"/>
      <point x="619" y="494"/>
      <point x="593" y="520"/>
      <point x="540" y="520" type="curve" smooth="yes"/>
      <point x="138" y="520" type="line"/>
      <point x="138" y="461" type="line"/>
      <point x="455" y="461" type="line" smooth="yes"/>
      <point x="481" y="461"/>
      <point x="486" y="456"/>
      <point x="486" y="430" type="curve" smooth="yes"/>
    </contour>
    <contour>
      <point x="90" y="622" type="line"/>
      <point x="90" y="0" type="line"/>
      <point x="223" y="0" type="line"/>
      <point x="223" y="622" type="line"/>
    </contour>
  </outline>
</glyph>
<glyph name="germandbls" format="1">
  <advance width="851"/>
  <unicode hex="00DF"/>
  <outline>
    <contour>
      <point x="331" y="154" type="line"/>
      <point x="331" y="79" type="line" smooth="yes"/>
      <point x="331" y="26"/>
      <point x="357" y="0"/>
      <point x="410" y="0" type="curve" smooth="yes"/>
      <point x="724" y="0" type="line" smooth="yes"/>
      <point x="777" y="0"/>
      <point x="803" y="26"/>
      <point x="803" y="79" type="curve" smooth="yes"/>
      <point x="803" y="211" type="line" smooth="yes"/>
      <point x="803" y="264"/>
      <point x="777" y="290"/>
      <point x="724" y="290" type="curve" smooth="yes"/>
      <point x="487" y="290" type="line" smooth="yes"/>
      <point x="461" y="290"/>
      <point x="456" y="295"/>
      <point x="456" y="321" type="curve" smooth="yes"/>
      <point x="456" y="374" type="line" smooth="yes"/>
      <point x="456" y="400"/>
      <point x="461" y="405"/>
      <point x="487" y="405" type="curve" smooth="yes"/>
      <point x="687" y="405" type="line" smooth="yes"/>
      <point x="734" y="405"/>
      <point x="759" y="429"/>
      <point x="759" y="475" type="curve" smooth="yes"/>
      <point x="759" y="543" type="line" smooth="yes"/>
      <point x="759" y="596"/>
      <point x="733" y="622"/>
      <point x="680" y="622" type="curve" smooth="yes"/>
      <point x="169" y="622" type="line" smooth="yes"/>
      <point x="116" y="622"/>
      <point x="90" y="596"/>
      <point x="90" y="543" type="curve" smooth="yes"/>
      <point x="90" y="0" type="line"/>
      <point x="221" y="0" type="line"/>
      <point x="221" y="530" type="line" smooth="yes"/>
      <point x="221" y="556"/>
      <point x="226" y="562"/>
      <point x="252" y="562" type="curve" smooth="yes"/>
      <point x="594" y="562" type="line" smooth="yes"/>
      <point x="620" y="562"/>
      <point x="625" y="556"/>
      <point x="625" y="530" type="curve" smooth="yes"/>
      <point x="625" y="491" type="line" smooth="yes"/>
      <point x="625" y="468"/>
      <point x="619" y="463"/>
      <point x="590" y="463" type="curve" smooth="yes"/>
      <point x="407" y="463" type="line" smooth="yes"/>
      <point x="358" y="463"/>
      <point x="331" y="439"/>
      <point x="331" y="384" type="curve" smooth="yes"/>
      <point x="331" y="311" type="line" smooth="yes"/>
      <point x="331" y="258"/>
      <point x="357" y="232"/>
      <point x="410" y="232" type="curve" smooth="yes"/>
      <point x="644" y="232" type="line" smooth="yes"/>
      <point x="670" y="232"/>
      <point x="675" y="227"/>
      <point x="675" y="201" type="curve" smooth="yes"/>
      <point x="675" y="90" type="line" smooth="yes"/>
      <point x="675" y="64"/>
      <point x="670" y="59"/>
      <point x="644" y="59" type="curve" smooth="yes"/>
      <point x="490" y="59" type="line" smooth="yes"/>
      <point x="464" y="59"/>
      <point x="459" y="64"/>
      <point x="459" y="90" type="curve" smooth="yes"/>
      <point x="459" y="154" type="line"/>
    </contour>
  </outline>
</glyph>
<glyph name="ae" format="1">
  <advance width="985"/>
  <unicode hex="00E6"/>
  <outline>
    <contour>
      <point x="454" y="287" type="line"/>
      <point x="71" y="201" type="line"/>
      <point x="200" y="167" type="line"/>
      <point x="479" y="229" type="line"/>
    </contour>
    <contour>
      <point x="71" y="201" type="line"/>
      <point x="71" y="79" type="line" smooth="yes"/>
      <point x="71" y="26"/>
      <point x="97" y="0"/>
      <point x="150" y="0" type="curve" smooth="yes"/>
      <point x="397" y="0" type="line" smooth="yes"/>
      <point x="452" y="0"/>
      <point x="474" y="16"/>
      <point x="481" y="37" type="curve"/>
      <point x="487" y="16"/>
      <point x="504" y="0"/>
      <point x="557" y="0" type="curve" smooth="yes"/>
      <point x="828" y="0" type="line" smooth="yes"/>
      <point x="881" y="0"/>
      <point x="907" y="26"/>
      <point x="907" y="79" type="curve" smooth="yes"/>
      <point x="907" y="144" type="line"/>
      <point x="780" y="144" type="line"/>
      <point x="780" y="90" type="line" smooth="yes"/>
      <point x="780" y="64"/>
      <point x="775" y="59"/>
      <point x="749" y="59" type="curve" smooth="yes"/>
      <point x="576" y="59" type="line" smooth="yes"/>
      <point x="550" y="59"/>
      <point x="545" y="64"/>
      <point x="545" y="90" type="curve" smooth="yes"/>
      <point x="545" y="395" type="line" smooth="yes"/>
      <point x="545" y="421"/>
      <point x="550" y="426"/>
      <point x="576" y="426" type="curve" smooth="yes"/>
      <point x="751" y="426" type="line" smooth="yes"/>
      <point x="777" y="426"/>
      <point x="782" y="421"/>
      <point x="782" y="395" type="curve" smooth="yes"/>
      <point x="782" y="221" type="line"/>
      <point x="909" y="221" type="line"/>
      <point x="909" y="406" type="line" smooth="yes"/>
      <point x="909" y="459"/>
      <point x="883" y="485"/>
      <point x="830" y="485" type="curve" smooth="yes"/>
      <point x="557" y="485" type="line" smooth="yes"/>
      <point x="504" y="485"/>
      <point x="487" y="469"/>
      <point x="481" y="448" type="curve"/>
      <point x="474" y="469"/>
      <point x="452" y="485"/>
      <point x="397" y="485" type="curve" smooth="yes"/>
      <point x="150" y="485" type="line" smooth="yes"/>
      <point x="97" y="485"/>
      <point x="71" y="459"/>
      <point x="71" y="406" type="curve" smooth="yes"/>
      <point x="71" y="308" type="line"/>
      <point x="200" y="308" type="line"/>
      <point x="200" y="396" type="line" smooth="yes"/>
      <point x="200" y="422"/>
      <point x="205" y="427"/>
      <point x="231" y="427" type="curve" smooth="yes"/>
      <point x="385" y="427" type="line" smooth="yes"/>
      <point x="408" y="427"/>
      <point x="418" y="420"/>
      <point x="418" y="396" type="curve" smooth="yes"/>
      <point x="418" y="89" type="line" smooth="yes"/>
      <point x="418" y="65"/>
      <point x="408" y="59"/>
      <point x="385" y="59" type="curve" smooth="yes"/>
      <point x="231" y="59" type="line" smooth="yes"/>
      <point x="205" y="59"/>
      <point x="200" y="64"/>
      <point x="200" y="90" type="curve" smooth="yes"/>
      <point x="200" y="167" type="line"/>
    </contour>
    <contour>
      <point x="901" y="278" type="line"/>
      <point x="480" y="278" type="line"/>
      <point x="480" y="219" type="line"/>
      <point x="901" y="219" type="line"/>
    </contour>
  </outline>
</glyph>
<glyph name="edieresis" format="1">
  <advance width="630"/>
  <unicode hex="00EB"/>
  <outline>
    <contour>
      <point x="260" y="631" type="line"/>
      <point x="104" y="631" type="line"/>
      <point x="104" y="532" type="line"/>
      <point x="260" y="532" type="line"/>
    </contour>
    <contour>
      <point x="536" y="631" type="line"/>
      <point x="381" y="631" type="line"/>
      <point x="381" y="532" type="line"/>
      <point x="536" y="532" type="line"/>
    </contour>
    <contour>
      <point x="148" y="485" type="line"/>
      <point x="95" y="485"/>
      <point x="69" y="459"/>
      <point x="69" y="406" type="curve" smooth="yes"/>
      <point x="69" y="79" type="line" smooth="yes"/>
      <point x="69" y="26"/>
      <point x="95" y="0"/>
      <point x="148" y="0" type="curve" smooth="yes"/>
      <point x="489" y="0" type="line" smooth="yes"/>
      <point x="542" y="0"/>
      <point x="568" y="26"/>
      <point x="568" y="79" type="curve" smooth="yes"/>
      <point x="568" y="145" type="line"/>
      <point x="442" y="145" type="line"/>
      <point x="442" y="90" type="line" smooth="yes"/>
      <point x="442" y="64"/>
      <point x="437" y="59"/>
      <point x="411" y="59" type="curve" smooth="yes"/>
      <point x="229" y="59" type="line" smooth="yes"/>
      <point x="203" y="59"/>
      <point x="198" y="64"/>
      <point x="198" y="90" type="curve" smooth="yes"/>
      <point x="198" y="219" type="line"/>
      <point x="570" y="219" type="line"/>
      <point x="570" y="406" type="line" smooth="yes"/>
      <point x="570" y="459"/>
      <point x="544" y="485"/>
      <point x="491" y="485" type="curve" smooth="yes"/>
    </contour>
    <contour>
      <point x="198" y="278" type="line"/>
      <point x="198" y="395" type="line" smooth="yes"/>
      <point x="198" y="421"/>
      <point x="203" y="426"/>
      <point x="229" y="426" type="curve" smooth="yes"/>
      <point x="413" y="426" type="line" smooth="yes"/>
      <point x="439" y="426"/>
      <point x="444" y="421"/>
      <point x="444" y="395" type="curve" smooth="yes"/>
      <point x="444" y="278" type="line"/>
    </contour>
  </outline>
</glyph>
<glyph name="igrave" format="1">
  <advance width="304"/>
  <unicode hex="00EC"/>
  <outline>
    <contour>
      <point x="217" y="0" type="line"/>
      <point x="217" y="485" type="line"/>
      <point x="88" y="485" type="line"/>
      <point x="88" y="0" type="line"/>
    </contour>
    <component base="grave" xOffset="-245" yOffset="26"/>
  </outline>
</glyph>
<glyph name="iacute" format="1">
  <advance width="304"/>
  <unicode hex="00ED"/>
  <outline>
    <contour>
      <point x="217" y="0" type="line"/>
      <point x="217" y="485" type="line"/>
      <point x="88" y="485" type="line"/>
      <point x="88" y="0" type="line"/>
    </contour>
    <component base="acute" xOffset="-68" yOffset="26"/>
  </outline>
</glyph>
<glyph name="icircumflex" format="1">
  <advance width="304"/>
  <unicode hex="00EE"/>
  <outline>
    <contour>
      <point x="217" y="0" type="line"/>
      <point x="217" y="485" type="line"/>
      <point x="88" y="485" type="line"/>
      <point x="88" y="0" type="line"/>
    </contour>
    <component base="circumflex" xOffset="-161" yOffset="26"/>
  </outline>
</glyph>
<glyph name="idieresis" format="1">
  <advance width="304"/>
  <unicode hex="00EF"/>
  <outline>
    <contour>
      <point x="217" y="0" type="line"/>
      <point x="217" y="485" type="line"/>
      <point x="88" y="485" type="line"/>
      <point x="88" y="0" type="line"/>
    </contour>
    <component base="dieresis" xOffset="-159" yOffset="-3"/>
  </outline>
</glyph>
<glyph name="eth" format="1">
  <advance width="470"/>
  <unicode hex="00F0"/>
  <outline>
    <contour>
      <point x="214" y="90" type="line"/>
      <point x="214" y="64"/>
      <point x="219" y="59"/>
      <point x="245" y="59" type="curve" smooth="yes"/>
      <point x="418" y="59" type="line"/>
      <point x="418" y="0" type="line"/>
      <point x="164" y="0" type="line" smooth="yes"/>
      <point x="111" y="0"/>
      <point x="85" y="26"/>
      <point x="85" y="79" type="curve" smooth="yes"/>
      <point x="85" y="298" type="line" smooth="yes"/>
      <point x="85" y="351"/>
      <point x="111" y="377"/>
      <point x="164" y="377" type="curve" smooth="yes"/>
      <point x="500" y="377" type="line"/>
      <point x="500" y="318" type="line"/>
      <point x="245" y="318" type="line" smooth="yes"/>
      <point x="219" y="318"/>
      <point x="214" y="313"/>
      <point x="214" y="287" type="curve" smooth="yes"/>
    </contour>
    <contour>
      <point x="472" y="315" type="line"/>
      <point x="472" y="466"/>
      <point x="303" y="571"/>
      <point x="214" y="622" type="curve"/>
      <point x="389" y="622" type="line"/>
      <point x="461" y="575"/>
      <point x="601" y="464"/>
      <point x="601" y="312" type="curve" smooth="yes"/>
      <point x="601" y="79" type="line" smooth="yes"/>
      <point x="601" y="26"/>
      <point x="575" y="0"/>
      <point x="522" y="0" type="curve" smooth="yes"/>
      <point x="407" y="0" type="line"/>
      <point x="407" y="59" type="line"/>
      <point x="441" y="59" type="line" smooth="yes"/>
      <point x="467" y="59"/>
      <point x="472" y="64"/>
      <point x="472" y="90" type="curve" smooth="yes"/>
    </contour>
    <contour>
      <point x="237" y="435" type="line"/>
      <point x="237" y="492" type="line"/>
      <point x="593" y="583" type="line"/>
      <point x="593" y="526" type="line"/>
    </contour>
  </outline>
</glyph>
<glyph name="odieresis" format="1">
  <advance width="636"/>
  <unicode hex="00F6"/>
  <outline>
    <contour>
      <point x="150" y="485" type="line"/>
      <point x="97" y="485"/>
      <point x="71" y="459"/>
      <point x="71" y="406" type="curve" smooth="yes"/>
      <point x="71" y="79" type="line" smooth="yes"/>
      <point x="71" y="26"/>
      <point x="97" y="0"/>
      <point x="150" y="0" type="curve" smooth="yes"/>
      <point x="486" y="0" type="line" smooth="yes"/>
      <point x="539" y="0"/>
      <point x="565" y="26"/>
      <point x="565" y="79" type="curve" smooth="yes"/>
      <point x="565" y="406" type="line" smooth="yes"/>
      <point x="565" y="459"/>
      <point x="539" y="485"/>
      <point x="486" y="485" type="curve" smooth="yes"/>
    </contour>
    <contour>
      <point x="437" y="395" type="curve" smooth="yes"/>
      <point x="437" y="90" type="line" smooth="yes"/>
      <point x="437" y="64"/>
      <point x="432" y="59"/>
      <point x="406" y="59" type="curve" smooth="yes"/>
      <point x="231" y="59" type="line" smooth="yes"/>
      <point x="205" y="59"/>
      <point x="200" y="64"/>
      <point x="200" y="90" type="curve" smooth="yes"/>
      <point x="200" y="395" type="line" smooth="yes"/>
      <point x="200" y="421"/>
      <point x="205" y="426"/>
      <point x="231" y="426" type="curve" smooth="yes"/>
      <point x="406" y="426" type="line" smooth="yes"/>
      <point x="432" y="426"/>
      <point x="437" y="421"/>
    </contour>
    <contour>
      <point x="105" y="631" type="line"/>
      <point x="105" y="532" type="line"/>
      <point x="261" y="532" type="line"/>
      <point x="261" y="631" type="line"/>
    </contour>
    <contour>
      <point x="382" y="631" type="line"/>
      <point x="382" y="532" type="line"/>
      <point x="537" y="532" type="line"/>
      <point x="537" y="631" type="line"/>
    </contour>
  </outline>
</glyph>
<glyph name="divide" format="1">
  <advance width="671"/>
  <unicode hex="00F7"/>
  <outline>
    <contour>
      <point x="52" y="266" type="line"/>
      <point x="611" y="266" type="line"/>
      <point x="611" y="355" type="line"/>
      <point x="52" y="355" type="line"/>
    </contour>
    <contour>
      <point x="265" y="508" type="line"/>
      <point x="265" y="421" type="line"/>
      <point x="398" y="421" type="line"/>
      <point x="398" y="508" type="line"/>
    </contour>
    <contour>
      <point x="265" y="200" type="line"/>
      <point x="265" y="113" type="line"/>
      <point x="398" y="113" type="line"/>
      <point x="398" y="200" type="line"/>
    </contour>
  </outline>
</glyph>
<glyph name="oslash" format="1">
  <advance width="651"/>
  <unicode hex="00F8"/>
  <outline>
    <contour>
      <point x="572" y="406" type="line"/>
      <point x="572" y="459"/>
      <point x="546" y="485"/>
      <point x="493" y="485" type="curve" smooth="yes"/>
      <point x="158" y="485" type="line" smooth="yes"/>
      <point x="105" y="485"/>
      <point x="79" y="459"/>
      <point x="79" y="406" type="curve" smooth="yes"/>
      <point x="79" y="79" type="line" smooth="yes"/>
      <point x="79" y="26"/>
      <point x="105" y="0"/>
      <point x="158" y="0" type="curve" smooth="yes"/>
      <point x="493" y="0" type="line" smooth="yes"/>
      <point x="546" y="0"/>
      <point x="572" y="26"/>
      <point x="572" y="79" type="curve" smooth="yes"/>
    </contour>
    <contour>
      <point x="449" y="87" type="line"/>
      <point x="449" y="60"/>
      <point x="444" y="55"/>
      <point x="417" y="55" type="curve" smooth="yes"/>
      <point x="234" y="55" type="line" smooth="yes"/>
      <point x="208" y="55"/>
      <point x="203" y="60"/>
      <point x="203" y="87" type="curve" smooth="yes"/>
      <point x="203" y="399" type="line" smooth="yes"/>
      <point x="203" y="425"/>
      <point x="208" y="430"/>
      <point x="234" y="430" type="curve" smooth="yes"/>
      <point x="417" y="430" type="line" smooth="yes"/>
      <point x="444" y="430"/>
      <point x="449" y="425"/>
      <point x="449" y="399" type="curve" smooth="yes"/>
    </contour>
    <contour>
      <point x="520" y="511" type="line"/>
      <point x="63" y="-27" type="line"/>
      <point x="139" y="-27" type="line"/>
      <point x="596" y="511" type="line"/>
    </contour>
  </outline>
</glyph>
<glyph name="udieresis" format="1">
  <advance width="649"/>
  <unicode hex="00FC"/>
  <outline>
    <contour>
      <point x="71" y="485" type="line"/>
      <point x="71" y="79" type="line" smooth="yes"/>
      <point x="71" y="26"/>
      <point x="97" y="0"/>
      <point x="150" y="0" type="curve" smooth="yes"/>
      <point x="377" y="0" type="line" smooth="yes"/>
      <point x="422" y="0"/>
      <point x="439" y="23"/>
      <point x="439" y="71" type="curve" smooth="yes"/>
      <point x="439" y="124" type="line"/>
      <point x="433" y="124" type="line"/>
      <point x="433" y="92" type="line" smooth="yes"/>
      <point x="433" y="68"/>
      <point x="422" y="59"/>
      <point x="398" y="59" type="curve" smooth="yes"/>
      <point x="231" y="59" type="line" smooth="yes"/>
      <point x="205" y="59"/>
      <point x="200" y="64"/>
      <point x="200" y="90" type="curve" smooth="yes"/>
      <point x="200" y="485" type="line"/>
    </contour>
    <contour>
      <point x="433" y="485" type="line"/>
      <point x="433" y="0" type="line"/>
      <point x="562" y="0" type="line"/>
      <point x="562" y="485" type="line"/>
    </contour>
    <contour>
      <point x="101" y="631" type="line"/>
      <point x="101" y="532" type="line"/>
      <point x="256" y="532" type="line"/>
      <point x="256" y="631" type="line"/>
    </contour>
    <contour>
      <point x="377" y="631" type="line"/>
      <point x="377" y="532" type="line"/>
      <point x="533" y="532" type="line"/>
      <point x="533" y="631" type="line"/>
    </contour>
  </outline>
</glyph>
<glyph name="thorn" format="1">
  <advance width="642"/>
  <unicode hex="00FE"/>
  <outline>
    <contour>
      <point x="570" y="237" type="line"/>
      <point x="570" y="415" type="line" smooth="yes"/>
      <point x="570" y="468"/>
      <point x="544" y="494"/>
      <point x="491" y="494" type="curve" smooth="yes"/>
      <point x="265" y="494" type="line" smooth="yes"/>
      <point x="220" y="494"/>
      <point x="203" y="471"/>
      <point x="203" y="423" type="curve" smooth="yes"/>
      <point x="203" y="370" type="line"/>
      <point x="209" y="370" type="line"/>
      <point x="209" y="402" type="line" smooth="yes"/>
      <point x="209" y="426"/>
      <point x="220" y="435"/>
      <point x="244" y="435" type="curve" smooth="yes"/>
      <point x="410" y="435" type="line" smooth="yes"/>
      <point x="436" y="435"/>
      <point x="441" y="430"/>
      <point x="441" y="404" type="curve" smooth="yes"/>
      <point x="441" y="237" type="line"/>
    </contour>
    <contour>
      <point x="209" y="-141" type="line"/>
      <point x="209" y="416" type="line"/>
      <point x="208" y="424" type="line"/>
      <point x="208" y="669" type="line"/>
      <point x="80" y="669" type="line"/>
      <point x="80" y="-141" type="line"/>
    </contour>
    <contour>
      <point x="441" y="267" type="line"/>
      <point x="441" y="100" type="line" smooth="yes"/>
      <point x="441" y="74"/>
      <point x="436" y="69"/>
      <point x="410" y="69" type="curve" smooth="yes"/>
      <point x="244" y="69" type="line" smooth="yes"/>
      <point x="220" y="69"/>
      <point x="209" y="78"/>
      <point x="209" y="102" type="curve" smooth="yes"/>
      <point x="209" y="127" type="line"/>
      <point x="203" y="126" type="line"/>
      <point x="203" y="81" type="line" smooth="yes"/>
      <point x="203" y="33"/>
      <point x="220" y="10"/>
      <point x="265" y="10" type="curve" smooth="yes"/>
      <point x="491" y="10" type="line" smooth="yes"/>
      <point x="544" y="10"/>
      <point x="570" y="36"/>
      <point x="570" y="89" type="curve" smooth="yes"/>
      <point x="570" y="267" type="line"/>
    </contour>
  </outline>
</glyph>
<glyph name="ydieresis" format="1">
  <advance width="613"/>
  <unicode hex="00FF"/>
  <outline>
    <contour>
      <point x="26" y="485" type="line"/>
      <point x="230" y="0" type="line"/>
      <point x="277" y="0" type="line"/>
      <point x="258" y="-40" type="line" smooth="yes"/>
      <point x="244" y="-70"/>
      <point x="223" y="-82"/>
      <point x="181" y="-82" type="curve" smooth="yes"/>
      <point x="115" y="-82" type="line"/>
      <point x="115" y="-141" type="line"/>
      <point x="224" y="-141" type="line" smooth="yes"/>
      <point x="317" y="-141"/>
      <point x="346" y="-103"/>
      <point x="372" y="-38" type="curve" smooth="yes"/>
      <point x="594" y="485" type="line"/>
      <point x="463" y="485" type="line"/>
      <point x="312" y="86" type="line"/>
      <point x="159" y="485" type="line"/>
    </contour>
    <contour>
      <point x="376" y="631" type="line"/>
      <point x="376" y="532" type="line"/>
      <point x="531" y="532" type="line"/>
      <point x="531" y="631" type="line"/>
    </contour>
    <contour>
      <point x="99" y="631" type="line"/>
      <point x="99" y="532" type="line"/>
      <point x="255" y="532" type="line"/>
      <point x="255" y="631" type="line"/>
    </contour>
  </outline>
</glyph>
<glyph name="dcaron" format="1">
  <advance width="657"/>
  <unicode hex="010F"/>
  <outline>
    <contour>
      <point x="431" y="455" type="line"/>
      <point x="422" y="476"/>
      <point x="404" y="485"/>
      <point x="375" y="485" type="curve" smooth="yes"/>
      <point x="148" y="485" type="line" smooth="yes"/>
      <point x="95" y="485"/>
      <point x="69" y="459"/>
      <point x="69" y="406" type="curve" smooth="yes"/>
      <point x="69" y="79" type="line" smooth="yes"/>
      <point x="69" y="26"/>
      <point x="95" y="0"/>
      <point x="148" y="0" type="curve" smooth="yes"/>
      <point x="375" y="0" type="line" smooth="yes"/>
      <point x="404" y="0"/>
      <point x="422" y="9"/>
      <point x="431" y="30" type="curve"/>
      <point x="431" y="0" type="line"/>
      <point x="560" y="0" type="line"/>
      <point x="560" y="669" type="line"/>
      <point x="431" y="669" type="line"/>
    </contour>
    <contour>
      <point x="644" y="669" type="line"/>
      <point x="644" y="490" type="line"/>
      <point x="683" y="490" type="line"/>
      <point x="759" y="617" type="line"/>
      <point x="759" y="669" type="line"/>
    </contour>
    <contour>
      <point x="229" y="59" type="line"/>
      <point x="203" y="59"/>
      <point x="198" y="64"/>
      <point x="198" y="90" type="curve" smooth="yes"/>
      <point x="198" y="395" type="line" smooth="yes"/>
      <point x="198" y="421"/>
      <point x="203" y="426"/>
      <point x="229" y="426" type="curve" smooth="yes"/>
      <point x="396" y="426" type="line" smooth="yes"/>
      <point x="420" y="426"/>
      <point x="431" y="417"/>
      <point x="431" y="393" type="curve" smooth="yes"/>
      <point x="431" y="92" type="line" smooth="yes"/>
      <point x="431" y="68"/>
      <point x="420" y="59"/>
      <point x="396" y="59" type="curve" smooth="yes"/>
    </contour>
  </outline>
</glyph>
<glyph name="Dcroat" format="1">
  <advance width="756"/>
  <unicode hex="0110"/>
  <outline>
    <contour>
      <point x="539" y="385" type="line"/>
      <point x="673" y="385" type="line"/>
      <point x="673" y="543" type="line" smooth="yes"/>
      <point x="673" y="596"/>
      <point x="647" y="622"/>
      <point x="594" y="622" type="curve" smooth="yes"/>
      <point x="191" y="622" type="line"/>
      <point x="191" y="563" type="line"/>
      <point x="508" y="563" type="line" smooth="yes"/>
      <point x="534" y="563"/>
      <point x="539" y="558"/>
      <point x="539" y="532" type="curve" smooth="yes"/>
    </contour>
    <contour>
      <point x="539" y="90" type="line"/>
      <point x="539" y="64"/>
      <point x="534" y="59"/>
      <point x="508" y="59" type="curve" smooth="yes"/>
      <point x="191" y="59" type="line"/>
      <point x="191" y="0" type="line"/>
      <point x="594" y="0" type="line" smooth="yes"/>
      <point x="647" y="0"/>
      <point x="673" y="26"/>
      <point x="673" y="79" type="curve" smooth="yes"/>
      <point x="673" y="405" type="line"/>
      <point x="539" y="405" type="line"/>
    </contour>
    <contour>
      <point x="136" y="622" type="line"/>
      <point x="136" y="0" type="line"/>
      <point x="271" y="0" type="line"/>
      <point x="271" y="622" type="line"/>
    </contour>
    <contour>
      <point x="439" y="344" type="line"/>
      <point x="77" y="344" type="line"/>
      <point x="77" y="283" type="line"/>
      <point x="439" y="283" type="line"/>
    </contour>
  </outline>
</glyph>
<glyph name="dcroat" format="1">
  <advance width="642"/>
  <unicode hex="0111"/>
  <outline>
    <contour>
      <point x="200" y="227" type="line"/>
      <point x="200" y="395" type="line" smooth="yes"/>
      <point x="200" y="421"/>
      <point x="205" y="426"/>
      <point x="231" y="426" type="curve" smooth="yes"/>
      <point x="398" y="426" type="line" smooth="yes"/>
      <point x="422" y="426"/>
      <point x="433" y="417"/>
      <point x="433" y="393" type="curve" smooth="yes"/>
      <point x="433" y="362" type="line"/>
      <point x="439" y="362" type="line"/>
      <point x="439" y="414" type="line" smooth="yes"/>
      <point x="439" y="462"/>
      <point x="422" y="485"/>
      <point x="377" y="485" type="curve" smooth="yes"/>
      <point x="150" y="485" type="line" smooth="yes"/>
      <point x="97" y="485"/>
      <point x="71" y="459"/>
      <point x="71" y="406" type="curve" smooth="yes"/>
      <point x="71" y="227" type="line"/>
    </contour>
    <contour>
      <point x="433" y="669" type="line"/>
      <point x="433" y="0" type="line"/>
      <point x="562" y="0" type="line"/>
      <point x="562" y="669" type="line"/>
    </contour>
    <contour>
      <point x="71" y="258" type="line"/>
      <point x="71" y="79" type="line" smooth="yes"/>
      <point x="71" y="26"/>
      <point x="97" y="0"/>
      <point x="150" y="0" type="curve" smooth="yes"/>
      <point x="377" y="0" type="line" smooth="yes"/>
      <point x="422" y="0"/>
      <point x="439" y="23"/>
      <point x="439" y="71" type="curve" smooth="yes"/>
      <point x="439" y="116" type="line"/>
      <point x="433" y="117" type="line"/>
      <point x="433" y="92" type="line" smooth="yes"/>
      <point x="433" y="68"/>
      <point x="422" y="59"/>
      <point x="398" y="59" type="curve" smooth="yes"/>
      <point x="231" y="59" type="line" smooth="yes"/>
      <point x="205" y="59"/>
      <point x="200" y="64"/>
      <point x="200" y="90" type="curve" smooth="yes"/>
      <point x="200" y="258" type="line"/>
    </contour>
    <contour>
      <point x="631" y="599" type="line"/>
      <point x="218" y="599" type="line"/>
      <point x="218" y="540" type="line"/>
      <point x="631" y="540" type="line"/>
    </contour>
  </outline>
</glyph>
<glyph name="gcommaaccent" format="1">
  <advance width="633"/>
  <unicode hex="0123"/>
  <outline>
    <contour>
      <point x="370" y="722" type="line"/>
      <point x="278" y="586" type="line"/>
      <point x="278" y="531" type="line"/>
      <point x="413" y="531" type="line"/>
      <point x="413" y="722" type="line"/>
    </contour>
    <component base="g"/>
  </outline>
</glyph>
<glyph name="imacron" format="1">
  <advance width="304"/>
  <unicode hex="012B"/>
  <outline>
    <contour>
      <point x="217" y="0" type="line"/>
      <point x="217" y="485" type="line"/>
      <point x="88" y="485" type="line"/>
      <point x="88" y="0" type="line"/>
    </contour>
    <component base="macron" xOffset="-158" yOffset="-15"/>
  </outline>
</glyph>
<glyph name="Idotaccent" format="1">
  <advance width="307"/>
  <unicode hex="0130"/>
  <outline>
    <contour>
      <point x="88" y="523" type="line"/>
      <point x="88" y="0" type="line"/>
      <point x="224" y="0" type="line"/>
      <point x="224" y="523" type="line"/>
    </contour>
    <contour>
      <point x="83" y="675" type="line"/>
      <point x="83" y="570" type="line"/>
      <point x="227" y="570" type="line"/>
      <point x="227" y="675" type="line"/>
    </contour>
  </outline>
</glyph>
<glyph name="dotlessi" format="1">
  <advance width="304"/>
  <unicode hex="0131"/>
  <outline>
    <contour>
      <point x="87" y="485" type="line"/>
      <point x="87" y="0" type="line"/>
      <point x="217" y="0" type="line"/>
      <point x="217" y="485" type="line"/>
    </contour>
  </outline>
</glyph>
<glyph name="Lcaron" format="1">
  <advance width="552"/>
  <unicode hex="013D"/>
  <outline>
    <contour>
      <point x="306" y="622" type="line"/>
      <point x="306" y="443" type="line"/>
      <point x="345" y="443" type="line"/>
      <point x="421" y="570" type="line"/>
      <point x="421" y="622" type="line"/>
    </contour>
    <component base="L" xOffset="-1"/>
  </outline>
</glyph>
<glyph name="lcaron" format="1">
  <advance width="324"/>
  <unicode hex="013E"/>
  <outline>
    <contour>
      <point x="88" y="669" type="line"/>
      <point x="88" y="0" type="line"/>
      <point x="217" y="0" type="line"/>
      <point x="217" y="669" type="line"/>
    </contour>
    <contour>
      <point x="302" y="668" type="line"/>
      <point x="302" y="489" type="line"/>
      <point x="341" y="489" type="line"/>
      <point x="417" y="616" type="line"/>
      <point x="417" y="668" type="line"/>
    </contour>
  </outline>
</glyph>
<glyph name="Lslash" format="1">
  <advance width="559"/>
  <unicode hex="0141"/>
  <outline>
    <contour>
      <point x="388" y="406" type="line"/>
      <point x="-31" y="266" type="line"/>
      <point x="-31" y="203" type="line"/>
      <point x="388" y="343" type="line"/>
    </contour>
    <component base="L" xOffset="3"/>
  </outline>
</glyph>
<glyph name="lslash" format="1">
  <advance width="309"/>
  <unicode hex="0142"/>
  <outline>
    <contour>
      <point x="345" y="438" type="line"/>
      <point x="-31" y="313" type="line"/>
      <point x="-31" y="249" type="line"/>
      <point x="345" y="375" type="line"/>
    </contour>
    <component base="l" xOffset="1"/>
  </outline>
</glyph>
<glyph name="Ohungarumlaut" format="1">
  <advance width="676"/>
  <unicode hex="0150"/>
  <outline>
    <contour>
      <point x="158" y="622" type="line"/>
      <point x="105" y="622"/>
      <point x="79" y="596"/>
      <point x="79" y="543" type="curve" smooth="yes"/>
      <point x="79" y="79" type="line" smooth="yes"/>
      <point x="79" y="26"/>
      <point x="105" y="0"/>
      <point x="158" y="0" type="curve" smooth="yes"/>
      <point x="524" y="0" type="line" smooth="yes"/>
      <point x="577" y="0"/>
      <point x="603" y="26"/>
      <point x="603" y="79" type="curve" smooth="yes"/>
      <point x="603" y="543" type="line" smooth="yes"/>
      <point x="603" y="596"/>
      <point x="577" y="622"/>
      <point x="524" y="622" type="curve" smooth="yes"/>
    </contour>
    <contour>
      <point x="470" y="532" type="curve" smooth="yes"/>
      <point x="470" y="90" type="line" smooth="yes"/>
      <point x="470" y="64"/>
      <point x="465" y="59"/>
      <point x="439" y="59" type="curve" smooth="yes"/>
      <point x="244" y="59" type="line" smooth="yes"/>
      <point x="218" y="59"/>
      <point x="213" y="64"/>
      <point x="213" y="90" type="curve" smooth="yes"/>
      <point x="213" y="532" type="line" smooth="yes"/>
      <point x="213" y="558"/>
      <point x="218" y="563"/>
      <point x="244" y="563" type="curve" smooth="yes"/>
      <point x="439" y="563" type="line" smooth="yes"/>
      <point x="465" y="563"/>
      <point x="470" y="558"/>
    </contour>
    <contour>
      <point x="337" y="830" type="line"/>
      <point x="191" y="669" type="line"/>
      <point x="294" y="669" type="line"/>
      <point x="468" y="830" type="line"/>
    </contour>
    <contour>
      <point x="563" y="830" type="line"/>
      <point x="415" y="669" type="line"/>
      <point x="517" y="669" type="line"/>
      <point x="694" y="830" type="line"/>
    </contour>
  </outline>
</glyph>
<glyph name="ohungarumlaut" format="1">
  <advance width="636"/>
  <unicode hex="0151"/>
  <outline>
    <contour>
      <point x="150" y="485" type="line"/>
      <point x="97" y="485"/>
      <point x="71" y="459"/>
      <point x="71" y="406" type="curve" smooth="yes"/>
      <point x="71" y="79" type="line" smooth="yes"/>
      <point x="71" y="26"/>
      <point x="97" y="0"/>
      <point x="150" y="0" type="curve" smooth="yes"/>
      <point x="486" y="0" type="line" smooth="yes"/>
      <point x="539" y="0"/>
      <point x="565" y="26"/>
      <point x="565" y="79" type="curve" smooth="yes"/>
      <point x="565" y="406" type="line" smooth="yes"/>
      <point x="565" y="459"/>
      <point x="539" y="485"/>
      <point x="486" y="485" type="curve" smooth="yes"/>
    </contour>
    <contour>
      <point x="437" y="395" type="curve" smooth="yes"/>
      <point x="437" y="90" type="line" smooth="yes"/>
      <point x="437" y="64"/>
      <point x="432" y="59"/>
      <point x="406" y="59" type="curve" smooth="yes"/>
      <point x="231" y="59" type="line" smooth="yes"/>
      <point x="205" y="59"/>
      <point x="200" y="64"/>
      <point x="200" y="90" type="curve" smooth="yes"/>
      <point x="200" y="395" type="line" smooth="yes"/>
      <point x="200" y="421"/>
      <point x="205" y="426"/>
      <point x="231" y="426" type="curve" smooth="yes"/>
      <point x="406" y="426" type="line" smooth="yes"/>
      <point x="432" y="426"/>
      <point x="437" y="421"/>
    </contour>
    <contour>
      <point x="310" y="693" type="line"/>
      <point x="164" y="532" type="line"/>
      <point x="267" y="532" type="line"/>
      <point x="440" y="693" type="line"/>
    </contour>
    <contour>
      <point x="536" y="693" type="line"/>
      <point x="387" y="532" type="line"/>
      <point x="490" y="532" type="line"/>
      <point x="666" y="693" type="line"/>
    </contour>
  </outline>
</glyph>
<glyph name="OE" format="1">
  <advance width="970"/>
  <unicode hex="0152"/>
  <outline>
    <contour>
      <point x="545" y="529" type="line"/>
      <point x="545" y="585"/>
      <point x="518" y="622"/>
      <point x="448" y="622" type="curve" smooth="yes"/>
      <point x="159" y="622" type="line" smooth="yes"/>
      <point x="106" y="622"/>
      <point x="80" y="596"/>
      <point x="80" y="543" type="curve" smooth="yes"/>
      <point x="80" y="79" type="line" smooth="yes"/>
      <point x="80" y="26"/>
      <point x="106" y="0"/>
      <point x="159" y="0" type="curve" smooth="yes"/>
      <point x="448" y="0" type="line" smooth="yes"/>
      <point x="518" y="0"/>
      <point x="545" y="37"/>
      <point x="545" y="93" type="curve" smooth="yes"/>
    </contour>
    <contour>
      <point x="475" y="90" type="line"/>
      <point x="475" y="64"/>
      <point x="470" y="59"/>
      <point x="444" y="59" type="curve" smooth="yes"/>
      <point x="245" y="59" type="line" smooth="yes"/>
      <point x="219" y="59"/>
      <point x="214" y="64"/>
      <point x="214" y="90" type="curve" smooth="yes"/>
      <point x="214" y="532" type="line" smooth="yes"/>
      <point x="214" y="558"/>
      <point x="219" y="563"/>
      <point x="245" y="563" type="curve" smooth="yes"/>
      <point x="444" y="563" type="line" smooth="yes"/>
      <point x="470" y="563"/>
      <point x="475" y="558"/>
      <point x="475" y="532" type="curve" smooth="yes"/>
    </contour>
    <contour>
      <point x="509" y="622" type="line"/>
      <point x="509" y="0" type="line"/>
      <point x="612" y="0" type="line"/>
      <point x="612" y="622" type="line"/>
    </contour>
    <contour>
      <point x="872" y="348" type="line"/>
      <point x="554" y="348" type="line"/>
      <point x="554" y="289" type="line"/>
      <point x="872" y="289" type="line"/>
    </contour>
    <contour>
      <point x="907" y="622" type="line"/>
      <point x="534" y="622" type="line"/>
      <point x="534" y="563" type="line"/>
      <point x="907" y="563" type="line"/>
    </contour>
    <contour>
      <point x="919" y="59" type="line"/>
      <point x="534" y="59" type="line"/>
      <point x="534" y="0" type="line"/>
      <point x="919" y="0" type="line"/>
    </contour>
  </outline>
</glyph>
<glyph name="oe" format="1">
  <advance width="974"/>
  <unicode hex="0153"/>
  <outline>
    <contour>
      <point x="72" y="79" type="line"/>
      <point x="72" y="26"/>
      <point x="98" y="0"/>
      <point x="151" y="0" type="curve" smooth="yes"/>
      <point x="404" y="0" type="line" smooth="yes"/>
      <point x="459" y="0"/>
      <point x="480" y="16"/>
      <point x="487" y="37" type="curve"/>
      <point x="493" y="16"/>
      <point x="510" y="0"/>
      <point x="563" y="0" type="curve" smooth="yes"/>
      <point x="832" y="0" type="line" smooth="yes"/>
      <point x="885" y="0"/>
      <point x="911" y="26"/>
      <point x="911" y="79" type="curve" smooth="yes"/>
      <point x="911" y="145" type="line"/>
      <point x="784" y="145" type="line"/>
      <point x="784" y="90" type="line" smooth="yes"/>
      <point x="784" y="64"/>
      <point x="779" y="59"/>
      <point x="753" y="59" type="curve" smooth="yes"/>
      <point x="587" y="59" type="line" smooth="yes"/>
      <point x="561" y="59"/>
      <point x="556" y="64"/>
      <point x="556" y="90" type="curve" smooth="yes"/>
      <point x="556" y="395" type="line" smooth="yes"/>
      <point x="556" y="421"/>
      <point x="561" y="426"/>
      <point x="587" y="426" type="curve" smooth="yes"/>
      <point x="755" y="426" type="line" smooth="yes"/>
      <point x="781" y="426"/>
      <point x="786" y="421"/>
      <point x="786" y="395" type="curve" smooth="yes"/>
      <point x="786" y="233" type="line"/>
      <point x="912" y="233" type="line"/>
      <point x="912" y="406" type="line" smooth="yes"/>
      <point x="912" y="459"/>
      <point x="886" y="485"/>
      <point x="833" y="485" type="curve" smooth="yes"/>
      <point x="564" y="485" type="line" smooth="yes"/>
      <point x="511" y="485"/>
      <point x="494" y="469"/>
      <point x="488" y="448" type="curve"/>
      <point x="481" y="469"/>
      <point x="460" y="485"/>
      <point x="405" y="485" type="curve" smooth="yes"/>
      <point x="151" y="485" type="line" smooth="yes"/>
      <point x="98" y="485"/>
      <point x="72" y="459"/>
      <point x="72" y="406" type="curve" smooth="yes"/>
    </contour>
    <contour>
      <point x="201" y="395" type="line"/>
      <point x="201" y="421"/>
      <point x="206" y="426"/>
      <point x="232" y="426" type="curve" smooth="yes"/>
      <point x="394" y="426" type="line" smooth="yes"/>
      <point x="417" y="426"/>
      <point x="427" y="419"/>
      <point x="427" y="396" type="curve" smooth="yes"/>
      <point x="427" y="89" type="line" smooth="yes"/>
      <point x="427" y="65"/>
      <point x="417" y="59"/>
      <point x="394" y="59" type="curve" smooth="yes"/>
      <point x="232" y="59" type="line" smooth="yes"/>
      <point x="206" y="59"/>
      <point x="201" y="64"/>
      <point x="201" y="90" type="curve" smooth="yes"/>
    </contour>
    <contour>
      <point x="912" y="278" type="line"/>
      <point x="488" y="278" type="line"/>
      <point x="488" y="219" type="line"/>
      <point x="912" y="219" type="line"/>
    </contour>
  </outline>
</glyph>
<glyph name="tcaron" format="1">
  <advance width="383"/>
  <unicode hex="0165"/>
  <outline>
    <contour>
      <point x="109" y="581" type="line"/>
      <point x="109" y="79" type="line" smooth="yes"/>
      <point x="109" y="26"/>
      <point x="135" y="0"/>
      <point x="188" y="0" type="curve" smooth="yes"/>
      <point x="349" y="0" type="line"/>
      <point x="349" y="63" type="line"/>
      <point x="269" y="63" type="line" smooth="yes"/>
      <point x="243" y="63"/>
      <point x="238" y="68"/>
      <point x="238" y="94" type="curve" smooth="yes"/>
      <point x="238" y="581" type="line"/>
    </contour>
    <contour>
      <point x="31" y="485" type="line"/>
      <point x="31" y="426" type="line"/>
      <point x="350" y="426" type="line"/>
      <point x="350" y="485" type="line"/>
    </contour>
    <contour>
      <point x="296" y="727" type="line"/>
      <point x="296" y="553" type="line"/>
      <point x="335" y="553" type="line"/>
      <point x="411" y="675" type="line"/>
      <point x="411" y="727" type="line"/>
    </contour>
  </outline>
</glyph>
